<svg width="187" height="187" viewBox="0 0 187 187" fill="none" xmlns="http://www.w3.org/2000/svg"><g clip-path="url(#clip0_1877_1989)"><g clip-path="url(#clip1_1877_1989)" fill="#000"><path d="M141.958 135.531a2.853 2.853 0 011.722 2.51c.071 1.927.568 3.778.666 5.681.005.215-.204.436-.283.663-.079.227-.084.332-.014.403.879.978.421 2.142.495 3.235-1.135.326.035.574.031.856a32.172 32.172 0 01-.291 5.134 254.561 254.561 0 01-.888 4.913 27.021 27.021 0 01-2.258 6.329 27.264 27.264 0 01-4.454 6.422 40.903 40.903 0 01-4.368 3.953 22.905 22.905 0 01-5.33 3.395 10.517 10.517 0 01-3.915 1.242 2.047 2.047 0 01-2.283-1.467 12.864 12.864 0 01-1.298-4.042 1.728 1.728 0 011.648-2.054c.335-.008.664.082.948.259.144.064.366.221.411.176 1.224-1.223 2.822-1.948 4.123-3.115a176.033 176.033 0 003.769-3.456 24.783 24.783 0 006.272-10.328c.378-1.115.446-2.323.715-3.479.133-.571.318-1.191 1.172-.764.117.062.353-.157.534-.238a2.18 2.18 0 01-.36-.352c-.141-.322-.549-.754-.459-.896.581-.886-.041-1.658-.039-2.466a7.44 7.44 0 01.597-2.441 3.203 3.203 0 00.218-2.26c-.085-.193.091-.373-.206-.612a1.966 1.966 0 01-.638-1.879.83.83 0 01.571-.907c.151-.067.208-.285.309-.432a1.537 1.537 0 01-.605.077c-.405-.076-.555-.764-.331-.748.514.091 1.087.028.475-.43-.833-.614-.978-1.087-.607-1.956.099-.33.125-.678.075-1.019a1.407 1.407 0 00-.18-.406c-.737.328-.396-.029-.516-.474a17.54 17.54 0 00-1.287-4.278 3.196 3.196 0 01-.646-2.016c.058-.448-.633-.999-.914-1.462-.281-.464-.368-.835.248-1.032 0 0-.009-.572-.161-.684-.582-.419-1.295-.703-1.115-1.628 0 0-.338-.272-.471-.226-.557.185-.55.028-.437-.47.045-.187-.403-.448-.573-.718a32.903 32.903 0 00-4.276-5.227 2.337 2.337 0 00-.963-.851c-.655-.208-.602.434-.89.678a1.359 1.359 0 01-.98.244c-.41-.061-.676-.083-.855.38a9.731 9.731 0 01-.469.849l-.596-.567a1.565 1.565 0 01-.694.629c-.118.052-.053.023.052.118l.102-.263a2.033 2.033 0 00-.327-.073s-.052.113.162.223c.215.109.222.502.094.559-1.112.379-2.086 1.3-3.421 1.087-.306-.056-.662.295-.993.442-1.813 1.05-3.888 1.013-5.859 1.443-2.335.44-4.722.523-7.079.244-.573-.053-1.412.858-1.806-.297a61.616 61.616 0 00-2.035-.119 14.63 14.63 0 01-2.07-.116 15.653 15.653 0 01-2.03-.773c-.689-.257-1.39-.483-2.054-.801-.665-.319-1.446-.841-2.227-1.134-.781-.292-.996-1.271-1.961-1.546-.63-.181-.887-1.372-1.51-1.888a10.47 10.47 0 01-2.039-2.011c-.25-.362-.545-.512-.36-1.017.187-.506-.245-.556-.56-.749-.316-.193-.482-.541.098-.85l-.075.033c.078.093.163.179.254.258 0 0 .16-.071.213-.184a.825.825 0 00-.37-.117c-.825-.273-.653-1.014-.858-1.538a8.912 8.912 0 01-.519-3.608c.004-.513-.364-1.259.46-1.625a1.362 1.362 0 00-.132-.761c-.352-.624-.418-1.093.448-1.275.635-.154-.077-.899.677-1.363a20.183 20.183 0 012.3-1.394l4.585-2.04a2.333 2.333 0 002.608-.217 2.35 2.35 0 00.59-.707l.386-.171c.082.129.144.27.184.417.102.394.157.8.162 1.208.032.075-.439.195-.707.225.18.61 1.14.9 1.783.563.092-.053.188-.096.289-.128l.416-.186c-.08-.182-.184-.418-.348-.472-.165-.055-.401.076-.6.062a.407.407 0 01-.274-.275c-.002-.178.032-.449.15-.528.32-.18.657-.33 1.005-.447.46-.204.882.811 1.401.017s1.146.22 1.714.03c.569-.188 1.001.183 1.456.633.191.172.781-.143 1.206-.165 1.272-.016 1.276-.005 1.003 1.23a1.85 1.85 0 00.018.504c.136-.024.271-.058.402-.102.193-.09.376-.201.544-.332.818-.697 1.078-.774 1.548.002.369.604.616.584 1.181.358a1.066 1.066 0 01.968.222c.313.45.524.522 1.046.341.32-.142 1.117.04 1.142.183.184 1.057 1.116.617 1.678.905 1.395.787 2.812 1.564 4.196 2.382a6.428 6.428 0 012.01 1.396c.598.834 1.086.375 1.335-.018a20.916 20.916 0 001.681-2.361 8.601 8.601 0 011.774-2.53c.658-.624.731-1.937.927-2.97.195-1.035.049-1.917.24-2.847.095-.746.152-1.498.17-2.25a5.593 5.593 0 00-.09-2.06c-.119-.471.414-1.118.656-1.7a3.7 3.7 0 00.124-.413c-1.089-.296-.544-1.409-1.008-2.111a3.51 3.51 0 01-.692-2.38c.248-1.031-.863-1.638-.469-2.684.169-.458-.434-1.188-.688-1.792-.387-.877-.71-1.783-1.157-2.62-.447-.84-.455-1.757-1.421-2.351-.716-.436-.423-1.859-1.537-2.209-.547-1.47-1.758-2.506-2.529-3.789-1.232-2.01-3.109-3.454-4.572-5.26a44.044 44.044 0 00-5.219-4.845c-1.4-1.259-3.183-2.142-4.239-3.81-1.989-.74-3.479-2.29-5.215-3.387-1.99-1.264-4.02-2.473-6.006-3.727-1.01-.638-2.122-1.014-3.12-1.683a64.682 64.682 0 00-6.961-3.66c-1.466-.743-3.03-1.302-4.467-2.096-1.437-.794-3.204-1.467-4.703-2.4-1.252-.722-2.788-1.101-4.072-1.925a14.854 14.854 0 00-3.457-1.661 25.983 25.983 0 01-3.398-1.47c-1.15-.55-2.398-.943-3.502-1.59a14.85 14.85 0 01-3.016-1.794c-.038-.086-.217-.057-.326-.073a.939.939 0 00.012.404l.798 1.808a3.51 3.51 0 01.461 1.625c-.043.454.643.994.903 1.467.26.473.472 1.07.713 1.615l1.51 3.423c.23.623.498 1.23.803 1.82.213.48.778.805 1 1.282.224.476.1 1.414.46 1.677.567.387.472 1.07.95 1.37.63.473-.266 1.397.683 1.78.446.2.524 1.188.854 1.733.928 1.378.679 2.987.964 4.473.056.128-.123.387-.274.48-.876.594-1.32.459-2.172-.314a8.26 8.26 0 01-2.115-2.822c-.421-.8-.908-1.563-1.455-2.283-.487-.756-.44-1.865-1.481-2.285-.093-.035-.113-.256-.175-.395-1.256-2.5-2.507-5.015-3.8-7.511-.456-.86-1.09-1.627-1.556-2.482-.333-.969-.765-1.9-1.29-2.779-1.021-1.184-1.296-2.764-2.21-3.88-1.544-1.873-2.153-4.238-3.192-6.361-.533-1.209-1.128-2.557.608-3.432.193-.085.183-.542.346-.78.176-.197.372-.375.585-.53a4.69 4.69 0 00.03.678s.315.103.38.048c.198-.19.31-.457.507-.647.483-.471 1.395-.288 1.668-1.088-.588.261-1.218.427-1.824.62-.053.023-.192-.03-.19-.057 0-.026-.028-.294.031-.334 1.089-.663 2.19-1.294 3.268-1.953.836-.512 1.622-1.105 2.492-1.569a12.01 12.01 0 002.761-1.305c1.212-1.166 2.859-1.375 4.106-2.288 2.315-1.708 5.012-2.55 7.525-3.809.289-.128.424-.662.688-.702.263-.04.5.38.785.534.028.064.256-.115.385-.172.748-.333.687-.037.467.51-.124.297-.614.925.386.583.224-.1.577.178.801.078.802-.357 1.208-.422.97.746-.126.645.53.827 1.154.357.624-.47.835-.512 1.154.472a.478.478 0 00.198.245c.447.287.46.32.189.428a1.428 1.428 0 00-1.07.936c-.854-.515-.626.407-.89.678a1.772 1.772 0 01-.444.415c-2.348 1.313-4.502 2.924-6.91 4.162a61.5 61.5 0 00-5.702 2.985 34.759 34.759 0 01-4.327 2.335c-.107.047-.162.212-.24.324.122.076.255.133.394.17.266.023.606.127.8.016.899-.541 2.147-.495 2.724-1.622.11-.215.523-.233.78-.347a43.657 43.657 0 005.457-2.991c1.181-.858 2.596-1.245 3.688-2.102 1.49-.99 3.066-1.84 4.71-2.543a15.415 15.415 0 012.278-1.5c.766-.264.52-.04.67.534.273 1.081-.596 1.545-.972 1.968a14.624 14.624 0 01-2.828 1.821c-.959.58-1.908 1.182-2.882 1.756-.974.574-2.085.608-2.68 1.666-.057.102-.267.119-.395.176a935.3 935.3 0 00-7.302 3.735c-.35.204-.67.458-.946.753-.122.131-.392.648.125.546 1.416-.297 1.97 1.274 3.251 1.37.569.04 1.146.539 1.81.68.264.048.453.476.719.818l-.043-.096c-.095.078-.18.167-.253.266 0 0 .07.16.183.213a.869.869 0 00.157-.428 7.16 7.16 0 014.238 1.954l-.038-.086c-.1.07-.187.157-.258.256 0 0 .07.16.183.213a.882.882 0 00.113-.383c.759-.018 1.529.075 1.884.966a.607.607 0 00.478.273 4.75 4.75 0 013.366 1.83c.052.118.215.314.262.306.524-.233.957.458 1.19.405 1.42-.286 2.076 1.085 3.24 1.374 1.09.43 2.132.974 3.108 1.625.628.322 1.262.629 1.884.966.622.338 1.063.64 1.608.949.744.41 1.748.63 2.152 1.256.405.626.9.099 1.257.414a4.25 4.25 0 001.21.741 9.886 9.886 0 013.008 1.861 15.794 15.794 0 003.2 1.891 7.084 7.084 0 011.762 1.097 6.591 6.591 0 002.631 1.645c1.18.568 2.296 1.26 3.328 2.065a66.507 66.507 0 015.449 4.32c1.197 1.003 2.361 2.047 3.614 2.974a23.44 23.44 0 013.231 3.093c.562.607 1.382.755 1.887 1.58a21.164 21.164 0 003.029 3.271c.994 1.005 1.914 2.106 2.906 3.136a18.943 18.943 0 011.806 2.818c.303.454.719.819 1.022 1.273a45.647 45.647 0 013.995 6.734c.594 1.347 1.877 2.428 2.099 3.916.335 1.3.742 2.58 1.219 3.835.348 1.252.526 2.581.853 3.817.627 2.672.842 5.426.637 8.164a42.744 42.744 0 01-1.126 7.156 7.653 7.653 0 01-.693 1.588c-.092.169-.348.283-.377.45a12.476 12.476 0 01-2.286 5.598 82.327 82.327 0 00-1.6 2.171.923.923 0 00-.076.725 6.501 6.501 0 002.646 3.098c.319.203.486.551-.247.774-.128.057-.064.029.053.118l.106-.252a1.148 1.148 0 00-.326-.072s-.042.108.167.206a30.092 30.092 0 012.646 2.228.55.55 0 01.174.396c-.091.373-.223.739-.34 1.111.352.074.716-.319 1.035.346 1.502 3.171 3.378 6.061 4.566 9.333.17.385.455.886.34 1.205-.511 1.508.169 2.382 1.138 3.333.52.511-.193.662-.787.824-.117.052-.053.024.052.118l.101-.263a1.997 1.997 0 00-.326-.073s-.028.052.175.166zm-12.081-26.799l-.28-.285a1.525 1.525 0 00-.056.626s-.235-.1-.258-.064a7.264 7.264 0 00-.712.995c-.075.033.038.29.16.364.122.073.269.174.37.142a1.168 1.168 0 00.567-1.183 1.155 1.155 0 00-.155-.433l.406-.181c.074.091.158.174.25.247 0 0 .161-.071.218-.173a.653.653 0 00-.51-.055zm11.886 40.004l-.308.431c.093.036.224.13.262.101.172-.153.335-.315.489-.486-.125-.022-.255-.027-.378.796-.294-.088-.405-.166-.465-.127a3.18 3.18 0 00-.486.319c.042.096.114.256.178.228.224-.1.424-.227.708-1.262zm-20.265-36.071l-.076-.172a1.1 1.1 0 00-.258.256s.071.161.173.218c.102.057.103-.2-.099-1.556-.015.236-.009.473.019.708.044.129.099.255.165.374.086-.153.271-.312.257-.46-.013-.147-.21-.303-.181.632zm-16.692-8.994c.367-.009.538.003.696-.015.129-.045.255-.1.374-.167-.142-.09-.311-.271-.448-.261-.136.009-.302.211.779.025l-.246.429c.125.021.282.117.368.08a2.27 2.27 0 00.421-.38c-.161-.044-.283-.091-1.944.289zm-5.831 8.2l.227-.587.577-.257c.565.644 1.306.468 2.019.548a38.986 38.986 0 005.05-.379c.544-.012 1.111.171 1.622-.235.171-.076.171-.076.189.428a.501.501 0 00.255.373c.44.188.806.204.664.984-.142.78.835.038 1.117.475.076.172.121.651.502.238.232-.256.433-.525.645-.798-.108-.042-.238-.163-.318-.141-1.181.424-.681-.848-1.154-1.137.128-.057.261-.219.395-.176.348.063.717.321 1.014.24.626-.176 1.197-.533 1.796-.799s1.248-.069 1.467-.384c.471-.67 1.263.167 1.625-.518.11-.216.434-.437.39-.596-.126-.545-.503-.327-.834-.18l-1.603.714a2.849 2.849 0 01-.61.066c.095-.16.219-.302.365-.418l1.4-.623c.167-.116.317-.256.444-.415l-.491-.473.484-.381a1.342 1.342 0 00-.46-.205c-.334-.031-.664-.025-1.003-.04a5.34 5.34 0 01-1.101-.265c-2.325-1.154-4.885-1.334-7.383-1.835-1.865-.3-3.765-.33-5.64-.089-2.548.21-5.026.951-7.274 2.175-.45.2-.958.323-1.081.941-.04.198-.264.361-.407.527.182-.081.438-.195.594-.073.754.433 1.443 1.009 2.22 1.38.717.237 1.45.425 2.191.561.78.23 1.504.509 2.34.725a11.15 11.15 0 00-.39 1.287c.472 1.07.79 1.21 1.402.656.064-.028-.025-.257-.049-.4-.866.385-.858-.322-1.125-.78-.032-.075-.167-.091-.266-.111a.396.396 0 00-.082.19c.04.264.099.455.277-.213zM94.278 98.04a8.086 8.086 0 00-.973.433c-.085.038-.09.347-.021.444.112.14.264.242.436.292a4.795 4.795 0 011.788-1.307s.059-.129.078-.2c.019-.073-.25-.133-.34-.105-.32.142-.652.29-3.818 1.2l-1.38.612c-.106.048-.166.203-.249.304.112.052.248.158.334.12l2.758-1.227c.064-.029.076-.175.112-.267-.13-.033-.288-.103-.4-.066-.361.225-.756.4 1.675-.233zm22.17 12.801l-1.807.804a3.007 3.007 0 00-.578.514c.265.123.54.223.822.299a4.59 4.59 0 001.007.051s.136-.214.102-.262c-.37-.578.014-.749.453-.944l2.202-.98c.106-.048.146-.219.209-.336-.135-.017-.294-.087-.401-.04-.673.3-1.336.595-2.186 2.407l-.182.08c.078.095.167.181.266.254 0 0 .149-.067.206-.169.058-.102-.183-.098-.113-1.678zm7.353 5.073c.293-.322.613-.669.902-1.028.145-.192.37-.523.317-.615a1.007 1.007 0 00-.675-.428 1.74 1.74 0 00-1.145.304c-1.276 1.425-3.093 1.683-4.707 2.516-.471.21-1.392.005-1.547.292-.562 1.044-1.486.776-2.319 1.032a29.617 29.617 0 01-6.058 1.223c-.118.053-.249.277-.387.428.202.14.476.441.594.389a3.72 3.72 0 012.841-.458.975.975 0 00.788-.184c.635-.475 1.377-.126 2.037-.369.192-.085.444-.006.646-.07.203-.064 2.848-.819 3.049-.857.496-.093 1.055.362 1.521-.408.289-.474 1.197-.533 1.6-.981a1.375 1.375 0 011.217-.631 7.561 7.561 0 001.358-.169l-.032.014zm-22.803-12.584c.241-.209.447-.378.66-.562a3.286 3.286 0 00-.931-.341c-.47.014-.94.052-1.407.114a8.646 8.646 0 00-3.822.728c-.285.209-.63.322-.983.322-1.075-.264-1.39.183-1.322 1.177.062.139-.267.349-.422.521a2.24 2.24 0 00.607-.104l2.19-.975a12.942 12.942 0 012.2-.492c1.133-.185 2.162-.258 3.23-.388zm-7.735-1.447c.983-.437 1.133-.504.899-.861-.663-.921-.375.717-.887.395 0 0-.129.057-.189.007-.65-.402-.77.253-.72.512.102.608.464.037.71.043.245.006.123-.067.187-.096zm-41.6-87.6c-.21.336-.993.096-1.1.809.449-.2.945-.292 1.398-.455.273-.103.541-.222.801-.357 0 0 .031-.219.021-.33-.01-.11-.137-.079-.19-.055-.272.082-.539.2-.934.377l.005.01zm71.177 163.605c-.147.129-.239.182-.235.219.003.037.099.225.118.268.252.103.515.175.784.213.075-.033.225-.099.329-.21-.056-.128-.136-.31-.313-.333a3.078 3.078 0 00-.683-.157zm-21.508-77.944c-.406-.05-.794-.12-1.19-.149a.755.755 0 00-.055.37c.052.118.151.342.22.324.335-.059.662-.153.976-.28 0 0 .036-.208.049-.265zm37.801 41.963l.56.544c.106-.252.36-.634.271-.748-.088-.114-.529-.302-.805-.434l-.026.638zM52.554 15.895l.33-.556c-.201.002-.4.043-.586.12-.174.14-.325.307-.447.494.242-.031.436-.054.703-.058zm42.521 84.618l-.411.401.826.452c.028-.14.104-.315.055-.396a2.426 2.426 0 00-.427-.475l-.043.018zm12 18.645a2.847 2.847 0 00-.665.027c-.086.038-.141.204-.22.315l.91.235-.025-.577zm-6.893-21.416c-.215.237-.303.327-.391.418l.783.47c.021-.124.098-.3.038-.375a3.093 3.093 0 00-.43-.513zm26.002 9.664l-.411.4.825.452c.017-.136.109-.305.061-.385a3.613 3.613 0 00-.475-.467zm12.569 25.584c.15.022.351.099.406.049.138-.182.242-.389.306-.609l-.397-.233-.315.793zm1.63-.073c-.22.226-.312.306-.411.4l.826.452c.032-.129.108-.304.06-.385a3.11 3.11 0 00-.571-.424l.096-.043zM96.023 111.7c-.097.158-.245.288-.21.336.102.168.219.325.349.472.072-.096.214-.21.19-.263a3.156 3.156 0 00-.407-.459l.078-.086zm10.054.85c.111-.126.233-.283.345-.435-.124-.021-.288-.102-.379-.049a2.11 2.11 0 00-.422.406l.456.078zm31.255 10.411l-.445-.429a1.044 1.044 0 00-.105.456c.042.097.174.192.274.275l.276-.302zm-3.19-38.088l.408-.002c-.047-.108.046-.303-.018-.39a1.707 1.707 0 00-.412-.238l.022.63zm-48.288 21.663l.078-.201a1.304 1.304 0 00-.325-.009s-.047.123-.082.19l.33.02zM49.766 17.111l-.201.268s.163.08.195.067c.08-.074.151-.157.211-.248l-.205-.088zm41.033 87.852l-.12.22a.952.952 0 00.323.009s.053-.113.072-.185l-.275-.044zm10.665 7.797l-.078.201c.108.016.216.019.324.009 0 0 .048-.124.083-.19l-.329-.02zm3.93 7.108c.053-.024.163.08.191.055.081-.069.153-.149.215-.236-.024-.054-.158-.096-.185-.071a1.18 1.18 0 00-.221.252zm2.965-6.784l-.051.176c.108.016.216.019.324.009l.072-.185c.024-.062-.26-.038-.345 0zm-6.52-15.324l-.215-.083a2.006 2.006 0 000 .32s.117.063.179.087l.036-.324zm13.602 16.857l.073-.212a1.35 1.35 0 00-.324-.009s-.047.123-.082.19l.333.031zm-3.824-14.462l-.201-.077c-.016.107-.02.216-.01.324l.185.071.026-.318zm10.631 11.485s-.097.158-.072.185c.076.082.16.156.251.222 0 0 .081-.165.066-.197a1.36 1.36 0 00-.245-.21zm-.608-6.129l-.257-.205s-.092.169-.067.196a.99.99 0 00.246.21l.078-.201zm.735-1.057l-.072.212c.105.013.212.012.319-.001 0 0 .052-.113.087-.18l-.334-.031zm.751-.82l-.201.269s.163.081.196.067c.077-.076.148-.159.21-.248l-.205-.088zm18.269 39.544l-.073.212c.106.013.213.013.32-.001 0 0 .052-.113.076-.175l-.323-.036zm-3.555-8.925l.252.195s.097-.158.072-.185a1.313 1.313 0 00-.247-.211l-.077.201zm1.218.905l-.201-.077c-.016.107-.02.216-.01.324 0 0 .123.048.19.082l.021-.329zm2.289 3.217l-.201.269s.163.081.195.066c.081-.073.151-.156.211-.247l-.205-.088zm-3.239-10.614l-.178.322c.054-.024.164.08.191.056a.938.938 0 00.216-.237l-.229-.141zm-3.339-8.638l-.195.253s.157.096.185.072c.085-.074.159-.159.221-.252l-.211-.073zm-3.369-9.661s-.085.153-.061.18a.929.929 0 00.236.215s.097-.157.072-.185a1.343 1.343 0 00-.233-.178l-.014-.032zm-2.606-5.355s.164.081.196.067c.08-.074.151-.157.21-.248 0 0-.152-.085-.184-.071a1.793 1.793 0 00-.207.284l-.015-.032z"/><path d="M93.804 96.242l.607.012a8.29 8.29 0 01-.703.58c-.118.053-.298-.008-.454-.015l.55-.577zm-2.053.478l.549.025c-.064.117-.125.298-.215.325a1.96 1.96 0 01-.587.031l.253-.382zm20.957 13.469a4.63 4.63 0 01.549-.321c.053-.024.167.118.263.191-.147.13-.305.247-.472.35-.049.035-.178-.113-.34-.22zm2.145-2.759l-.17.281c-.038-.086-.185-.187-.173-.218.075-.095.162-.181.258-.255l.085.192z"/></g></g><defs><clipPath id="clip0_1877_1989"><path fill="#fff" d="M0 0h187v187H0z"/></clipPath><clipPath id="clip1_1877_1989"><path fill="#fff" transform="rotate(36.101 35.863 92.593)" d="M0 0h164.287v112.835H0z"/></clipPath></defs></svg>