<svg width="85" height="174" viewBox="0 0 85 174" fill="none" xmlns="http://www.w3.org/2000/svg"><path d="M78.458 11.55a5.62 5.62 0 01-5.204-3.445 5.6 5.6 0 011.201-6.118 5.617 5.617 0 019.593 3.956 5.603 5.603 0 01-1.636 3.956 5.618 5.618 0 01-3.954 1.65zm0 35.87a5.62 5.62 0 01-5.207-3.45 5.6 5.6 0 011.213-6.122 5.616 5.616 0 016.13-1.21 5.613 5.613 0 011.817 9.147 5.592 5.592 0 01-3.953 1.635zm0 35.894a5.62 5.62 0 01-5.204-3.445 5.6 5.6 0 011.201-6.118 5.617 5.617 0 019.593 3.956 5.603 5.603 0 01-1.636 3.956 5.618 5.618 0 01-3.954 1.65zm0 35.87a5.612 5.612 0 01-5.532-6.695 5.606 5.606 0 014.418-4.413 5.61 5.61 0 016.704 5.525c0 1.48-.589 2.9-1.637 3.947a5.595 5.595 0 01-3.953 1.636zm0 35.893a5.62 5.62 0 01-5.204-3.444 5.601 5.601 0 011.201-6.119 5.619 5.619 0 018.645.839 5.604 5.604 0 01-4.642 8.724zM54.584 29.832a5.62 5.62 0 01-5.297-3.382 5.6 5.6 0 011.167-6.17 5.616 5.616 0 017.981 7.9 5.594 5.594 0 01-3.85 1.652zm0 35.894a5.62 5.62 0 01-5.288-3.36 5.6 5.6 0 011.123-6.158 5.616 5.616 0 016.135-1.281 5.613 5.613 0 013.5 5.192 5.603 5.603 0 01-1.592 3.915 5.618 5.618 0 01-3.878 1.692zm0 35.87a5.613 5.613 0 01-5.665-6.619 5.604 5.604 0 014.387-4.477 5.62 5.62 0 015.803 2.377c.621.928.95 2.02.946 3.136a5.59 5.59 0 01-5.47 5.583zm0 35.894a5.612 5.612 0 01-5.667-6.61 5.605 5.605 0 014.374-4.483 5.614 5.614 0 016.764 5.486 5.606 5.606 0 01-5.47 5.607zm0 35.87a5.61 5.61 0 01-5.29-3.365 5.602 5.602 0 014.012-7.731 5.621 5.621 0 015.803 2.377 5.602 5.602 0 01-.656 7.035 5.618 5.618 0 01-3.869 1.684zM29.512 11.55a5.62 5.62 0 01-5.204-3.445 5.6 5.6 0 011.201-6.118 5.617 5.617 0 017.964 7.92 5.592 5.592 0 01-3.961 1.643zm0 35.87a5.62 5.62 0 01-5.207-3.45 5.6 5.6 0 011.213-6.122 5.616 5.616 0 016.13-1.21 5.613 5.613 0 011.817 9.147 5.594 5.594 0 01-3.953 1.635zm0 35.894a5.62 5.62 0 01-5.204-3.445 5.6 5.6 0 011.201-6.118 5.617 5.617 0 019.174 6.1 5.58 5.58 0 01-3.026 3.035 5.596 5.596 0 01-2.145.428zm0 35.87a5.612 5.612 0 01-5.532-6.695 5.606 5.606 0 014.418-4.413 5.61 5.61 0 016.704 5.525c0 1.48-.589 2.9-1.637 3.947a5.595 5.595 0 01-3.953 1.636zm0 35.893a5.62 5.62 0 01-5.204-3.444 5.6 5.6 0 011.201-6.119 5.618 5.618 0 018.645.839c.618.923.948 2.008.948 3.118a5.572 5.572 0 01-1.629 3.963 5.588 5.588 0 01-3.961 1.643zM5.638 29.832a5.62 5.62 0 01-5.212-3.467 5.6 5.6 0 011.245-6.13 5.617 5.617 0 019.558 4.086 5.58 5.58 0 01-1.663 3.901 5.594 5.594 0 01-3.928 1.61zm0 35.894a5.62 5.62 0 01-5.204-3.444 5.6 5.6 0 011.202-6.119 5.616 5.616 0 016.121-1.226A5.613 5.613 0 019.6 64.082a5.592 5.592 0 01-3.962 1.644zm0 35.87a5.62 5.62 0 01-5.206-3.45 5.6 5.6 0 011.212-6.122 5.617 5.617 0 017.947 7.937 5.593 5.593 0 01-3.953 1.635zm0 35.894a5.62 5.62 0 01-5.204-3.445 5.599 5.599 0 011.202-6.118 5.61 5.61 0 012.874-1.541 5.613 5.613 0 016.719 5.497 5.577 5.577 0 01-3.446 5.18 5.598 5.598 0 01-2.145.427zm0 35.87a5.62 5.62 0 01-5.206-3.45 5.601 5.601 0 011.212-6.122 5.62 5.62 0 018.648.865c.616.926.941 2.013.937 3.124a5.58 5.58 0 01-1.638 3.948 5.594 5.594 0 01-3.953 1.635z" fill="#3E57FF"/></svg>