<svg width="114" height="125" viewBox="0 0 114 125" fill="none" xmlns="http://www.w3.org/2000/svg"><g clip-path="url(#clip0_2318_9534)" fill="gold"><path d="M51.46 112.295l.053-1.138-2.776 4.1-1.8 2.039-.174.141c-.18.109-.322.242-.423.401l-.543.326c-.166.173-.281.267-.347.282a7.425 7.425 0 01-1.941.943c-1.092.312-2.028.246-2.81-.195-.795-.506-1.348-1.305-1.659-2.397-.166-.441-.25-.969-.25-1.583-.014-.066-.01-.203.011-.413a1.109 1.109 0 01-.01-.509c.021-.21.018-.38-.011-.51.036-.145.047-.249.032-.315l1.464-5.857 1.887-4.414 1.4-2.463 1.301-1.518c.333-.347.77-.683 1.312-1.009.492-.246.991-.459 1.497-.64a2.97 2.97 0 01.705-.054c.195-.043.43-.062.705-.054.21.021.402.115.575.282a.97.97 0 01.52.499l.044.195.141.173.065.293.044.195c-.05.08-.055.217-.011.413-.007.274-.036.452-.087.531a.778.778 0 01-.032.315 1.136 1.136 0 00-.13.336l-.11.434-.053.217c.014.065.003.17-.033.314-.05.08-.094.192-.13.336a.657.657 0 00-.228.358c-.05.08-.068.152-.054.217l-.228.358c-.1.159-.144.271-.13.337l-.152.238c-.05.08-.14.134-.27.163l-.023-.098.738-3.134c.108-.434.105-.912-.011-1.432-.065.014-.105-.011-.12-.076l-.043-.195c-.108-.181-.3-.275-.575-.282l-.683.152c-.506.18-1.023.466-1.55.857a4.98 4.98 0 00-1.27 1.203l-.228.358-.303.478c-.167.173-.268.332-.304.477l-.152.239-2.115 4.772-1.399 5.228c-.065.015-.108.127-.13.336a3.902 3.902 0 00-.087.532l-.065.629c-.021.21-.025.347-.01.412l-.055.217c.015.065.004.17-.032.315l.108.488c-.036.144-.047.249-.032.314l.086.391.109.488.228.564c.166.441.473.748.922.922.368.123.773.101 1.214-.065a2.95 2.95 0 001.03-.434c.066-.015.156-.069.272-.163l.347-.282a.886.886 0 00.369-.184l.173-.141 1.595-1.584 3.828-5.358L53 105.397l.174-.141c.065-.014.123-.061.173-.141a.681.681 0 01.532.087c.08.051.126.108.14.173.08.051.127.109.142.174.043.195.022.405-.065.629l-.89 2.451-1.485 9.448-.174-.781-.087-5.001zm5.173-.227l-.304-2.289.033-.314a.888.888 0 01.01-.412 1.113 1.113 0 01-.01-.51c-.044-.196-.04-.333.01-.412-.014-.066-.003-.17.033-.315l.065-.629c.022-.21.05-.387.087-.532.021-.209.058-.354.108-.433.058-.355.141-.749.25-1.183.123-.368.31-.752.564-1.149.188-.384.455-.716.802-.998.268-.333.597-.543.987-.63l.39-.086.196-.044c.065-.014.105.011.12.076l.02.098a3.471 3.471 0 00-1.214.987c-.369.492-.6.987-.694 1.486l-.39 1.931-.065 2.473.26 2.093.206.466c.058.261.156.546.293.857.152.376.322.68.51.911.203.297.43.554.683.77.304.138.65.163 1.041.076.507-.18.984-.491 1.432-.933.434-.506.77-.99 1.009-1.453l.108-.434c.102-.159.17-.31.206-.456.102-.158.17-.31.206-.455l.055-.217.4-2.343-.043-.195a.885.885 0 00.011-.412.887.887 0 00.011-.412c.022-.21.025-.347.011-.413-.014-.065-.01-.202.01-.412l-.108-.488-.086-.39c-.24-.767-.637-1.327-1.194-1.681-.506-.434-1.175-.525-2.006-.272l-.39.087c-.051.08-.135.167-.25.261a3.84 3.84 0 00-.445.303l-.542.326c-.101.159-.184.246-.25.26-.05.08-.108.127-.173.141l-.195.043-.196.044.13-.336 1.226-1.4c.152-.238.325-.379.52-.423.181-.108.402-.191.662-.249.586-.13 1.089-.174 1.508-.13.499.094.947.267 1.345.52.333.268.647.608.944 1.02.231.426.437.893.618 1.399.268.897.365 1.797.293 2.7a10.88 10.88 0 01-.315 2.734 19.132 19.132 0 01-.91 2.354c-.391.701-.933 1.334-1.627 1.898a5 5 0 01-1.551.857c-.586.13-1.096.141-1.53.032a3.195 3.195 0 01-1.29-.737 4.439 4.439 0 01-.89-1.237 6.188 6.188 0 01-.52-1.421l-.185-.368z"/><path fill-rule="evenodd" clip-rule="evenodd" d="M75.029 109.106l-.087-.391-.043-.195-.022-.097-.77-3.927-1.139 3.634-1.41 2.874-.076.12-.152.238a1.195 1.195 0 00-.249.26c-.05.08-.109.127-.174.141a2.26 2.26 0 01-.694.565 3.7 3.7 0 01-.857.292c-.636.21-1.225.17-1.768-.119-.491-.369-.842-.871-1.052-1.507l-.152-.684c-.007-.339 0-.614.022-.824l.369-2.028 1.323-3.265 1.225-2.321 1.226-1.4.076-.119c.065-.014.156-.069.271-.163.05-.079.141-.133.271-.162l.152-.239c.181-.109.394-.224.64-.347a3.29 3.29 0 01.76-.271l.585-.13a1.23 1.23 0 01.727.043l.12.076-.077.12a7.055 7.055 0 00-1.573.758c-.477.311-.893.745-1.247 1.302-.05.08-.134.166-.25.26l-.227.358a1.15 1.15 0 00-.25.261l-.054.217-1.431 2.776-.911 3.276-.076.119a.886.886 0 00-.011.412c-.036.145-.08.257-.13.337l.065.293c-.087.224-.123.368-.109.433.03.13.098.286.206.467a42.918 42.918 0 00.066.293c.217.361.52.499.91.412.246-.123.517-.286.814-.488.231-.188.423-.402.575-.64l1.53-2.799 2.05-5.065.15-1.161.153-.238c.05-.08.108-.127.173-.141.16.101.268.282.326.542.029.13.105.318.228.564l.108.488 1.16 6.606c.073.325.098.592.077.802-.022.21-.011.412.032.608a2.74 2.74 0 00.033.607c.029.13-.007.275-.109.434-.05.08-.094.192-.13.336l-.097.022a4.237 4.237 0 01-.651-1.085 9.237 9.237 0 00-.38-1.247l-.065-.293zm-.922-4.61l.097-.021-.097.021z"/><path d="M77.98 109.475l-1.042-9.296.249-4.87.477-2.462c-.014-.065.054-.217.206-.456.072-.289.134-.473.184-.553a.964.964 0 01.402-.499l.087.39.13 17.181c-.021.21-.036.453-.043.727l-.26.673c-.188-.231-.304-.445-.347-.64l-.044-.195zm3.307-1.248a1.89 1.89 0 01-.032-.608l.26-1.594.076-.119c.05-.08.069-.152.054-.217.16.101.246.184.26.249.073.325.12.691.142 1.096.007.339.047.673.119.998.166.441.336.744.51.911.224.086.557.047.998-.12.39-.086.74-.198 1.052-.336.361-.217.658-.42.89-.607.476-.311.816-.626 1.019-.944.267-.333.343-.76.227-1.28l-.368-.738a2.232 2.232 0 00-.445-.618l-3.178-3.698c-.253-.217-.456-.514-.608-.89a2.935 2.935 0 01-.434-1.03c-.151-.376-.213-.806-.184-1.29.043-.42.199-.796.466-1.129.188-.383.423-.709.705-.976a2.865 2.865 0 011.204-.575 1.74 1.74 0 01.998-.12c.34-.007.654.026.944.098.238.152.484.337.737.553.253.217.423.521.51.912l.087.39a9.36 9.36 0 00-.043.727 1.26 1.26 0 01-.185.553c-.101.159-.217.253-.347.282a2.934 2.934 0 01-.054-.705 3.29 3.29 0 00-.076-.803c-.166-.44-.434-.723-.803-.846-.369-.123-.78-.133-1.236-.032a2.35 2.35 0 00-1.215.987c-.318.412-.38.904-.184 1.475l.108.488.282.347 3.742 4.393c.254.217.449.481.586.792.137.31.242.629.315.954.238.766.245 1.413.021 1.942-.274.607-.708 1.113-1.301 1.518-.412.297-.8.554-1.16.77a5.082 5.082 0 01-1.324.499 2.04 2.04 0 01-.879.196 3.633 3.633 0 01-.943-.098 1.304 1.304 0 01-.716-.456 3.55 3.55 0 01-.488-.813l-.109-.488zM23.82 34.95c1.475 1.106 2.907 2.017 4.436 2.907.337.13.749.14.977-.217 2.755-5.12 5.705-10.283 8.101-15.63a11.17 11.17 0 01-1.323-.423c-2.201 7.148-4.305 14.274-6.41 21.4l1.172-.26c-2.44-2.224-4.87-4.86-5.9-8.113-.294-.857-1.758-.532-1.465.325 1.096 3.547 3.666 6.356 6.367 8.829.38.325 1.085.271 1.172-.26 2.201-7.148 4.284-14.372 6.387-21.498.217-.868-.987-1.215-1.323-.423-1.779 3.98-3.818 7.712-5.835 11.54-.585 1.053-1.084 2.495-1.887 3.493-.25.26 1.009.39-.065-.293-1.117-.878-2.582-1.475-3.872-2.212-.5-.401-1.03.434-.532.835zm3.212 17.213c1.377 1.128 2.907 2.017 4.436 2.907.336.13.727.043.976-.217 2.755-5.12 5.705-10.283 8.102-15.63a11.35 11.35 0 01-1.323-.423c-2.202 7.148-4.306 14.274-6.41 21.4l1.171-.26c-2.44-2.224-4.967-4.838-5.9-8.113-.293-.857-1.757-.532-1.465.325 1.096 3.547 3.667 6.356 6.368 8.829.38.325.987.293 1.171-.26 2.202-7.148 4.284-14.372 6.388-21.498.217-.868-.987-1.215-1.323-.423-1.8 3.883-3.818 7.712-5.857 11.443-.662 1.171-1.16 2.614-1.887 3.492-.326.38.933.51-.065-.292-1.194-.76-2.658-1.356-3.85-2.115-.5-.402-1.129.455-.532.835zm3.915 19.003c1.356 1.03 2.885 1.92 4.415 2.81.336.13.748.14.976-.218 2.755-5.12 5.705-10.282 8.102-15.63a26.68 26.68 0 01-1.421-.401c-2.104 7.126-4.187 14.35-6.312 21.379l1.171-.26c-2.44-2.224-4.968-4.838-5.879-8.016-.315-.954-1.779-.629-1.464.326 1.074 3.449 3.644 6.258 6.345 8.73.38.326.987.294 1.172-.26a1232.742 1232.742 0 006.388-21.498c.216-.867-.988-1.215-1.421-.401-1.681 3.96-3.818 7.712-5.738 11.52-.683 1.073-1.182 2.516-1.887 3.492-.347.282.911.412-.065-.293-1.215-.857-2.68-1.453-3.872-2.212-.597-.38-1.128.455-.51.932zm9.869-35.794c3.623-1.215 7.191-1.29 10.9-2.115 3.32-.738 6.194-2.094 9.285-3.395 7.04-2.897 14.968-3.634 22.453-4.99.78-.174.498-1.443-.282-1.27-6.704 1.183-13.906 1.964-20.392 4.123-3.796 1.356-7.343 3.373-11.345 4.263-3.71.824-7.397.825-10.933 2.43-.564.228-.25 1.182.314.954zm4.502 19.795c14.187-3.46 28.212-7.192 42.561-10.382.879-.195.575-1.562-.303-1.366-14.242 2.755-28.743 6.183-42.497 10.674-.661.25-.444 1.226.24 1.074zm3.602 18.049c14.426-3.31 28.668-6.987 42.93-10.567.858-.293.63-1.778-.325-1.464-14.284 3.482-28.645 7.084-42.843 10.957-.683.152-.445 1.225.239 1.074z"/><path d="M1.931 23.117c4.286 24.35 10.35 48.407 17.661 72.085.044.195.228.564.52.5 6.248-.468 12.257-2.93 18.244-4.568a822.8 822.8 0 0121.52-5.5c14.458-3.623 29.057-7.073 43.559-10.5.369-.185.597-.543.51-.934-1.346-12.506-3.439-25.153-7.03-37.16-2.05-6.92-4.665-13.612-7.376-20.282a191.97 191.97 0 00-4.036-9.86c-.802-1.768-1.388-3.481-3.384-4.165-1.464-.596-3.102-.13-4.588.098-3.926.77-7.788 1.834-11.67 2.799l-22.312 5.164c-14.306 3.384-28.84 6.205-42.518 11.499-.857.293-.184 1.475.673 1.182 19.36-7.377 40.413-10.827 60.555-15.61C67.14 6.78 72.954 4.36 77.856 4.294c6.704-.26 8.428 7.962 10.5 13.135 3.938 9.881 7.583 19.827 9.883 30.175.846 3.807 1.497 7.657 2.148 11.508.629 3.753 2.267 8.818 1.877 12.593-.239 1.692.846 1.04-.987 2.473-.619.445-2.148.477-2.929.65a292.398 292.398 0 01-7.495 1.769 1210.025 1210.025 0 00-15.26 3.7c-9.74 2.266-19.438 4.729-29.232 7.213-4.544 1.215-9.187 2.452-13.807 3.786-1.931.532-3.84 1.16-5.847 1.812-.78.173-2.375.835-3.297.835-3.492-.043-3.265-1.323-4.002-3.72C12.736 68.043 7.43 45.558 3.005 22.878c-.152-.683-1.225-.444-1.074.239z"/><path d="M9.274 28.041c-.618 1.367-.13 3.102 1.41 3.58 1.617.357 2.766-.923 2.831-2.474.033-1.236-.846-2.885-2.277-2.874-1.215.065-2.56 1.389-1.595 2.506.304.444.846.119.955-.315.01-.412.216-.868.748-.78.63.064.846 1.04.857 1.55-.043.727-.499 1.443-1.29 1.106-.793-.336-.912-1.334-.652-2.006a.515.515 0 00-.987-.293zm3.58 14.263c-.586 1.052.206 2.31 1.117 2.722 1.367.619 2.734-.607 2.961-1.887.228-1.28-.629-2.83-1.985-2.94-1.28-.227-2.646.999-2.245 2.344.228.564 1.15.564 1.096-.141.01-.413.51-.933 1.041-.846.531.086.879.726.792 1.258.01.51-.445 1.225-1.074 1.16-.315-.032-1.074-.683-.868-1.138a.495.495 0 00-.835-.532zm2.919 15.435c.629.987 1.93 1.312 2.961.878 1.226-.477 1.649-1.8 1.193-2.928-.456-1.128-1.649-1.888-2.799-1.53-1.15.358-2.375 1.758-1.68 3.038.184.368 1.008.39 1.095-.142.087-.531.25-1.182.792-1.507.564-.228 1.139.054 1.366.618.5 1.323-1.312 1.93-2.136.987-.282-.347-1.096.141-.792.586zm4.057 12.723c.011-1.335 2.094-2.105 2.44-.543.13.586-.13 1.258-.715 1.389-.683.151-1.421-.402-1.649-.966-.228-.564-1.15-.564-1.117.044.01 1.431 1.464 2.44 2.853 2.234 1.29-.184 2.006-1.573 1.822-2.864-.26-1.171-1.28-2.071-2.57-1.887-1.292.185-2.268 1.324-2.083 2.614.13.586 1.03.488 1.02-.021zm2.635 13.243c.564-1.15 2.614-.683 2.094.662-.185.553-.727.878-1.183.672-.574-.282-.802-.846-.737-1.475-.033-.607-.803-.846-1.107-.369-.759 1.194.174 2.625 1.302 3.092 1.226.444 2.506-.25 2.929-1.573.27-1.085-.228-2.408-1.432-2.755-1.085-.271-2.386.325-2.755 1.432-.282.574.705.867.89.314z"/></g><defs><clipPath id="clip0_2318_9534"><path fill="#fff" transform="rotate(-12.531 90.904 9.98)" d="M0 0h92v107H0z"/></clipPath></defs></svg>