<svg width="113" height="175" viewBox="0 0 113 175" fill="none" xmlns="http://www.w3.org/2000/svg"><mask id="a" style="mask-type:alpha" maskUnits="userSpaceOnUse" x="0" y="-7" width="163" height="182"><path d="M162.5 4.618V162.77c0 6.169-4.318 11.044-9.5 11.044H10c-5.182 0-9.5-4.875-9.5-11.044V4.618C.5-1.552 4.818-6.426 10-6.426h143c5.182 0 9.5 4.874 9.5 11.044z" fill="#243A33" stroke="#DDDBFF"/></mask><g mask="url(#a)" stroke="#FFB307" stroke-width="4" stroke-miterlimit="10"><path d="M215.13-4.987c-29.992 29.948-52.51 92.044-86.2 114.101-33.442 22.143-78.098 4.329-94.204-35.27C18.507 34.47 30.68-26.348 31.452-72.042c.551-45.826-10.199-76.094-.937-97.088 9.262-20.993 39.136-32.343 57.81-66.107 18.883-33.606 26.689-89.211 48.486-108.658 22.031-19.337 58.148-2.677 92.238 15.616 34.09 18.294 65.968 38.207 94.641 68.568 28.806 30.068 54.107 70.718 53.073 110.446-1.164 39.99-28.886 78.925-61.483 97.616-32.597 18.691-70.159 16.713-100.15 46.662z"/><path d="M287.415-54.24c-26.832 15.328-58.688 12.884-83.957 35.285-25.268 22.402-43.98 69.85-70.521 85.642-26.371 15.89-60.537.085-74.647-31.106-14.111-31.192-8.431-77.296-9.03-113.32-.6-36.023-7.813-61.762.263-80.246 8.076-18.483 31.657-29.567 47.49-57.21 15.832-27.643 24.281-71.284 43.026-85.782 18.924-14.363 48.391.309 75.079 16.715 26.689 16.408 50.478 34.294 73.805 59.457 23.421 24.973 46.147 57.273 46.681 89.826.534 32.553-21.346 65.416-48.189 80.738z"/><path d="M259.523-56.804c-21.092 11.935-47.155 9.067-67.73 23.87-20.574 14.803-35.462 47.677-54.84 57.2-19.377 9.523-42.964-4.15-55.1-26.949-12.135-22.798-12.814-54.4-14.785-80.754-1.97-26.353-5.426-47.429 1.457-63.39 6.883-15.962 24.185-26.805 37.171-48.316 12.985-21.511 21.887-53.329 37.596-62.885 15.709-9.556 38.629 3.309 57.942 17.72 19.314 14.41 35.003 30.406 52.964 50.407 17.962 20 38.195 43.816 40.338 69.11 2.143 25.294-13.921 52.052-35.013 63.987z"/></g></svg>