<svg width="152" height="131" viewBox="0 0 152 131" fill="none" xmlns="http://www.w3.org/2000/svg"><mask id="a" style="mask-type:alpha" maskUnits="userSpaceOnUse" x="-5" y="-33" width="157" height="164"><path d="M5-31.836h137a9.5 9.5 0 019.5 9.5v143a9.5 9.5 0 01-9.5 9.5H5a9.5 9.5 0 01-9.5-9.5v-143a9.5 9.5 0 019.5-9.5z" fill="#243A33" stroke="#DDDBFF"/></mask><g mask="url(#a)" stroke="#FFB307" stroke-width="4" stroke-miterlimit="10"><path d="M-3.32-84.466c25.943 29.992 79.734 52.51 98.84 86.2 19.182 33.442 3.75 78.098-30.552 94.204-34.108 16.219-86.792 4.046-126.374 3.274-39.697-.551-65.918 10.199-84.104.937-18.185-9.262-28.017-39.136-57.265-57.81-29.112-18.883-77.28-26.689-94.126-48.486-16.751-22.031-2.319-58.148 13.528-92.238 15.847-34.09 33.097-65.968 59.397-94.641 26.047-28.806 61.26-54.107 95.674-53.073 34.641 1.164 68.37 28.886 84.56 61.483 16.192 32.597 14.479 70.159 40.422 100.15z"/><path d="M-45.986-156.751c13.278 26.832 11.161 58.688 30.566 83.957C3.986-47.526 45.087-28.814 58.768-2.273c13.765 26.37.074 60.537-26.946 74.647-27.02 14.11-66.958 8.43-98.164 9.03-31.206.599-53.501 7.813-69.513-.263-16.011-8.076-25.613-31.658-49.559-47.49-23.946-15.832-61.75-24.28-74.309-43.026-12.442-18.925.268-48.391 14.48-75.08 14.213-26.688 29.707-50.477 51.505-73.804 21.633-23.421 49.613-46.147 77.812-46.681 28.199-.534 56.666 21.346 69.94 48.189z"/><path d="M-48.207-128.859c10.339 21.092 7.855 47.155 20.678 67.73 12.823 20.574 41.3 35.462 49.55 54.84 8.249 19.377-3.596 42.964-23.345 55.1-19.749 12.135-47.125 12.814-69.953 14.785-22.83 1.97-41.086 5.426-54.913-1.457-13.827-6.884-23.22-24.185-41.854-37.17-18.634-12.986-46.196-21.888-54.474-37.597-8.278-15.71 2.866-38.629 15.35-57.942 12.483-19.314 26.339-35.003 43.665-52.964 17.325-17.962 37.956-38.195 59.867-40.338 21.91-2.143 45.09 13.921 55.43 35.013z"/></g></svg>