<svg width="181" height="193" viewBox="0 0 181 193" fill="none" xmlns="http://www.w3.org/2000/svg"><path fill-rule="evenodd" clip-rule="evenodd" d="M154.083 181.311c-.71 3.382-2.155 6.13-4.388 8.121-14.93 13.316-59.416-12.198-99.364-56.986C10.384 87.657-9.897 40.554 5.032 27.238c2.233-1.991 5.127-3.114 8.568-3.434.71-3.382 2.155-6.13 4.388-8.12 2.236-1.995 5.136-3.119 8.584-3.436.708-3.39 2.155-6.143 4.391-8.138 14.93-13.315 59.416 12.198 99.364 56.987 39.947 44.788 60.228 91.891 45.299 105.207-2.237 1.995-5.136 3.118-8.585 3.436-.708 3.39-2.155 6.142-4.391 8.137-2.233 1.992-5.127 3.115-8.567 3.434zm-51.417-95.543c19.854 22.26 34.754 45.026 42.829 63.779 2.308 5.36 4.04 10.352 5.178 14.881-4.37-1.646-9.132-3.936-14.194-6.839-17.712-10.158-38.633-27.554-58.487-49.814s-34.754-45.026-42.83-63.78c-2.307-5.36-4.04-10.351-5.177-14.88 4.37 1.645 9.132 3.935 14.194 6.838 17.712 10.159 38.633 27.555 58.487 49.815zM27.381 28.195c4.831 21.19 22.6 51.657 48.881 81.123 26.281 29.465 54.526 50.589 75.028 57.802.491 2.382.802 4.619.929 6.695.118 1.932.075 3.689-.118 5.275-1.597.011-3.348-.147-5.254-.484-6.53-1.155-14.476-4.358-23.344-9.444-17.712-10.158-38.632-27.554-58.486-49.814s-34.755-45.026-42.83-63.78c-4.042-9.389-6.32-17.648-6.724-24.268-.117-1.932-.075-3.689.118-5.274 1.598-.011 3.348.146 5.254.483 2.048.362 4.235.926 6.546 1.686zm1.987-1.772c20.502 7.213 48.747 28.336 75.028 57.802 26.281 29.465 44.05 59.933 48.881 81.122 2.311.76 4.498 1.324 6.546 1.686 1.899.336 3.643.494 5.236.484.191-1.581.233-3.332.115-5.257-.403-6.619-2.681-14.879-6.724-24.267-8.075-18.754-22.975-41.52-42.829-63.78-19.854-22.26-40.774-39.656-58.487-49.814-8.867-5.086-16.814-8.29-23.344-9.445-1.898-.335-3.643-.493-5.236-.484-.19 1.582-.232 3.333-.115 5.257.127 2.076.437 4.313.93 6.696zm124.445 141.526c.749 4.079.973 7.771.637 10.991 2.778-.35 4.991-1.307 6.657-2.793 1.67-1.489 2.874-3.585 3.538-6.314-3.234-.035-6.871-.677-10.832-1.884zm-2.128 13.457c-.665 2.72-1.867 4.81-3.533 6.296-2.975 2.654-7.697 3.62-14.26 2.459-6.53-1.155-14.477-4.359-23.344-9.444-17.712-10.158-38.633-27.554-58.487-49.814-19.854-22.261-34.754-45.026-42.829-63.78-4.042-9.389-6.32-17.649-6.724-24.268-.405-6.652 1.092-11.233 4.067-13.887 1.666-1.485 3.88-2.442 6.658-2.793-2.088 19.997 17.42 58.128 50.053 94.716 32.633 36.587 68.295 60.312 88.399 60.515zM15.997 23.709c.665-2.72 1.868-4.81 3.534-6.296 1.67-1.489 3.889-2.447 6.675-2.795-.334 3.217-.109 6.903.639 10.975-3.968-1.208-7.61-1.851-10.848-1.884zm101.354 48.96C84.727 36.093 49.076 12.37 28.968 12.156c.664-2.73 1.868-4.825 3.538-6.315 2.975-2.653 7.697-3.62 14.26-2.459 6.53 1.155 14.477 4.359 23.344 9.445 17.712 10.158 38.632 27.554 58.487 49.814 19.854 22.26 34.754 45.026 42.829 63.78 4.042 9.388 6.32 17.648 6.724 24.267.405 6.653-1.092 11.234-4.068 13.887-1.669 1.489-3.889 2.447-6.675 2.796 2.076-20.001-17.432-58.122-50.056-94.7z" fill="#FFB307"/></svg>