<svg width="272" height="252" viewBox="0 0 272 252" fill="none" xmlns="http://www.w3.org/2000/svg"><g clip-path="url(#clip0_2318_9552)" fill="gold"><path fill-rule="evenodd" clip-rule="evenodd" d="M257 261.4H1.7c-.1 0-.1 0-.2-.1-.9-.5-2.1-2-.1-3.7 0 0 .2-.1.3-.1h34.2l-.7-.7s-.1-.2-.1-.3v-2.1c-.2-.2-.3-.3-.3-.4v-.1a1.14 1.14 0 01.3-.2v-9.1l-.7-1.7.7.3v-18.9s.4-5.9 1-10.1c0-.267.033-.5.1-.7h-.3c-.1 0-.1 0-.3-.1-.8-.6-2.1-2 0-3.7 0 0 .2-.1.3-.1H60s5.9.4 10.1 1c2.5.3 3.7.6 4.1.8v-.1c0-.1 0-.1.1-.2.6-.9 2-2.1 3.7-.1 0 .1.1.2.1.3v32.2s-.4 6-1 10.1c-.2 2.1-.5 3.3-.7 3.9H90l-.7-.7s-.1-.2-.2-.3l.1-6.5v-59.5s.4-6 1-10.1v-.8h-.5c-.8-.6-2.1-2 0-3.7 0 0 .2-.2.3-.2h24.1s5.9.4 10.1 1c2.4.3 3.7.6 4.1.9v-.1c0-.1 0-.1.1-.3.6-.8 2-2.1 3.7 0 0 0 .1.2.1.3v66s-.4 6-1 10.1c-.2 2.1-.5 3.3-.7 3.9h13.6l-.7-.7s-.2-.2-.2-.3V149.2s.4-6 1-10.2c.066-.2.1-.433.1-.7h-.2c-.1 0-.2 0-.3-.1-.8-.5-2.1-1.9 0-3.6 0-.1.2-.2.3-.2H158c.2-.067.466-.133.8-.2h.4l.4.2h8.5s6 .4 10.2 1c2.4.3 3.7.6 4.1.9v-.1c0-.1 0-.2.1-.3.5-.8 2-2.1 3.6 0 .1 0 .2.2.2.3v47.2c3.1 4 2.1 4 0 2.5v57.6s-.4 6-1 10.1c-.2 2.1-.5 3.3-.7 3.9h13.6c-.267-.133-.5-.367-.7-.7-.1 0-.2-.2-.2-.3V103.1s.4-5.9 1-10.1a.896.896 0 00.1-.4c-.1-.1-.1-.1-.2-.3-.1 0-.2 0-.3-.1-.9-.6-2.1-2 0-3.7 0 0 .2-.1.3-.1h24s4.1.3 7.8.7h.2c.733.133 1.433.233 2.1.3 2.5.3 3.8.6 4.2.9v-.2c0-.1 0-.1.1-.2.5-.9 1.9-2.1 3.6-.1.1.1.2.3.2.3v153.4s-.4 6-1 10.1c-.3 2.1-.5 3.3-.7 3.9h18.8s6 .4 10.2 1c7 .8 4.2 1.7-.2 2.2.5.1-10.5.7-10.5.7zM68.9 212.9c.466.467.933.967 1.4 1.5 1.7 2.1 3.2 4.2 3.2 4.2s.4.8.7 1.8v-8.5c-.5.3-2.2.6-4.2.8 0 .1-.4.1-1.1.2zm-10.6.6c1.466 1.2 2.866 2.5 4.2 3.9 1.5 1.6 2.9 3.3 4.3 5 .8 1 1.566 2 2.3 3 0 0 .2.3.5.8s.8 1.3 1.3 2.2c1 1.7 2.3 4 3.2 5.9.066.067.1.167.1.3v-11.4c-.3.1-.9-.1-1.4-.5 0 .2-2.4-1.8-2.4-1.8s-1.6-2.1-3.2-4c-.8-1-1.6-1.9-2.3-2.6-.4-.5-.8-.9-1-1.1-2.3.2-4.4.3-4.4.3h-1.2zm17.4 44c-.3-.7-.6-2.2-.8-4 0 .2-.2-2.2-.3-4.7-.6-.6-1.3-1.3-2-2.1.1.2-1.6-1.8-3.3-3.9-1.7-2.1-3.5-4.2-3.5-4.2l-1.8-2.5c-2.3-3.1-4.7-6.2-7.2-9.2-1.2-1.5-2.5-3.1-3.7-4.4-1.3-1.4-2.8-2.7-4.2-4.2-1.4-1.4-2.9-3-4.2-4.8h-4.9c.9 1.5 2.2 2.9 3.6 4.3 1.6 1.7 3.4 3.3 5.2 5.2 1.6 2 3.2 3.8 4.7 5.8 3 3.9 5.9 7.9 8.7 11.9l2.1 2.9s3 5.1 5.1 8.8c1.8 3.1 2.1 4.1 1.6 4.1-.5-.1-1.9-1.3-3.4-2.9.1.2-1.7-1.8-3.4-3.9l-3.4-4.2-1.8-2.6c-2.8-3.9-5.6-7.9-8.6-11.7-1.5-1.9-3-3.8-4.5-5.5-1.6-1.7-3.4-3.4-5.1-5.2a22.045 22.045 0 01-2.1-2.2c.2 3 .5 6.5.5 6.5v1h.2l.7.5.7.5c.5.3 1 .6 1.4 1 .9.7 1.8 1.4 2.6 2.2 1.9 1.7 3.7 3.6 5.4 5.5 1.6 1.9 3.2 3.9 4.7 5.8l2.2 2.9s.9 1.3 1.9 3c1.1 1.8 2.4 3.9 3.4 5.8 1.8 3 2.1 4.1 1.6 4.1-.5-.1-1.9-1.3-3.4-2.9.1.2-1.6-1.8-3.4-3.9-1.7-2-3.5-4.1-3.5-4.1l-1.8-2.5c-1.6-1.9-3.1-3.8-4.7-5.6-1.6-1.9-3.2-3.6-5-5.2-.8-.7-1.6-1.4-2.4-2-.2-.2-.4-.367-.6-.5v6.2h.7c1.9 1.4 3.6 3 5.1 4.6.4.4.766.833 1.1 1.3.866.867 1.7 1.8 2.5 2.8 0 0 .8 1.2 2 2.9 1.1 1.7 2.5 3.8 3.6 5.5.9 1.5 1.6 2.5 1.9 3.1.133.333.2.567.2.7h19.6zm-20.4 0c-.7-.4-1.8-1.3-3-2.5.1.3-1.8-1.7-3.6-3.7-.9-1-1.8-2-2.5-2.7-.7-.7-1.1-1.2-1.1-1.2a70.313 70.313 0 00-2-2.3c-.4-.4-.767-.8-1.1-1.2-1-1.067-2-2.033-3-2.9v4.4h.1c1 .6 1.9 1.3 2.7 2 .866.667 1.633 1.4 2.3 2.2 1.4 1.5 2.7 3.1 3.9 4.7 0 0 .9 1.8 1.3 3.2h6zm-9.4 0c-.6-.5-1.1-1-1.1-1-1.2-1.5-2.4-3-3.6-4.3l-1.9-1.9a1.165 1.165 0 01-.3-.2v2.9c.2.267.4.5.6.7.9 1.1 1.8 2.1 1.8 2.1s.3.8.3 1.7h4.2zm3.9-44c.6.667 1.266 1.367 2 2.1 1.3 1.4 2.7 2.7 4.2 4.2 1.4 1.5 2.6 3 3.9 4.6 2.5 3.1 5 6.2 7.3 9.4l2.1 2.9s.8 1.3 1.9 3.1c1 1.7 2.2 3.8 3.2 5.7-.1-1.5-.1-2.5-.1-2.5v-5.4c-.6-.6-1.3-1.3-2-2.2.1.2-1.6-1.9-3.2-4-.9-1-1.7-2.1-2.4-2.8-.6-.8-1-1.3-1-1.3-.6-.8-1.234-1.6-1.9-2.4a96.453 96.453 0 00-4.1-4.8 45.21 45.21 0 00-4.6-4.2c-.1-.1-.1-.1-.1-.2-.2-.5-.3-1.2 0-1.8 0-.133.066-.267.2-.4h-5.4zm63-33.9a32.834 32.834 0 001.6 1.5c2 2 3.9 4 5.7 6.1a85.82 85.82 0 012.3 2.8s.9 1.2 2 2.9c1.2 1.7 2.5 3.8 3.6 5.6.133.133.266.3.4.5v-21c-.6.4-2.3.7-4.3.9.1 0-.6.1-1.6.2.4.467.833.967 1.3 1.5 1.5 1.7 2.8 3.4 2.8 3.4s.6 1.3.8 2.5c.4 1.8-.7 1.8-1.7 1.3 0 .1-.6-.3-1.1-.7-.5-.4-1.1-.8-1.1-.8s-1.3-1.6-2.7-3.2c-.6-.8-1.3-1.5-1.9-2.1-.5-.6-.9-1-.9-1-.1 0-.1 0 0-.1.066-.133.166-.3.3-.5-2.4.1-4.7.2-4.7.2h-.8zm-20.5 0c.066.333.1.633.1.9 0-.2.2 1.8.3 4.1h.2c.1 0 .3 0 .3.1 1.6 1.4 3.233 2.833 4.9 4.3l5.8 5.2c1 .933 1.966 1.833 2.9 2.7 1 1 1.9 1.9 2.8 2.9 3.6 3.9 7.1 7.8 10.7 11.5.8.867 1.633 1.733 2.5 2.6 0 0 .9 1.1 2.3 2.6.9 1.1 2.2 2.5 3.3 3.7v-5.4c-.467-.4-.967-.833-1.5-1.3.1.2-1.8-1.6-3.7-3.5-1.9-1.9-3.9-3.8-3.9-3.8l-2-2.4-8.5-9.8c-1.5-1.6-2.9-3.3-4.3-4.7-1.5-1.5-3.1-2.9-4.7-4.3-1.7-1.4-3.3-2.9-4.9-4.5-.1-.1-.1-.1-.1-.3-.067-.133-.1-.333-.1-.6h-2.4zm7.4 0l2.6 2.4c1.7 1.4 3.3 2.9 4.9 4.5 1.7 1.6 3 3.3 4.5 4.9l8.5 9.8 2.4 2.8s3.4 4.5 5.8 7.9v-10.3c-.6-.5-1.3-1.1-2.1-1.8.1.2-1.7-1.8-3.5-3.7-1.8-2-3.7-4-3.7-4-.6-.8-1.234-1.6-1.9-2.4-1.8-2-3.5-3.9-5.4-5.7-.934-.867-1.9-1.7-2.9-2.5-.1-.1-.1-.1-.2-.1l-.2-.2-.2-.2-.5-.5a7.57 7.57 0 00-.8-.7c-.067 0-.1-.067-.1-.2h-7.2zm10.4.3l.1-.3c-.1.1-.1.2-.1.3zM93.2 191v4.7c.333 0 .733.067 1.2.2 0 0 .2.1.3.1.9 1.6 2.3 3 3.9 4.4 1.6 1.4 3.3 2.7 5.1 4.2.4.3.9.8 1.4 1.2l1.2 1.2 2.3 2.4 9.1 9.8 2.5 2.6s3.8 4.6 6.4 7.9c.8 1.1 1.4 1.9 1.8 2.5v-8.9a1.6 1.6 0 00-.4-.3c.2.2-2-1.4-4.1-3.1-2.1-1.7-4.2-3.6-4.2-3.6a71.79 71.79 0 01-2.2-2.3c-3.6-3.8-7.1-7.7-10.7-11.5-.8-.9-1.7-1.9-2.6-2.7a56.122 56.122 0 00-2.9-2.7 228.192 228.192 0 00-5.8-5.2l-2.4-2.2c.1.8.1 1.3.1 1.3zm2 66.5c-.4-.5-1.2-1.4-2-2.3v1.3c0 .1 0 .1-.1.3-.2.2-.4.5-.7.7h2.8zm28 0c-.6-.5-1.2-1.1-1.9-1.8.2.4-7-7.8-7-7.8l-1.9-2.5c-5.9-7.6-11.8-15.2-17.9-22.5a14.01 14.01 0 01-1.3-1.5v5.9c.333-.133.733-.167 1.2-.1 0 0 .2.1.3.2l4.4 4.8c2.466 2.867 4.9 5.767 7.3 8.7l2.3 2.8s3.5 4.9 5.7 8.5c3.9 5.9 1.4 4.3-1.8 1.2.1.2-1.7-1.7-3.5-3.6-1.8-2-3.7-4-3.7-4l-2-2.4a224.138 224.138 0 00-7.2-8.6c-1-1.133-2-2.233-3-3.3v6.6c.2.067.466.167.8.3 0 0 .2.1.2.2 1.066 1.8 2.2 3.567 3.4 5.3.4.467.766.967 1.1 1.5l2.2 2.8s.8 1.2 2 2.8c1.1 1.6 2.6 3.7 3.8 5.4.266.4.533.767.8 1.1h15.7zm6.7 0c-.3-.7-.5-2.2-.7-4-.1.5-.8-10.5-.8-10.5v-9.6c-.7-.2-2-1.1-3.4-2.3.1.2-1.9-1.5-3.9-3.3-2.1-1.8-4.1-3.7-4.1-3.7l-2.1-2.2-9.1-9.8-2.3-2.3-1.1-1.2c-.4-.4-.8-.6-1.2-1-1.6-1.4-3.4-2.7-5.2-4.3-.9-.8-1.9-1.7-2.8-2.8v5h.1s.2.1.3.2a91.967 91.967 0 004.2 4.7c3.4 3.7 7.2 7.3 10.6 11.3l9.8 11.8 2.3 2.8s.9 1.2 2 2.8c1.2 1.7 2.7 3.7 3.8 5.5 2.1 2.9 2.5 3.9 2 3.9s-2-1.1-3.7-2.6c.2.2-1.7-1.6-3.6-3.5l-3.8-4-2-2.3-9.8-11.9c-3.2-3.8-6.9-7.3-10.5-11.1-.534-.6-1.1-1.233-1.7-1.9v4.4c.8.8 1.4 1.6 2.1 2.3.733.8 1.466 1.633 2.2 2.5 6.2 7.4 12.1 15 18 22.6l2.2 2.9s3.3 4.9 5.4 8.6c.8 1.4 1.4 2.3 1.7 3h5.1zm-25.3 0c-.6-.6-2-1.9-3.3-3.3-1.9-1.9-3.8-4-3.8-4-.667-.8-1.3-1.633-1.9-2.5l-1.2-1.6c-.4-.6-.834-1.233-1.3-1.9v5.2l.8.8c.5.6 1.2 1.4 1.9 2.1 1.4 1.5 2.7 3 2.7 3s.5 1.2.7 2.2h5.4zm61-119.2c2.9 2.3 5.6 4.7 8.1 7.3.866.867 1.733 1.767 2.6 2.7l2.1 2.8c1.2 1.6 2.7 3.7 3.9 5.5 0 .067.033.133.1.2v-20.1c-.5.4-2.2.7-4.3.9.2 0-1.4.1-3.4.3.8.7 1.7 1.7 2.6 2.7 2 2.3 3.7 4.6 3.7 4.6s.9 1.8 1.2 3.2c.6 2.3-.6 2.1-1.8 1.3 0 .1-.6-.5-1.3-1.1-.6-.5-1.3-1.1-1.3-1.1s-1.7-2.3-3.5-4.4c-.9-1-1.9-2-2.7-2.7-.7-.8-1.3-1.2-1.3-1.3v-.1c.1-.2.2-.5.4-.9-1.7.1-3.1.2-3.1.2h-2zm-19.3 0c.066.267.1.567.1.9.1-.3.4 4.8.6 8.1.266 0 .566.033.9.1.1 0 .3.1.3.2 1 1.5 2.4 2.9 4 4.3 1 .8 2.033 1.6 3.1 2.4l1.6 1.2.9.7c.2.2.5.4.7.6l6.1 5.3c4 3.5 8.1 7.1 12 10.7l2.7 2.4s1.1 1.1 2.4 2.6c.266.267.5.567.7.9v-19.2c-.5-.4-1.2-1-1.8-1.6.1.2-1.8-1.7-3.6-3.6-1-.9-2-1.8-2.7-2.6-.7-.7-1.2-1.1-1.2-1.1a64.585 64.585 0 00-2.1-2.2c-2.7-2.7-5.4-5.3-8.4-7.4-1.267-1-2.6-1.9-4-2.7h-6.8l2.4 2.4c5.3 5.4 10.9 10.6 16.4 15.9l2.6 2.5s4.1 4.3 6.7 7.7c4.5 5.6 1.8 4.2-1.6 1.5.1.1-1.9-1.5-3.9-3.3-2.1-1.7-4.2-3.5-4.2-3.5l-2.3-2.1c-5.5-5.2-11.1-10.5-16.5-15.9a303.007 303.007 0 01-4.6-4.7s-.1-.1-.1-.2v-.3h-.4zm32.4 75.7c-.5 0-2-1-3.7-2.5.1.2-1.8-1.6-3.7-3.5-2-1.9-3.9-3.9-3.9-3.9l-2-2.3c-5.1-5.9-10.1-11.8-15.7-17.1a34.694 34.694 0 00-2.3-2.1l-.3-.3v6.1c.333 0 .766.067 1.3.2 0 0 .2.1.3.1 1.2 1.733 2.466 3.467 3.8 5.2 5.9 7.5 12.5 14.4 19.3 21.3l2.5 2.6s3.9 4.5 6.4 7.9c.733 1.067 1.3 1.9 1.7 2.5v-23.9c-.2-.133-.4-.3-.6-.5.1.2-1.8-1.6-3.8-3.4-1.9-1.9-3.9-3.8-3.9-3.8l-2.1-2.3c-7-7.6-14.1-15.1-22-21.5-.8-.7-1.7-1.3-2.5-1.9a1.6 1.6 0 00-.4-.3v6.8c.1 0 .3 0 .3.1l1.3 1 1.3 1.1c.8.733 1.6 1.5 2.4 2.3 5.7 5.4 10.8 11.4 15.9 17.3l2.4 2.7s3.6 4.8 6 8.2c2.1 2.9 2.6 3.9 2 3.9zm3.7-13.1v-18.1c-.6-.5-1.3-1-2-1.6-2-1.7-4.1-3.4-4.1-3.4l-2.3-2.1c-4-3.6-8-7.1-12-10.6l-6.1-5.3c-1.8-1.6-4.1-3.1-6.3-4.9a28.007 28.007 0 01-2.5-2.4v5c.466-.133 1.033-.133 1.7 0 .1 0 .2.1.3.1 1.2 1.6 2.7 2.9 4.4 4.3 1.4 1.1 2.9 2.3 4.4 3.6l4.2 3.8c2.8 2.533 5.6 5.1 8.4 7.7l2.6 2.5s4 4.4 6.7 7.7c4.5 5.5 1.9 4.2-1.6 1.5.3.4-8.1-6.7-8.1-6.7l-2.3-2.1a454.53 454.53 0 00-8.3-7.7l-4.2-3.7c-1.4-1.2-2.8-2.4-4.3-3.6-1.3-1.1-2.7-2.3-3.9-3.6v4.5c.9.6 1.9 1.2 2.7 1.9.9.7 1.8 1.3 2.6 2.1 8.2 6.6 15.4 14.2 22.5 21.9l2.4 2.6s2.8 3.5 5.1 6.6zm-30.8 56.6c-.6-.4-1.1-.7-1.1-.7s-1.5-1.5-2.8-3l-.6-.6v3.3c0 .1 0 .1-.1.2-.1.3-.4.6-.7.8h5.3zm32.2 0c-.2-.7-.5-2.2-.7-4-.1.5-.7-10.5-.7-10.5v-13.4c-.7-.3-2-1.3-3.4-2.5.1.2-1.8-1.5-3.8-3.3-2-1.8-4-3.7-4-3.7l-2.2-2.2c-6.8-6.9-13.5-13.9-19.6-21.6-.734-1-1.5-2-2.3-3v7.2l.1-.1c.133.067.233.1.3.1.1.1.2.2.2.3.066.133.1.3.1.5v.3c.1-.1.2-.1.3-.2.2-.133.366-.267.5-.4h.5c.3.3.6.6 1 .9l.6.5.6.5 2.5 2.6c5.5 5.6 10.8 11.4 16.1 17.2l2.5 2.7s3.7 4.6 6.2 8c4.2 5.7 1.7 4.3-1.7 1.4.1.2-1.8-1.6-3.8-3.4-1.9-1.9-3.9-3.8-3.9-3.8l-2.1-2.3c-5.3-5.7-10.6-11.5-16.1-17.1l-2.3-2.4-.5-.4-.6-.5a3.31 3.31 0 00-.5-.4v8.2c.2-.067.433-.1.7-.1 0 0 .2 0 .3.1 2 1.4 3.6 3 5.1 4.6l2.3 2.4 1.2 1.2c.4.4.8.833 1.2 1.3 1.5 1.6 3 3.3 4.5 5 3 3.3 6 6.7 8.9 10.1l2.4 2.7s3.6 4.7 6.1 8.2c4.2 5.7 1.6 4.2-1.7 1.3.1.2-1.8-1.6-3.8-3.4-1.9-1.9-3.8-3.9-3.8-3.9l-2.1-2.3c-3-3.4-5.9-6.8-8.9-10.1-1.5-1.7-3-3.3-4.5-5-.334-.4-.7-.8-1.1-1.2-.4-.333-.8-.733-1.2-1.2l-2.3-2.4c-1.1-1.1-2.2-2.2-3.3-3.1v9c.5-.2 1.2-.2 2.2.1 0 0 .2.1.3.2.9 1.6 2.3 3.2 3.7 4.8l.5.7c.2.2.366.4.5.6l1 1.3 1.9 2.5c1.266 1.667 2.566 3.3 3.9 4.9l2.3 2.8s3.3 4.7 5.8 8.2c2.1 2.9 2.6 3.9 2.1 3.9s-2.1-1-3.7-2.5c.1.2-1.9-1.6-3.8-3.5l-3.8-4-1.9-2.4-4-5-1.9-2.5-1-1.3a3.322 3.322 0 00-.4-.5l-.5-.6c-1-1.3-2.2-2.6-3.2-4v9.4h.3c.1 0 .2 0 .2.1.1 0 .6 1 1.5 2.3.9 1.3 2.2 3 3.6 4.7 1.4 1.6 2.9 3.2 4 4.4l1.9 1.9s1.7 2.3 2.8 4.2c.2.333.366.633.5.9h21.9zm-24.9 0l-1.2-.9c-1-.8-2.1-1.6-2.1-1.6l-1.9-1.9c-1.2-1.2-2.7-2.9-4.1-4.6-.9-1-1.8-2.1-2.5-3.2v3.1l.4-.2.1-.1c.1.1 1.5 1.6 2.9 3.1l2.8 3s.6 1.2.8 2.3c.133.4.2.733.2 1h4.6zm73.4-166c.333.4.7.8 1.1 1.2.9.9 1.9 1.7 2.6 2.4l.4.4v-4.8c-.5.3-2.1.6-4.1.8zm-12.3.8l.8.6c2.1 1.5 4.1 3.2 5.9 4.9a48.03 48.03 0 012.7 2.5s1.1 1.1 2.3 2.7c1.3 1.6 2.9 3.6 4.1 5.3.2.267.4.5.6.7v-8.9a2.55 2.55 0 01-.6-.3l-1.4-.8s-.4-.5-1.1-1.1c-.7-.7-1.7-1.5-2.6-2.4-1-1-1.9-1.9-2.6-2.7-.267-.333-.5-.633-.7-.9-2.8.2-5.8.4-5.8.4H220zm-15.2 0c.4.267.766.533 1.1.8 7.6 5.7 14.5 12.1 21.4 18.3l2.7 2.4s1.1 1 2.5 2.4c1.2 1.3 2.7 2.8 4 4.2v-9c-.7-.4-1.4-1-2.2-1.7.1.2-1.9-1.6-3.8-3.4-2-1.8-4.1-3.6-4.1-3.6l-2.2-2c-1.8-1.7-3.7-3.2-5.6-4.6a33.543 33.543 0 00-5.3-3.3c-.1 0-.1 0-.1-.2a1.14 1.14 0 01-.2-.3h-8.2zm-4.2 1.8c.2 2.6.6 9.6.6 9.6v.5c.333 0 .733.067 1.2.2 0 0 .2.1.3.1.8 1.5 2.3 2.8 4 4 1.5 1.2 3.1 2.2 4.8 3.3.466.267.9.567 1.3.9l.7.5.6.4 2.3 1.9 9.3 7.4 2.8 2.3s4.5 3.9 7.5 6.9l.4.4v-9.3l-.8-.6c.1.2-2.1-1.3-4.2-2.9l-4.4-3.4-2.3-2c-7-6.2-13.8-12.6-21.2-18.1-.8-.6-1.634-1.2-2.5-1.8a1.586 1.586 0 00-.4-.3zm27.3 116.2l-4.4-3.2-2.4-2.1c-6.1-5.3-12-10.8-17.9-16.3l-2-1.9v5.1c.133 0 .3.033.5.1.1 0 .2.1.3.1 1.3 1.5 2.8 3 4.3 4.5l5.1 4.8 5 4.8 10.1 9.7 2.6 2.5s4 4.4 6.6 7.7c.266.333.5.633.7.9v-35.3c-.7-.3-1.8-.9-3-1.5.1.1-2.1-1.3-4.4-2.8-2.2-1.5-4.5-3.1-4.5-3.1l-2.4-1.9c-6.4-5.2-12.5-10.7-18.8-15.7a25.67 25.67 0 01-2.1-1.7v6.6c1.4 1.4 3 2.6 4.6 3.8 1.5 1 3.1 2 4.6 3.1.7.6 1.5 1.2 2.2 1.8.7.6 1.5 1.1 2.2 1.7 2.8 2.4 5.6 4.9 8.3 7.4l2.7 2.4s1 1.1 2.3 2.6c1.4 1.5 3.1 3.4 4.4 5 2.4 2.7 3 3.7 2.4 3.7-.5.1-2.1-.9-3.9-2.2.1.2-1.9-1.4-4-3.1-2.1-1.7-4.3-3.4-4.3-3.4l-2.2-2.1c-2.7-2.5-5.4-4.9-8.2-7.2l-2.1-1.8c-.7-.5-1.4-1.1-2.1-1.6-1.5-1-3-2-4.5-3.1l-2.4-1.8v4.7l4.7 4.3c5.9 5.5 11.8 11 17.8 16.3l2.7 2.3 2.5 2.5c1.4 1.4 3.2 3.2 4.6 4.7 5.1 5.1 2.3 4-1.4 1.6.1.2-2.1-1.3-4.2-2.9zm8.5-20.2v-8.4c-.7-.3-1.6-.8-2.5-1.4.1.2-2.1-1.3-4.3-2.9-2.2-1.6-4.4-3.3-4.4-3.3l-2.3-2-8.9-7.8a112.667 112.667 0 00-4.4-3.8c-.8-.6-1.5-1.3-2.2-1.8l-2.4-1.8c-1.3-1-2.6-2-3.8-3.1v5.9c1.3 1.3 2.9 2.6 4.5 3.9 6.4 5.2 12.6 10.6 18.9 15.7l2.8 2.3s4.3 4 7.3 6.9c.733.6 1.3 1.133 1.7 1.6zm0-10.3v-9.9c-.7-.3-1.6-.9-2.7-1.6.2.2-2-1.3-4.1-2.9-2.2-1.6-4.4-3.3-4.4-3.3l-2.4-2c-6-5.1-11.9-10.1-18.1-15-1.134-.867-2.3-1.767-3.5-2.7v7.3c.333-.067.733-.067 1.2 0 0 0 .2 0 .3.1 1.3 1.4 3 2.7 4.6 4l2.4 1.7c.9.7 1.6 1.3 2.4 2a271.552 271.552 0 014.5 3.8l8.9 7.8 2.7 2.4s4.2 4.2 7.1 7.2c.466.4.833.767 1.1 1.1zm0-11.8v-11.3c0 .067-.034.1-.1.1-.5 0-2.1-.8-4-2 .2.2-2-1.3-4.2-2.9-2.1-1.6-4.4-3.3-4.4-3.3l-2.3-2c-5.2-4.3-10.4-8.5-16-12.2-.9-.7-1.7-1.2-2.6-1.8-.534-.333-1.067-.7-1.6-1.1v6.6a.88.88 0 01.4-.1s.2 0 .3.1c1.8 1.267 3.533 2.6 5.2 4 6.3 4.8 12.3 10 18.2 15l2.8 2.4s4.3 4.1 7.1 7.2c.466.533.866.967 1.2 1.3zm0-11.6v-9.7c-.7-.4-1.7-.9-2.7-1.6.1.2-2.1-1.2-4.3-2.7-2.2-1.5-4.5-3-4.5-3l-2.5-1.9c-5.5-4.1-11.1-8-16.9-11.7-.9-.6-1.8-1.1-2.7-1.6l-1.6-1v4.4a6.18 6.18 0 011.2-.1s.2 0 .3.1c.6.6 1.3 1.1 2.2 1.7.9.6 1.9 1.2 2.7 1.8 5.7 3.9 11.1 8.2 16.3 12.5l2.7 2.4s4.3 4.1 7.2 7.2c1.6 1.7 2.4 2.7 2.6 3.2zm0-11.5v-10.2a26.99 26.99 0 01-1.8-1c.1.2-2.1-1.2-4.3-2.7-2.3-1.5-4.6-3.1-4.6-3.1l-2.4-1.9-9.3-7.5-2.3-1.8-.6-.5-.5-.4c-.4-.2-.8-.433-1.2-.7-1.6-1.1-3.3-2.2-5-3.4a27.709 27.709 0 01-2.7-2.2l-.5-.5v10.2c.2 0 .4-.033.6-.1 0 0 .2 0 .3.1l2.6 1.6c1 .5 2 1.1 2.9 1.7 5.9 3.7 11.6 7.8 17.1 11.9l2.9 2.2s4.6 3.9 7.5 6.9c.533.533.966 1 1.3 1.4zm-31.6 112.6c-.2-.1-.5-.2-.9-.4-.6-.2-1.2-.5-1.2-.5s-.4-.4-1-.9a1.79 1.79 0 00-.5-.5v1.3c0 .1 0 .1-.1.2-.2.3-.4.6-.7.8h4.4zm33.1 0c-.3-.7-.5-2.2-.7-4-.1.5-.8-10.5-.8-10.5v-13.7c-.6-.5-1.4-1-2.3-1.7.3.4-8.1-6.7-8.1-6.7l-2.2-2.2-10.1-9.6-5-4.9c-1.6-1.6-3.4-3.1-5.1-4.7-.8-.8-1.6-1.633-2.4-2.5v4.9c.1 0 .3.1.3.1 1.1 1.6 2.6 3 4.2 4.4l2.4 2.1 2.3 2.2a286.147 286.147 0 014.5 4.4 279.8 279.8 0 018.8 9l2.5 2.7s3.8 4.6 6.2 8.1c4.2 5.7 1.7 4.2-1.7 1.3.2.2-1.8-1.6-3.7-3.4-2-1.8-4-3.7-4-3.7l-2.1-2.3c-2.867-3-5.767-5.967-8.7-8.9a286.147 286.147 0 00-4.5-4.4l-2.3-2.1-2.3-2.1a15.952 15.952 0 01-1.9-1.8v7.5c.5-.2 1.2-.2 2.1 0 0 0 .2 0 .3.1.4.7 1.1 1.3 1.9 2 .7.7 1.5 1.3 2.4 2.1l.7.6.3.3.3.3 1.3 1.2c.8.8 1.5 1.7 2.3 2.5a165.546 165.546 0 014.5 5.1c3 3.4 5.8 6.9 8.6 10.4l2.3 2.8s3.4 4.9 5.7 8.4c2 2.9 2.4 3.9 1.9 3.9s-2-1.1-3.6-2.6c.1.2-1.8-1.7-3.6-3.6l-3.8-4-1.9-2.5c-2.8-3.4-5.6-6.9-8.5-10.3l-4.4-5c-.8-.7-1.6-1.6-2.3-2.3l-1.2-1.2-.3-.3-.2-.2-.6-.5c-1.3-1.2-2.9-2.3-4.2-3.9v9.1c.333 0 .733.067 1.2.2.1 0 .3.1.3.2a65.724 65.724 0 003.7 5.1 122.88 122.88 0 005.5 6.5l2.4 2.6s1 1.2 2.3 2.7c1.2 1.6 2.8 3.6 4.1 5.3 4.3 5.6 1.7 4.2-1.7 1.4.2.2-1.8-1.5-3.8-3.4-2-1.8-4-3.7-4-3.7a71.79 71.79 0 01-2.2-2.3c-1.9-2.1-3.8-4.4-5.7-6.7a45.299 45.299 0 01-2.1-2.9v5.1h.2c0 .1.6 1 1.4 2.3.9 1.2 2.1 2.9 3.4 4.5 1.3 1.6 2.6 3.1 3.6 4.3 1.1 1.1 1.8 1.9 1.8 1.9s1.5 2.2 2.4 4c1.5 3 0 2.6-1.7 1.5.1.1-.9-.7-1.8-1.5-1-.7-2-1.6-2-1.6s-.7-.7-1.7-1.9c-1-1.1-2.4-2.7-3.7-4.4-.7-.8-1.3-1.6-1.9-2.4v4.7c.066.067.133.167.2.3.3.5.3.5.5.7.2.333.433.7.7 1.1.6.7 1.3 1.4 1.8 1.9s.9.8.9.8.8 1.1 1.2 2.2c.4.9.2 1.4-.2 1.6h31.6z"/><path d="M108.9 120.3l-3.7 1-3.7 1c-1.3.3-2.5.6-3.7.8-1.267.267-2.534.5-3.8.7-10 1.8-20.2 3.1-30.4 3.8-5.1.4-10.2.6-15.2.5-5.1-.1-10.1-.5-14.9-1.6-2.1-.5-4.1-1.2-5.7-2.3h-.3c-1.2.2-2.1.6-2.4 1.2-.3.6-.1 1.4.2 2 0 .2.1.2.2.3 2.2 1.5 4.6 2.3 7 2.9 5.2 1.2 10.4 1.5 15.5 1.7 5.2 0 10.3-.1 15.4-.5 10.2-.7 20.3-1.9 30.3-3.7 2.6-.4 5.1-.9 7.6-1.5s5-1.2 7.4-1.9c2.5-.6 4.9-1.4 7.4-2.2l3.6-1.2c1.266-.4 2.5-.8 3.7-1.2 4.8-1.7 9.5-3.7 14.2-5.9 4.6-2.1 9.2-4.5 13.6-7.1 4.5-2.6 8.7-5.4 12.9-8.4 1-.8 2.1-1.5 3.1-2.3l3-2.4c1-.8 2-1.7 3-2.5.933-.8 1.9-1.633 2.9-2.5 1.9-1.7 3.7-3.5 5.6-5.3l2.6-2.8a106.31 106.31 0 002.7-2.8c3.4-3.8 6.7-7.8 9.7-11.9 3.1-4.1 5.9-8.4 8.6-12.8l2-3.3c.7-1.1 1.3-2.2 1.9-3.3 1.3-2.3 2.4-4.5 3.6-6.8l2.9-6 .9-1.8s.2-.7.6-1.8c.2-.533.433-1.1.7-1.7.2-.667.433-1.367.7-2.1.4-1.3.9-2.6 1.2-3.6l.4 2c.2 1.2.4 2.3.7 3.4 0 0 .8 2.9 1.8 5.6 1 2.8 2.2 5.4 2.1 5.1 1.1 2.2 2.1 3.9 2.6 4.1.3.1.4-.2.4-.9-.1-.7-.3-2-.7-3.8-.5-2.2-1-4.8-1.4-6.9-.4-2.1-.6-3.6-.6-3.6-.334-1.267-.6-2.5-.8-3.7a98.847 98.847 0 01-1.1-7.6l-.1-.9-.1-1.4c-.134-1.267-.2-2.6-.2-4l-.1-8.2V.9c0-.067 0-.067 0 0l-.3.5-1.3 2.4-1.3 2.4-.6 1.2-.6 1.1c-.4.7-.8 1.5-1.2 2-.3.5-.7 1.1-1.1 1.6l-.6.8-.3.4-.6.7c-3.3 3.7-7.2 7.1-11.2 10.4l-2.7 2.2c-.9.8-1.8 1.6-2.7 2.5-.1.1-.1.3-.1.4-.2.8-.1 1.4.2 1.9.2.3.6.4 1 .5.3.1.6.2.9.2h.8c.1 0 .1 0 .2-.1.7-.7 1.6-1.4 2.4-2.2l2.7-2.2c4-3.3 8-6.8 11.6-10.9l1-1.2.1 1.6a78.5 78.5 0 00.2 1.5c-.334.467-.667 1.067-1 1.8-.6 1-1.2 2.1-1.8 3.2-.6 1-1.1 2.1-1.6 3.1-1 1.8-1.8 3.2-1.8 3.2l-.8 1.9c-.134.267-.3.567-.5.9l-1 2.2c-4.4 9.2-9.6 18-15.5 26.3-3 4.133-6.134 8.133-9.4 12-3.4 3.8-6.934 7.433-10.6 10.9a149.462 149.462 0 01-11.7 9.8c-4.1 3.1-8.3 5.9-12.6 8.6-8.7 5.2-18 9.6-27.5 13.1-4.8 1.8-9.6 3.3-14.5 4.7z"/></g><defs><clipPath id="clip0_2318_9552"><path fill="#fff" d="M0 0h272v262H0z"/></clipPath></defs></svg>