<svg width="66" height="57" viewBox="0 0 66 57" fill="none" xmlns="http://www.w3.org/2000/svg"><path fill-rule="evenodd" clip-rule="evenodd" d="M63.339 28.08c.67 1.765.986 2.82 1.022 3.274 2.363 1.38.296 1.228-2.484.456.319.256-8.075-2.34-8.075-2.34l-2.421-.861-7.584-2.842c-1.502-.546-2.835-1.052-4.262-1.491l-.208.304-.87 1.564c-.852 1.39-1.703 2.781-2.291 4.148 0 0 .075.107-.094.065a1.542 1.542 0 01-1.242.228c-.175.017-.37-.06-.582-.232-.62.115-1.749.104-3.14.118.17.041-1.804-.177-3.946-.437l-1.54-.2c.016.626-.156 1.383-.254 2.248.208-.304-1.44 8.178-1.44 8.178l-.61 2.339a200.42 200.42 0 01-2.06 7.493c-.14.736-.306 1.436-.496 2.1l1.752-.903L54.83 35.767s4.18-1.64 7.229-2.49c5.044-1.605 3.478-.034.764 1.698.358-.09-6.782 3.933-6.782 3.933L24.1 54.168l-4.407 2.116-.094.066c-.508-.125-1.259-.398-1.538-1-.413-.19-.881-.66-1.122-1.609l-.075-.107a17.3 17.3 0 01-.953-1.567c.13.387-4.709-7.556-4.709-7.556L9.99 42.168 3.027 29.17l-2.5-4.792c-.075-.107-.075-.107-.056-.28.058-.519.23-1.276.945-1.456-.204-.495-.24-.948.026-1.771l.188-.132 4.313-2.05L37.998 3.19s4.085-1.574 7.134-2.424c2.805-1 3.575-.9 3.253-.356.288.011.651.13 1.09.356l.243.149 2.576 4.899 6.16 11.645 1.512 2.772s2.013 4.494 3.373 7.85zm-38.826 1.57c-.94-.142-1.616-.308-1.616-.308l-2.46-.516c-4.32-.972-8.81-1.987-13.224-2.894a42.815 42.815 0 00-2.818-.425l1.288 2.449 6.963 12.998 1.437 2.664s2.088 4.602 3.279 7.916c.1.143.143.272.13.388.342-.983.628-1.98.857-2.99.724-2.577 1.429-4.98 2.059-7.492l.65-2.685s1.538-4.421 2.734-7.327a57.71 57.71 0 00.72-1.778zm14.311-11.415l3.012-5.925 1.156-2.56s2.346-3.868 4.029-6.476a5.54 5.54 0 01.247-.65l-.13-.388c-.075-.107-.075-.107-.056-.28l.04-.346-1.226.854c.358-.09-6.688 3.867-6.688 3.867L7.53 21.567l-2.015.927 1.879.283c4.49 1.015 8.978 2.029 13.393 2.936l2.799.598s4.544 1.295 7.717 2.43c1.014.25 1.771.465 2.272.647-.05-.071-.093-.2-.13-.387l-.056-.28c.796-1.671 1.648-3.062 2.499-4.453l.682-1.432.776-1.498 1.479-3.103zm16.974.438l-6.16-11.645-1.287-2.45c-.153.585-.74 1.952-1.234 3.252l-1.481 3.902-1.024 2.149-3.03 6.098-.777 1.498c.4.04.795.136 1.183.291.889.337 1.721.66 2.497.969l7.584 2.841 2.76.945s4.466 1.986 7.412 3.599c.325.198.625.36.9.488l-1.42-2.038c.13.387-4.615-7.622-4.615-7.622l-1.308-2.277z" fill="gold"/></svg>