<svg width="254" height="252" viewBox="0 0 254 252" fill="none" xmlns="http://www.w3.org/2000/svg"><g clip-path="url(#clip0_2318_9478)" fill="gold"><path d="M149.751 80.352c-2.517 12.585.262 28.581 11.607 36.293 10.535 7.276 19.274-2.371 21.307-12.944 2.118-10.885-.362-25.316-10.931-31.258-8.17-4.778-19.838-2.834-24.045 6.238-.423.82 1.028 1.574 1.591.728 4.732-7.845 15.28-9.574 22.833-4.234 8.027 5.544 10.045 16.816 8.913 26.036-.692 4.708-2.312 10.627-6.213 13.737-5.78 4.652-12.64.655-16.923-4.279-6.786-8.144-8.439-19.781-6.464-29.9.229-1.078-1.42-1.352-1.675-.417z"/><path d="M168.659 72.295c-3.706 3.368-8.299 5.135-12.947 6.617-3.024.876-5.767 1.697-8.354-1.2-2.031-2.267-1.96-5.676-2.226-8.576-.051-1.023-1.59-.728-1.706.18-.696 5.446 1.455 12.118 7.659 12.698 6.204.58 14.612-3.985 18.881-8.198.843-.9-.297-2.305-1.307-1.52zm-6.255 47.543c-3.05.733-9.264 2.369-10.649 5.734-.877 2.234.816 5.009 1.505 7.09 5.995 16.118 7.846 33.326 14.12 49.389.055.285.557.632.977.551 11.052-2.121 22.522-3.584 33.356-6.844.42-.08.785-.446.703-.873-.05-19.915-3.178-39.239-5.074-58.947-.082-.427-.611-.916-1.031-.835-5.9.246-11.715.182-17.503.259-.727-.008-1.092.357-1.263.98-1.603 8.278-3.066 16.528-5.283 24.628a78.999 78.999 0 001.874-.064c-3.772-6.803-7.011-13.856-10.643-20.686-.666-1.201-2.375-.282-1.877.803 3.659 6.972 7.038 13.998 10.67 20.828.417.658 1.59.728 1.846-.206 1.621-5.92 2.934-11.928 4.22-18.078.344-1.985.521-4.085 1.173-5.981.426-1.558-.082-.427-.754-.151.532-.249 1.873-.064 2.32-.002 3.102.29 6.375-.043 9.282-.01.867-.019 3.778-.725 4.614-.148 1.144.666.953 5.721 1.114 7.314 1.513 11.664 3.445 23.248 4.092 34.931.154 3.07 1.656 10.899.216 13.979-.255.935.727.008-1.15.811-1.317.696-2.883.849-4.255 1.26-5.009 1.109-10.074 1.933-15.138 2.757-2.378.457-5.487 1.643-7.974 1.53-4.696-.279-4.737-3.518-6.004-7.85-3.083-10.773-4.654-21.984-7.989-32.56-1.075-3.336-2.878-6.68-3.673-10.069-1.123-5.098 4.418-6.457 8.759-8.028.812-.303.231-1.815-.581-1.512z"/><path d="M172.322 140.516c2.878 12.731 4.412 26.015 8.269 38.557.359 1.112 1.925.959 1.819-.349-2.319-12.838-5.391-25.826-8.549-38.503-.192-.996-1.731-.701-1.539.295z"/><path d="M160.975 120.703c-1.218 3.48-3.425 9.365-2.602 12.897.632 2.535 6.062 7.397 7.758 9.432a547.748 547.748 0 008.98 11.265c.724.747 1.959-.376 1.375-1.15-4.699-5.592-9.147-11.38-13.567-17.025-2.253-2.667-3.089-3.245-2.291-6.645.628-2.777 1.116-5.527 1.911-8.189.256-.934-1.14-1.404-1.564-.585z"/><path d="M179.187 118.094c1.751 2.32 3.502 4.641 4.861 7.184 1.303 2.259 1.361 1.805 1.099 4.217-.259 1.673-1.358 3.508-1.924 5.092-2.351 6.65-4.868 13.184-7.219 19.834-.368 1.104 1.334 1.662 1.563.585 2.917-8.234 8.158-17.209 9.539-25.887.747-4.423-3.847-8.707-6.823-12.121-.584-.774-1.679.322-1.096 1.096zm-5.861 4.224a13.113 13.113 0 00-1.614-1.609c-.556-.631-.945-1.147-1.7-1.298-.447-.061-.784.446-.982.927-.676 1.015-.932 1.95-1.3 3.054-.283.792.328 1.708 1.167 1.547 1.232-.384 2.519-.484 3.751-.868.839-.161 1.235-1.122.678-1.753zm-3.035 3.091c-2.044.687-1.443 3.819-1.115 5.527.434 3.016 1.256 6.548 3.035 9.011.389.516 1.088.382 1.286-.099.28-.054.7-.134.758-.588.713-3.089-.025-6.932-.626-10.064-.328-1.708-.874-4.555-3.338-3.787zm-1.231 56.32c.98-.188.679-1.754-.3-1.566-.979.188-.679 1.754.3 1.566zm2.432-.172c.698 12.707 3.883 25.526 6.679 37.83 2.684 12.472 5.927 24.838 9.45 37.15.441 1.539 2.819 1.082 2.379-.457-3.523-12.312-6.907-24.65-9.73-37.096-2.684-12.473-4.276-25.303-7.379-37.695-.191-.996-1.423-.612-1.399.268z"/><path d="M179.498 179.431c-.2 13.321 3.572 26.175 6.645 39.164 1.721 6.95 3.443 13.902 5.162 20.852.823 3.532 2.148 7.41 2.691 10.996.536 5.063.12 4.405-4.416 5.718-1.371.411-1.016 2.261.383 1.993 2.293-.145 4.532-.575 6.91-1.031.56-.108 1.15-.811 1.014-1.523a5201.353 5201.353 0 00-9.365-37.462c-3.158-12.677-6.903-25.388-7.123-38.629.061-1.193-1.867-1.413-1.901-.078zm8.28-.704c1.479 13 5.586 26.085 9.164 38.681 3.301 11.912 7.05 23.885 11.163 35.493.58 1.512 2.542.398 2.129-.999-4.277-12.462-8.414-24.951-11.88-37.717-3.274-11.769-5.483-24.037-9.177-35.726-.191-.996-1.45-.755-1.399.268z"/><path d="M195.814 176.004c.357 13.953 5.163 26.904 9.157 40.158 2.166 7.259 4.343 14.565 6.528 21.919.689 2.081 3.874 8.85 3.25 10.888-.795 2.662-2.584 2.415-5.02 3.325-1.232.384-.457 2.154.662 1.939 2.239-.43 4.477-.859 6.689-1.431.672-.277 1.29-.838 1.013-1.523a50859.227 50859.227 0 00-11.709-38.34c-3.776-12.115-7.859-24.32-8.696-36.999-.079-1.166-1.925-.959-1.874.064z"/><path d="M209.642 252.606c-2.91.706-6.388 2.997-7.073 6.228-.655 2.635 1.492 3.994 3.812 3.991 3.355.094 17.251-6.115 12.129-10.887-.891-.863-2.462.029-1.824 1.087.638 1.059-.655 2.635-1.245 3.339a32.568 32.568 0 01-2.271 1.764c-1.543 1.034-3.281 1.81-5.1 2.159-.56.108-1.791.492-2.266.287-.836-.577-.463-2.42-.012-3.096.873-1.496 2.89-2.326 4.487-3.075.952-.331.343-1.985-.637-1.797zm-13.481-135.261c4.406 2.549 6.553 9.959 8.714 14.415a299.135 299.135 0 016.25 15.183c4.008 10.3 6.616 20.869 10.064 31.276.358 1.112 1.955.363 1.764-.634-1.957-12.464-6.848-25.104-11.576-36.889-2.434-5.879-5.008-11.732-7.974-17.361-1.662-3.371-2.935-6.226-6.396-7.628-.948-.408-1.682 1.061-.846 1.638zm1.634 16.069c6.415 16.037 9.781 32.068 14.404 48.597.385 1.254 2.372 1.02 2.098-.403-2.414-16.362-7.03-34.367-14.904-48.944-.499-1.085-2.069-.193-1.598.75z"/><path d="M213.707 182.312c2.601-.057 6.627-.239 8.733-2.119.757-.588-.021-1.62-.888-1.601-1.286.1-2.603.795-3.835 1.179a29.288 29.288 0 01-4.058.779c-1.006.045-.958 1.807.048 1.762z"/><path d="M213.204 181.965c-2.088 4.238 2.591 8.211 6.54 6.863 2.044-.688 3.477-2.291 4.074-4.472.484-2.011.217-4.912-1.509-6.352-.697-.604-1.539.296-1.403 1.008.133 1.45.912 2.481.765 3.985-.034 1.335-.795 2.662-1.972 3.33-2.607 1.534-5.812-.803-4.764-3.66.481-1.274-1.195-1.69-1.731-.702z"/><path d="M202.662 195.058l14.831-2.846c4.59-1.029 10.135-3.126 14.776-3.131 3.327-.048 3.273-.333 4.597 3.545.83 2.055 1.267 4.333 1.844 6.583 1.457 5.329 2.468 10.596 3.506 16.005.328 1.708 2.846 1.225 2.519-.483a187.244 187.244 0 00-4.965-21.334c-.577-2.25-.895-6.174-3.294-7.337-3.04-1.483-9.568 1.541-12.786 2.158-7.081 1.654-14.329 3.193-21.41 4.847-1.232.384-.877 2.234.382 1.993z"/><path d="M200.395 195.345c1.478 6.948 3.516 13.789 5.275 20.683.799 2.651.727 6.059 3.519 7 1.843.532 4.812-.629 6.63-.978 3.19-.513 6.371-1.075 9.542-1.683 6.323-1.066 12.619-2.274 18.53-4.737 1.484-.58.375-2.581-.997-2.17-5.433 1.928-11.142 3.171-16.738 4.245-3.945.61-9.265 2.369-13.094 2.07-5.563-.26-5.782-7.45-6.936-11.952-1.294-4.474-2.42-8.833-3.967-13.112-.358-1.112-1.983-.505-1.764.634zm12.095-3.502c-.359-1.112-.492-2.562-.123-3.666.368-1.104 1.266-1.719 1.634-2.822.31-.65-.3-1.566-1.113-1.263-1.511.438-2.33 2.218-2.617 3.749-.426 1.558-.238 3.293.762 4.725.471.942 1.788.247 1.457-.723zm16.734-3.506c.907-2.831-1.865-8.202-5.223-7.558-.866.019-1.095 1.096-.706 1.611.891.863 2.12 1.217 2.898 2.249.778 1.031.857 2.197 1.27 3.593.164.854 1.505 1.04 1.761.105z"/><path d="M200.956 195.237c3.979 4.107 8.409 7.537 13.177 10.459 1.952 1.102 6.048 4.301 8.454 3.986 2.378-.456 5.053-4.659 6.319-6.378 3.207-4.453 5.606-9.341 7.864-14.202.621-1.299-1.471-2.374-2.119-1.216-1.975 4.068-7.772 18.464-13.198 18.915-2.293.145-7.808-4.405-9.815-5.791-3.317-2.168-6.409-4.674-9.362-7.207-.863-.72-2.044.688-1.32 1.434zm-48.46-66.56c-.623 8.089-1.329 15.751-4.662 23.328-3.586 7.772-7.926 15.394-12.153 22.847-.873 1.496 1.273 2.855 2.034 1.528 8.735-14.959 17.384-29.607 16.542-47.599-.051-1.023-1.699-1.297-1.761-.104zm5.124 16.874c-2.612 15.113-8.374 28.173-19.188 39.104-1.235 1.122.434 3.016 1.529 1.92 11.008-10.672 18.623-25.417 19.56-40.946.061-1.192-1.699-1.297-1.901-.078z"/><path d="M135.251 177.148c.3 1.566 1.16 3.024 1.853 4.367.693 1.343 1.161 3.024 2.246 4.144.724.747 1.928.221 1.737-.776-.44-1.539-1.301-2.997-2.133-4.313-.693-1.343-1.301-2.997-2.386-4.117-.529-.489-1.481-.159-1.317.695z"/><path d="M135.705 175.733c-2.683-.371-5.29 1.162-6.753 3.362-1.239 1.861-2.624 5.226-1.74 7.565.771 2.509 4.826 2.469 6.839 2.378 2.266-.287 5.095-1.421 5.33-3.975.143-.765-1-1.431-1.618-.87-1.32 1.434-2.163 2.334-4.316 2.452-.727-.008-1.621-.132-2.348-.14-1.341-.185-1.788-.247-1.809-1.867.017-3.693 3.05-6.784 6.463-7.143 1.006-.046.846-1.639-.048-1.762zM80.5 92.165c4.996 7.897 6.267 17.541 5.108 26.619-.894 5.928-2.6 12.158-8.093 15.279-6.306 3.424-12.214-.903-16.132-6.202-5.362-7.532-8.5-18.589-5.02-27.669 3.818-9.588 15.86-14.113 24.358-7.626.837.577 1.904-.661 1.208-1.265-7.266-6.871-18.684-4.385-24.645 3.106-7.732 9.601-4.444 24.467 2.028 33.999 6.249 9.132 18.084 13.354 24.649 2.206 6.704-11.175 4.965-28.552-1.864-39.196-.611-.916-2.208-.167-1.597.75z"/><path d="M83.655 136.574c3.467-.075 9.565-.802 11.002 2.907.94 2.624.104 8.097.288 10.571.705 11.229 3.228 22.109 4.492 33.231.375 3.47 2.031 8.318-1.279 10.724-1.655 1.203-5.736 1.101-7.835 1.504-5.29 1.162-10.579 2.325-15.923 3.203-1.426.126-2.853.252-4.112.494-.84.161-2.822-.344-1.959.376-.863-.72-1.382-3.425-1.74-4.537a108.568 108.568 0 01-3.37-9.242c-3.642-10.665-6.053-21.714-8.856-32.541-.522-1.966-2.434-5.879-1.922-7.748.426-1.558 1.6-1.488 3.365-2.122 2.969-1.16 5.89-2.311 8.766-3.453.812-.303 1.85-.945 2.716-.964.7-.134-1.839-1.27-.586-.035 1.307 1.52 2.303 3.69 3.33 5.264 3.472 5.238 6.943 10.475 10.64 15.374.583.774 1.788.247 1.791-.491.846-7.689 1.384-15.467 2.202-23.299.061-1.192-1.867-1.413-1.9-.078-.986 7.716-1.385 15.467-2.23 23.156.541-.202 1.13-.413 1.764-.633-5.058-6.704-9.611-13.8-14.164-20.896-.39-.516-.864-.72-1.396-.47-5.545 2.097-10.923 4.31-16.496 6.265-.42.08-.73.73-.508 1.13 5.394 19.037 9.641 38.146 16.967 56.665.222.4.696.604 1.116.524 11.271-.982 22.328-3.842 33.381-5.963.42-.081.757-.588.843-.9-.258-17.218-4.908-33.889-5.306-51.08.037-2.074.443-5.251-.891-6.914-2.447-2.925-9.245-2.063-12.35-1.614-.867.018-.847 1.638.16 1.592z"/><path d="M80.399 158.157c1.759 12.945 3.712 26.148 6.45 38.906.247 1.281 1.758.843 1.68-.323-1.06-13.079-4.552-25.987-6.591-38.879-.051-1.023-1.73-.701-1.54.296z"/><path d="M84.047 136.351c1.584 2.205 3.055 4.58 4.638 6.785 2.028 3.005 1.55 3.54.5 7.136-2.157 6.908-4.145 13.931-6.301 20.838-.396.961 1.167 1.547 1.563.586 1.586-4.585 2.865-9.258 4.312-13.815.88-2.973 4.008-8.592 3.575-11.608-.543-3.586-4.632-8.262-7.192-11.017-.696-.605-1.679.322-1.095 1.095z"/><path d="M65.835 138.961c-1.501 4.273-4.183 9.953-1.852 13.786 4.635 7.523 12.686 13.948 18.444 20.517.751.889 1.986-.233 1.235-1.122-4.505-5.334-9.402-10.446-14.047-15.753l-2.95-3.271c-1.528-1.921-1.416-2.09-1.491-3.994-.014-3.097 1.316-6.747 2.084-9.551.256-.934-1.027-1.574-1.423-.612zm8.573 2.339c.245-.736.5-1.424.764-2.065.283-.792.454-1.415 1.239-1.861.392-.223.754.15 1.255.497.864.72 1.587 1.466 2.338 2.355.417.658.188 1.735-.651 1.896-1.287.1-2.519.484-3.805.583-.7.134-1.563-.586-1.14-1.405zm3.822 1.776c2.293-.145 2.754 3.013 3.082 4.721.713 2.963 1.256 6.548.516 9.495-.17.623-.73.73-1.232.384-.28.053-.56.107-.921-.266-1.806-2.606-2.403-6.476-3.004-9.607-.328-1.709-1.014-4.529 1.559-4.727zm21.993 51.863c.979-.188.679-1.754-.3-1.566-.98.188-.68 1.754.3 1.566zm-3.723 1.01c1.704 12.66 4.975 25.168 7.099 37.748 1.984 12.607 3.548 25.295 4.833 38.036.161 1.593 2.399 1.163 2.239-.429-1.145-12.768-2.849-25.429-4.973-38.009-1.957-12.465-3.743-25.553-7.799-37.615-.164-.854-1.45-.755-1.4.269z"/><path d="M87.937 197.444c4.697 12.382 5.924 25.577 7.683 38.522l5.307 38.241c-.003.738.806 1.173 1.505 1.039 2.239-.43 4.478-.859 6.801-1.6 1.26-.242.905-2.092-.382-1.993-4.839.486-4.982 1.251-6.218-3.677-.963-3.505-1.168-7.598-1.571-11.211a1615.486 1615.486 0 01-3.064-21.255c-1.953-13.203-3.207-26.541-8.324-38.842-.526-1.227-2.095-.336-1.737.776zm-7.613 1.904c.896 12.225 3.525 24.414 4.84 36.559a602.513 602.513 0 012.786 39.462c.133 1.45 2.368 1.759 2.348.139-.476-12.306-1.426-24.816-2.629-37.13-1.479-12.999-2.508-26.675-5.945-39.299-.332-.969-1.45-.754-1.4.269z"/><path d="M71.626 200.131c3.776 12.116 4.5 24.965 5.478 37.617 1.096 13.271 2.2 26.587 3.315 39.951-.004.739.778 1.032 1.505 1.04 2.266-.288 4.504-.717 6.883-1.174 1.12-.214 1.044-2.119-.103-2.046-2.74.083-4.31.974-6.033-1.204-1.335-1.662-.742-9.156-1.012-11.318a2068.54 2068.54 0 00-1.91-22.804c-1.336-13.765-1.665-27.575-6.359-40.695-.47-.943-2.122-.478-1.764.633zM49.96 143.926c-2.836 2.61-2.962 5.734-3.258 9.48-.671 6.328-.896 12.717-.98 19.08-.03 12.698.105 26.25 2.901 38.554.191.996 1.952 1.101 1.873-.065-.51-10.971-2.138-21.727-2.228-32.779-.087-5.494.021-10.975.326-16.445.217-4.912-.53-12.591 2.619-16.59.703-.873-.523-1.966-1.253-1.235zm3.923 16.662c-1.92 16.456.598 34.864 4.272 50.984.273 1.424 2.204.905 2.098-.403-1.824-17.065-4.63-33.204-4.609-50.476.089-1.05-1.56-1.324-1.76-.105z"/><path d="M58.496 210.326a29.288 29.288 0 01-4.058.779c-1.426.126-2.907-.033-4.14.351-.811.304-1.013 1.523-.091 1.789 2.652.967 6.32-.327 8.756-1.237.953-.331.485-2.012-.467-1.682z"/><path d="M57.953 212.791c2.03 2.267-.081 5.624-2.93 5.138-1.482-.159-2.54-1.136-3.205-2.337-.693-1.343-.352-2.589-.625-4.012-.277-.685-1.393-1.209-1.816-.39-1.071 1.977-.245 4.77 1.09 6.433 1.221 1.831 3.286 2.763 5.3 2.672 4.306-.236 7.042-5.631 3.534-8.795-.864-.72-2.126.26-1.348 1.291z"/><path d="M73.56 217.767c-7.19 1.084-14.354 2.311-21.684 3.423-3.078.59-10.401.225-12.677 2.728-1.798 1.968-.641 5.731-.344 8.036.666 7.251 1.92 14.538 3.425 21.628.328 1.708 2.707 1.252 2.379-.456a270.019 270.019 0 01-2.421-14.885 56.452 56.452 0 01-.864-6.771 9.144 9.144 0 01-.093-4.262c-.16-1.839.822-2.519 2.945-2.041 3.893-1.633 9.401-1.657 13.599-2.462 5.344-.878 10.8-1.925 16.117-2.946 1.26-.241.904-2.092-.382-1.992z"/><path d="M74.28 219.252a210.1 210.1 0 001.309 13.622c.427 4.493 2.772 11.423-2.019 13.67-3.699 1.891-9.04 2.03-12.93 2.924-5.736 1.101-11.36 2.033-17.26 2.28-1.427.126-1.717 2.395-.123 2.385 5.955.037 11.859-.948 17.875-2.102 3.153-.704 6.26-1.398 9.32-2.084 2.098-.403 6.152-.443 7.78-1.788 1.993-1.711 1.136-3.908.784-6.497-.86-7.509-1.442-15.073-2.722-22.501-.219-1.139-2.092-1.075-2.014.091zm-8.896 1.264a6.18 6.18 0 00-1.181-4.644c-.833-1.316-2.253-2.667-3.82-2.514-.726-.008-1.095 1.096-.566 1.585.751.889 1.813 1.128 2.563 2.017.751.889 1.304 2.259 1.243 3.451.051 1.023 1.532 1.182 1.76.105zm-16.869 2.057c-.246-1.282-.632-2.536-.15-3.809.34-1.246 1.21-2.003 1.719-3.134.31-.65-.44-1.539-1.113-1.262-3.358.644-4.084 6.687-2.193 8.981.584.773 1.9.078 1.737-.776z"/><path d="M73.976 218.424c-1.72 3.134-3.44 6.269-5.493 9.172-1.437 2.342-5.326 9.287-7.65 10.028-2.744.822-8.232-3.586-10.433-5.23-3.065-2.363-5.877-4.923-8.69-7.483-1.03-.835-2.715.964-1.657 1.942 4.037 3.653 8.075 7.306 12.562 10.282 1.953 1.101 5.853 4.042 8.232 3.586 2.211-.572 5.251-5.141 6.377-6.833 3.487-4.506 6.333-9.332 8.37-14.593.535-.989-1.082-1.859-1.618-.871zm20.538-78.178c5.738 17.053 19.195 27.458 32.847 38.121 1.337.924 2.689-1.106 1.463-2.199-6.825-5.332-13.539-10.833-19.747-16.726-6.041-5.777-9.392-12.661-13.106-19.918-.499-1.085-1.788-.247-1.457.722zm1.207 17.627c6.619 14.079 19.151 24.957 33.328 30.797 1.423.612 2.272-1.765.849-2.377-14.231-6.125-24.419-16.124-32.44-29.196-.638-1.058-2.235-.309-1.737.776z"/><path d="M128.454 178.01c-.594 1.442-.546 3.204-.692 4.708-.147 1.504-.546 3.204-.246 4.77.192.996 1.506 1.039 1.761.105.594-1.443.546-3.205.553-4.682.146-1.504.545-3.204.105-4.743-.164-.854-1.171-.808-1.481-.158zM53.217 35.413c3.346 14.412 7.28 28.86 10.905 43.217.11.57.61.916 1.03.836a455.881 455.881 0 0015.981-3.657c1.12-.215 9.381-3.276 10.412-2.441 1.003.693-1.384 15.467-1.53 16.971-.09 1.05 1.28 1.378 1.87.674 5.797-8.344 13.682-14.875 23.149-18.463 4.76-1.651 9.517-2.564 14.523-2.935 2.153-.118 5.143.342 6.829-1.458 3.538-3.483.619-13.402.219-17.752a950.014 950.014 0 00-3.375-32.708c-.109-.57-.751-.889-1.31-.781-26.075 3.97-53.714 7.355-78.474 17.42-1.092.358-.457 2.154.635 1.797 15.397-4.43 30.514-8.807 46.324-11.841 7.835-1.504 15.865-2.75 23.755-3.969 5.344-.878 7.108-1.511 7.696 4.575.503 4.134.95 8.23 1.342 12.287.834 7.367 2.752 15.854 2.132 23.205-.702 6.924-3.637 6.75-8.336 7.208a46.42 46.42 0 00-9.487 1.968C106.28 73.05 96.91 80.16 90.185 89.716c.633.272 1.256.497 1.87.674.568-6.11 1.09-12.213 1.564-18.306.031-.596-.525-1.227-1.225-1.093-6.886 1.912-13.854 3.397-20.795 5.024-1.4.268-5.126 2.016-6.662 1.573 1.843.532.645-.419.096-2.527-3.435-13.362-6.73-26.75-10.556-39.89-.164-.853-1.45-.754-1.287.1l.027.142z"/></g><defs><clipPath id="clip0_2318_9478"><path fill="#fff" transform="rotate(-10.863 210.153 17.054)" d="M0 0h208v258H0z"/></clipPath></defs></svg>