<svg width="10" height="8" viewBox="0 0 10 8" fill="none" xmlns="http://www.w3.org/2000/svg"><path d="M3.852 6.242c0 .469-.164.862-.493 1.178-.328.316-.738.475-1.23.475-.469 0-.867-.182-1.195-.545C.605 6.986.44 6.53.44 5.979c0-.399.088-.838.264-1.319.188-.48.428-.967.72-1.459a16.42 16.42 0 011.02-1.459c.387-.492.774-.949 1.16-1.37l.475.386a11.69 11.69 0 00-1.318 1.88c-.352.633-.563 1.255-.633 1.864.469.035.873.21 1.213.527.34.317.51.721.51 1.213zm5.044 0c0 .469-.164.862-.492 1.178-.328.316-.738.475-1.23.475-.469 0-.867-.182-1.195-.545-.329-.364-.493-.82-.493-1.371 0-.399.088-.838.264-1.319.188-.48.428-.967.72-1.459a16.42 16.42 0 011.02-1.459c.387-.492.774-.949 1.16-1.37l.457.386a11.69 11.69 0 00-1.318 1.88c-.34.633-.545 1.255-.615 1.864.469.035.873.21 1.213.527.34.317.51.721.51 1.213z" fill="#023363"/></svg>