<svg width="160" height="151" viewBox="0 0 160 151" fill="none" xmlns="http://www.w3.org/2000/svg"><mask id="a" style="mask-type:alpha" maskUnits="userSpaceOnUse" x="0" y="0" width="160" height="151"><path d="M160 150.664v-150H0v150h160z" fill="#243A33"/></mask><g mask="url(#a)"><path d="M168.066 210.332c-.554.073-.716.96-1.32.318-.049-.052-.523.4-.833.47-.98.205-1.932.526-2.837.955a2.11 2.11 0 01-1.03.105c-1.524-.107-3.042-.167-4.519.318-.206.068-.558-.839-.637.104-.011.126-.459.176-.643.335a2.287 2.287 0 01-.803.472 2.29 2.29 0 01-.926.11 2.906 2.906 0 01-.947-.298 21.287 21.287 0 00-2.089-1.015c-2.209-.743-4.254-1.853-6.382-2.773-.763-.33-1.481-.753-2.235-1.105-.754-.351-1.559-.594-2.264-1.013a24.313 24.313 0 00-3.311-1.538c-1.074-.436-2.086-1.025-3.13-1.536-2.139-1.044-4.236-2.192-6.438-3.075-1.221-.489-2.066-1.404-3.129-2.051-.064-.039-.078-.16-.115-.242-.627.746-1.05-.124-1.463-.284-1.644-.641-3.204-1.491-4.829-2.192-.484-.208-.477-.223-.733-1.004-.26.08-.64.314-.758.219-1.192-.96-2.863-1.086-3.923-2.274-.123-.138-.421-.115-.635-.176-.266-.077-.625-.08-.779-.258-1.095-1.268-2.774-1.426-4.119-2.214-.809-.474-1.518-1.126-2.518-1.303-.344-.061-.6-.627-1.081-1.173-.994.139-2.091-.316-2.989-1.259-.082-.086-.159-.224-.257-.243-2.186-.422-3.7-2.267-5.85-2.78-.164-.04-.238-.46-.372-.742-1.087.194-2.002-.32-2.947-.922a33.164 33.164 0 00-3.382-1.784A38.895 38.895 0 0183.307 178c-.459-.304-.993-.492-1.474-.765-.407-.23-.695-.714-1.192-.729-.897-.028-1.1-1.244-2.047-1.133-.647-.777-1.734-.813-2.453-1.429-.744-.637-1.728-.903-2.422-1.486-1.149-.965-2.5-1.567-3.714-2.397-1.085-.742-2.105-1.696-3.444-2.048-1.699-1.513-3.923-2.161-5.74-3.497-.85-.624-1.846-1.046-2.744-1.626-.487-.281-.95-.601-1.386-.956-.133-.12-.251-.353-.385-.36-1.15-.057-1.875-.795-2.596-1.546-.676.147-.875-.496-1.297-.773a8.425 8.425 0 01-1.281-.785c-1.984-1.925-4.262-3.506-6.207-5.492-1.633-1.666-3.754-2.86-5.204-4.713-1.633-2.088-3.612-3.93-4.634-6.477a17.133 17.133 0 01-1.149-3.662 22.434 22.434 0 01-.234-3.664 5.913 5.913 0 011.178-3.631 6.97 6.97 0 00.78-1.466c.392-.809.848-1.585 1.364-2.321a23.32 23.32 0 012.193-2.68c.878-1.03 2.188-1.402 3.217-2.199.127-.099.502.121.605.15.235-.276.382-.605.622-.7a13.1 13.1 0 011.77-.497 7.67 7.67 0 011.485-.301c.552-.021 1.115.176 1.662.135.486-.037.96-.398 1.434-.386.773.02 1.462.558 2.298.453.31-.039.652.229.97.207.883-.061 1.67.324 2.493.442.748.107 1.215.817 2.113.639.705-.141 1.508.272 2.279.382.804.04 1.606.127 2.4.259 1.856.492 3.826.357 5.638 1.063.206.081.511.193.654.104 1.02-.636 2.02.125 3.025-.005.336.463.57.168.841-.09a.543.543 0 01.44-.142c1.027.394 2.012.12 3.04-.036.774-.115 1.598.142 2.402.183a8.563 8.563 0 001.966-.036c.606-.111 1.186.514 1.766.007.572.79 1.377.006 1.995.289.679.312 1.322-.272 2.071.119.56.292 1.404.045 2.12.038l2.344-.022.023-.497c.205.208.691-.427.792.284.026.182.487.436.741.425.948-.036 1.916.315 2.83-.024.651-.24 1.12.117 1.675.2 1.033.156 2.117-.02 3.18-.071.098-.005.236-.179.282-.15 1.717 1.049 3.513-.128 5.249.194.829.154 1.652.345 2.497.521-.118-.652.196-.869.758-.847-.041-.115-.046-.261-.121-.317-.594-.436-1.161-1.116-1.813-1.215-.91-.138-1.194-1.009-2.024-1.238-.772-.213-1.418-.898-2.112-1.385a13.686 13.686 0 00-1.949-1.373c-1.785-.829-3.194-2.252-5.032-3.014-.87-.36-1.554-1.157-2.341-1.728-.414-.38-.9-.672-1.43-.859-.585-.116-.873-.68-1.299-.755-.54-.095-.788-.441-1.165-.69-.981-.648-1.965-1.301-3-1.861-1.775-.959-3.594-1.841-5.16-3.141l-1.424-.608c-.994-.019-1.525-.902-2.337-1.283-.715-.335-1.683-.46-1.973-1.439a.46.46 0 00-.26-.267 19.142 19.142 0 01-5.337-2.76c-.063-.052-.088-.227-.124-.224-1.217.079-1.741-1.239-2.833-1.4-1.234-1.401-3.168-1.868-4.394-3.287a1.722 1.722 0 00-.582-.315c-.88-.411-1.766-.805-2.392-1.604a2.46 2.46 0 00-1.284-.798c-.473-.147-.638-.74-1.254-.89-.814-.194-1.303-1.013-2.082-1.438-1.541-.837-2.893-2.024-4.315-3.076a43.615 43.615 0 00-3.812-2.465c-.823-.485-1.524-1.177-2.37-1.657-.877-.496-1.608-1.229-2.582-1.573a1.359 1.359 0 01-.402-.333 7.368 7.368 0 00-1.918-1.438c-.695-.327-1.052-1.248-1.956-1.355-1.195-1.171-2.383-2.348-3.586-3.512a10.739 10.739 0 01-2.239-3.002c-.534-1.077-1.329-2.066-1.982-3.117-1-1.535-1.86-3.158-2.569-4.848-.274-.695-.786-1.248-1.026-1.902-.652-1.786-.866-3.607.12-5.4a6.845 6.845 0 011.277-1.811 28.734 28.734 0 002.255-2.304 8.734 8.734 0 013.364-2.26c3.054-1.264 6.237-2.177 9.624-1.422.748-.566 1.339.198 2.017.244.679.046 1.353.177 2.027.278.531.08.757.481.944.957.581-.285 1.128-.176 1.755-.082.995.148 1.57 1.019 2.622 1.116.873.08 1.698.764 2.643.917.202.897 1.367.184 1.632.975.875-.167 1.074 1.1 1.72.963a4.67 4.67 0 011.92.144c1.015.19 1.86 1.025 2.994.912-.045.328.007.527.43.51.065-.004.097.554.574.47a3.758 3.758 0 012.481.474c.73.396 1.569.482 2.278 1.048.433.344.993.895 1.563.891.647-.003 1.051.397 1.586.547.593.166 1.212.283 1.643.82a.81.81 0 00.636.152 1.02 1.02 0 01.924.392c.338.341.62.928 1.272.389.055-.046.416.359.672.462 1.23.497 2.514.87 3.635 1.614a.56.56 0 00.303.124c.988-.075 1.683.508 2.492.935.48.254.974.823 1.744.58.495-.155.392.42.461.726 1.04-.407 1.545 1.017 2.566.757.15-.039.378.21.565.334.187.123.395.396.551.369.528-.096.771.245 1.138.486.32.21 1.106-.001 1.204.203.248.52.724.347 1.037.57.37.264.738.53 1.107.797.093.067.182.191.276.194 1.325.04 2.302 1.185 3.752 1.002l-.29 1.435c.133.02.239.07.315.042.414-.153.811-.362 1.235-.476.194-.051.609.033.63.122.232 1.026.81.577 1.388.306l1.119 1.097c.501-.428 1.028-.334 1.134.17a.784.784 0 00.405.635.783.783 0 00.753.004 1.076 1.076 0 011.391.296c.149.15.408.339.575.303.903-.188 1.5.39 2.23.704.438.188.736.726 1.393.582.463-.103.999.128 1.503.202.559.104 1.123.18 1.69.225.498.021.522.29.591.675.025.137.483.157.681.31.322.275.628.57.917.88l.442-1.021c.279.444.196 1.058.868.922.287-.058.75-.18.622.436.139-.039.361-.037.403-.124a.976.976 0 00.063-.758.98.98 0 00-.497-.577c-.138-.076-.353.002-.517-.045-.094-.027-.156-.164-.254-.276l.29-.633c-.206-.046-.566-.07-.575-.135-.071-.593-.887-.644-.908-.923-.057-.73-.605-.989-.989-1.391a5.262 5.262 0 01-1.071-1.529 2.982 2.982 0 00-1.001-1.108c-.711-.53-1.569-1.075-1.727-2.112-.777-.09-.852-.895-1.297-1.323-.612-.594-1.45-1-1.701-1.963-.201-.775-1.336-.986-1.323-1.953-.84-.65-1.261-1.664-1.977-2.38-1.356-1.357-2.376-2.97-3.416-4.518a33.709 33.709 0 01-3.093-5.687 37.601 37.601 0 01-2.63-8.407c-.31-1.873-1.247-3.73-.514-5.714.04-.11-.153-.29-.186-.448a6.454 6.454 0 01.484-3.863c.201-.398.353-.82.451-1.255a2.724 2.724 0 01.662-1.522c.347-.44.653-.912.915-1.407.31-.467 1.016-.68.905-1.428-.011-.07.16-.164.237-.255.886-1.07 1.785-2.131 2.645-3.222.346-.438.527-1.024.92-1.4.656-.63 1.451-1.112 2.133-1.72.668-.595 1.206-1.344 1.907-1.89a10.389 10.389 0 012.433-1.452c.928-.376 1.683-1.144 2.705-1.248.966-.098 1.839-.686 2.741-.697.913-.009 1.942-.732 2.813.188.072.075.308.05.442.002 1.362-.495 2.543.205 3.727.638.686.28 1.3.71 1.796 1.261.455.484.715-.323 1.062-.013.235.26.505.484.803.667.887.363 1.71.868 2.434 1.495a.944.944 0 00.429.257c1.336.258 2.239 1.256 3.33 1.93.477.295 1.196.497 1.367.918.246.603.739.746 1.14 1.002 1.275.81 2.323 1.969 3.839 2.43.461.139.774.832 1.223.92.506.099.572.572 1.026.74a3.659 3.659 0 011.855 1.184c.391.55 1.201.574 1.687 1.137.427.497 1.11.765 1.648 1.176.538.412.887 1.102 1.685 1.15.091.006.166.163.258.24 1.583 1.387 3.065 2.916 4.774 4.127 3.267 2.317 5.752 5.438 8.695 8.082.42.378.401.398 1.442.518-.552-.607-.997-1.098-1.568-1.724.267-.1.59-.309.67-.239a18.69 18.69 0 011.792 1.751c.189.216.178.605.255.902-.522.218-.761-1.07-1.32-.126.669.2 1.125.773 1.966.715.69-.047.679 1.105 1.362 1.36.02.007-.019.127.008.17.391.615.506 1.407.886 1.945.361.51 1.246.64 1.888.966a1.7 1.7 0 01.373.433l-.733.234c1.321.806 2.773 1.429 2.795 3.274 1.444.054 1.514 1.484 2.199 2.314.155.187-.099.711-.183 1.182l.865-.649a4.49 4.49 0 001.517 1.916 1.6 1.6 0 01.393.549 4.51 4.51 0 001.211 1.533c.228.25.428.526.594.82.221.258.416.537.582.833.199.454 1.135.191.936.909-.175.625.556.747.527 1.223-.009.146-.165.284-.456.746l.995-.593.006-.112c.877.14.757 1.127 1.276 1.484.668.46.37 1.18.652 1.868l.849-.363c.696.783 1.638 1.364 1.849 2.587.114.67.932 1.216 2.302 1.85a3.434 3.434 0 00-.746.132 2.07 2.07 0 00-.403.395l1.863.344c.1.627.182 1.248.967 1.452.152.04.29.35.331.557a.827.827 0 00.805.764c.155.017.438.162.43.202-.226 1.135 1.179.581 1.337 1.305.093.423.209.84.281 1.12.36.026.654.033.944.073.612.083.291.981 1.054 1.114.485.086.914.729 1.285 1.19 1.303 1.625 3.284 2.462 4.634 4.026 1.115.348 1.747 1.31 2.585 2.014.536.416 1.095.8 1.674 1.154.52.344.786.928 1.513 1.136.608.174.996 1.01 1.596 1.355.389.223.95.126.798.83.578-.129.827.339 1.16.647.857.74 1.802 1.369 2.815 1.873.426.205.782.53 1.026.936.206.428 1.059.009.871.768a4.646 4.646 0 011.661 1.152c.438.447.957.807 1.529 1.061a25.416 25.416 0 013.146 2.062 10.3 10.3 0 001.663 1.19 2.672 2.672 0 011.443 1.862c.045.3.205.571.446.755l.102-1.043c.926.183.673.941.754 1.627.492.02.888.564 1.515.169.117-.074.564.306.81.527.59.526.92 1.139.328 1.998.72-.371 1.194-.366 1.411.38.023.078.525.118.791-.008.074.977 1.319 1.419 1.125 2.654l.525-.804c.579.685 1.46 1.334 1.761 2.188.334.951 1.481 1.351 1.396 2.562l-.792.952c.042.041.082.085.123.127l.901-.63a5.323 5.323 0 011.107 1.98 26.799 26.799 0 011.623 6.342c.163 1.109.166 2.203.245 3.304.076 1.04.244 2.078.268 3.12.061 2.653.044 5.303-.906 7.841.144 1.699-.639 3.182-1.131 4.724a61.511 61.511 0 01-3.007 7.178c-.585 1.253-1.167 2.51-1.818 3.729-.652 1.219-1.589 2.297-1.994 3.663a1.399 1.399 0 01-.443.531 4.966 4.966 0 00-1.552 2.413 2.231 2.231 0 01-.36.568c-.374.566-1.073.827-1.203 1.672-.082.533-.992.796-.974 1.562.002.083-.153.174-.24.255-1.803 1.692-3.008 3.911-4.895 5.538a4.097 4.097 0 00-1.467 1.904 1.335 1.335 0 01-1.341.964c.076.63-.436.907-.784 1.269-.993 1.034-2.035 2.022-2.994 3.087-.488.543-1.281.859-1.307 1.795-.014.491-1.048-.062-.963.736-.791.577-1.121 1.532-1.842 2.187-1.062.96-2.274 1.889-2.957 3.095-.695 1.23-1.732 2.042-2.609 3.038-.946 1.075-2.016 2.039-2.986 3.095a4.707 4.707 0 00-.77 1.291c-.199.449-1.074.182-.933.935-.485.222-1.088.329-1.047 1.067-.716-.088-.551.686-.921.94-.37.255-.58.645-1.107.8-.506.146-.921.707-1.297 1.152-1.36 1.612-3.116 2.775-4.866 3.827a56.006 56.006 0 01-5.212 2.949c-.257.143-.479.34-.651.578-1.328 1.648-3.326 2.46-4.837 3.879-.141.133-.437.087-.641.172-.357.148-.699.332-1.046.502-.36.142-.704.321-1.028.532-.266.209-.456-.773-.728.011-.094.27-.527.469-.846.6-.471.17-.953.309-1.443.416-1.026.268-2.054.532-3.082.791-.441.113-.454-.167-.401-.522zm-54.287-18.695c-.932-.612-1.597-.885-2.014-1.371a4.315 4.315 0 00-1.851-1.204 23.92 23.92 0 01-2.974-1.477c-1.572-.831-3.119-1.708-4.677-2.565-1.371-.755-2.915-1.229-4.017-2.431-1.115-.23-1.705-1.468-2.993-1.476-.476-.002-.924-.604-1.434-.823-.276-.12.224-.958-.46-.496-.673.453-.222-.428-.528-.385-1.058.156-1.854-.447-2.624-1-.962-.69-2.114-.974-3.115-1.622a9.004 9.004 0 00-2.643-1.384 4.809 4.809 0 01-1.72-1.018c-1.45-1.18-3.147-1.959-4.733-2.899-1.736-1.031-3.369-2.217-5.117-3.222-.117-.604-1.146-.25-1.088-1.037-.524-.154-1.04-.34-1.542-.556-.504-.25-.79-.749-1.371-1.02a44.557 44.557 0 01-4.33-2.545c-.956-.585-1.88-1.225-2.855-1.777-1.06-.601-2.274-.983-3.219-1.72-1.704-1.33-3.587-2.397-5.281-3.703-1.56-1.203-3.245-2.299-4.548-3.841a28.828 28.828 0 00-2.423-2.389 5.08 5.08 0 00-1.102-.78 5.756 5.756 0 01-1.9-1.79c-.842-1.202-2.769-3.271-4.125-4.145.129.368.146.88.403 1.073 1.148.866 1.73 2.178 2.677 3.202 2.859 3.09 6.296 5.542 9.245 8.527.144.187.322.346.524.468 1.637.681 2.91 1.918 4.38 2.855.294.188.494.462.913.411.522-.064-.008.938.644.729.93-.295 1.133.963 2.004.871.199-.022.457.594.702.905.07.097.171.166.287.193.755.055.756.049.991.793.425.064 1.063-.279 1.083.564.844.118 1.315 1.148 2.307.939a.574.574 0 01.405.235c-.123.542.288.438.572.566.356.159.622.535.98.67a8.031 8.031 0 013.286 2.007c.328.316.737.534 1.183.629.428.146.897.196 1.172.641.3.484 1.123.447 1.19 1.174 1.055.014 1.663.936 2.523 1.267 2.007.771 3.433 2.531 5.528 3.11.8.835 1.91 1.196 2.813 1.838.847.603 1.938.846 2.59 1.799.272.399.929.618 1.453.745.578.14.738.827 1.475.837.525.008 1.115.95 1.547.86.875-.182.525 1.018 1.202.822 1.515 1.074 3.483 1.137 4.989 2.233.835-.299 1.245.453 1.843.739.652.312 1.377.473 1.915 1.015.2.202.515.287.726.482.236.218.364.585.628.736.478.275 1.338-.112 1.424.845.565.137 1.142.239 1.692.421.416.138.787.51 1.198.547.859.077 1.143 1.043 1.854 1.154.876.134 1.02 1.137 1.835 1.183.783-.196 1.341.573 2.501.591zm-4.37-39.872c.394.432.575.787.857.91 1.011.437 2.054.803 3.09 1.177.261.094.565.077.819.183.661.277 1.209.881 1.992.798.72-.078 1.029 1.288 1.91.507 1.366.883 3.031 1.093 4.405 1.881.856.492 1.875.441 2.623 1.017 1.261.969 3.054.822 4.179 2.045.054.059.239-.024.348.009.794.236 1.723.307 2.344.779.748.568 1.812.384 2.396 1.19.015.021.163-.054.248-.084-.17-.412-.334-.81-.511-1.234l-.696.33a10.752 10.752 0 00-1.193-.999c-.44-.276-1.243-.331-1.37-.674-.231-.619-.871-.323-1.164-.803-.192-.316-.931-.491-1.373-.419-.754.122-.789-.96-1.116-.762-.855.517-.798-.49-1.246-.59-.486-.11-.967-.246-1.44-.406-.522-.174-1.032-.387-1.55-.576-.467-.171-.948-.305-1.403-.501-.508-.22-.978-.523-1.489-.73a14.744 14.744 0 00-1.432-.43c-.479-.138-.962-.261-1.439-.411a25.584 25.584 0 01-1.567-.535c-.462-.179-.892-.452-1.365-.59-.485-.142-1.007-.142-1.503-.261-.537-.128-1.053-.34-1.588-.477-.491-.124-.997-.196-1.766-.344zm120.247-17.576c-.017-2.089.011-3.92-.547-5.718a16.452 16.452 0 00-3.836-6.625c-.287-.299-.415-.897-.728-.993-.605-.186-.887-.455-.891-1.07a.336.336 0 00-.249-.219c-.676.117-.96-.435-1.272-.81-.905-1.093-2.232-1.589-3.277-2.484.169.477.432.915.773 1.288.271.322.523.659.755 1.009.369.388.774.743 1.142 1.132.349.302.645.661.874 1.061.175.413.592.54.777.987.32.775 1.314 1.051 1.608 2.01.251.82 1.566 1.144 1.246 2.335a.885.885 0 01.891.399c.337.484 1.033 3.52.918 4.236-.087.536.51 1.047.027 1.578.309.347.613.698.929 1.038.2.215.418.413.86.846zm-118.723-69.86c-.589.689-.204 1.081.287 1.453.52.392 1.462 1.363 1.644 1.877.114.319.191.488.551.515 1.015.072.184.643.254 1.007l.813-.304c.29.85.687 1.658 1.18 2.408.381.499 1.067.527 1.284 1.116.02.092.026.187.019.281l-.541.06c.267.875.766.1.932.16l1.189 1.166-.285.59 1.341.148-.122 1.1c.978.183 1.463.803 1.876 1.517.063.109.201.296.235.28.838-.348 1.141.636 1.901.825-.274-1.57-1.684-2.063-2.512-3.306l.121-.759c-.99-.382-1.086-.35-1.28-.885-.217-.604-.909-.494-1.173-1.002a10.624 10.624 0 00-1.047-1.53c-.079-.103-.322-.068-.471-.134a.827.827 0 01-.396-.281c-.282-.537-.528-1.093-.787-1.642-.905.021-.895-.827-1.274-1.313-.12-.154-.395-.182-.592-.28-.15-.073-.422-.185-.413-.246.105-.672-.725-.86-.749-1.295-.044-.785-.834-.729-1.02-1.087-.766-1.475-2.217-2.262-3.21-3.486-.301-.373-.577-.764-.89-1.18-.088.098-.296.227-.286.337.051.588.972.72.807 1.467.2.066.396.144.587.231.162.113.382.329.366.476-.131 1.169.736 1.428 1.661 1.715zm-20.902 44.095l-.15.195c.345.303.67.629.975.974.314.455.603.927.866 1.414l.058-.935c.835.573 1.585 1.148 2.392 1.627 1.299.771 2.61 1.517 3.85 2.382.65.453 1.432.718 1.94 1.373.944-.146 1.158.971 2.053 1.134.754.136 1.365.972 2.081 1.432.772.497 1.602.907 2.181 1.652.783-.067 1.025.89 1.557.96.858.114 1.094.844 1.672 1.196.235.143.497.24.742.369.514.209.999.481 1.446.81.887.821 2.033 1.196 3.007 1.864.396.273 1.004.237 1.754.389-.278-.346-.357-.545-.491-.596a15.07 15.07 0 01-3.579-2.121c-1.776-1.322-3.931-2.082-5.46-3.743-1.005-.015-1.398-1.055-2.314-1.344-.819-.26-1.408-1.227-2.228-1.527-.763-.278-1.159-.92-1.818-1.242-2.61-1.275-4.968-2.983-7.476-4.433-1.027-.594-2.038-1.218-3.058-1.83zm62.145-69.77c-.594-.58-1.322-1.08-1.742-1.767-.42-.688-1.662-.423-1.618-1.522-.952.072-1.194-.863-1.805-1.275-.61-.413-1.221-.825-1.806-1.272-.914-.7-1.715-1.635-2.735-2.078-.817-.355-1.21-1.137-1.924-1.422-.865-.344-1.426-.968-2.043-1.565a6 6 0 00-1.275-.808 9.492 9.492 0 00-1.681-.633c.356-.978-1.432-.41-1.028-1.422a4.716 4.716 0 00-.765-.267c-.258-.044-.613.1-.509-.394l-.736-.138-.333 1.603a4.8 4.8 0 001.443-.213c.584-.297.358.13.405.34.688-.17.64.541.969.785.318.235.5.593.825.788.54.326.997 1.02 1.796.468l-.269.775c.827-.13.926.486 1.132 1.038l.893-.673c.202.355.35.649.53.921.091.185.235.338.415.439a7.502 7.502 0 012.943 1.554c.384.376.706.937 1.163 1.09 1.134.386 1.781 1.207 2.375 2.139.064.1.219.239.298.22.635-.156.981.262 1.359.637.721.714 1.438 1.433 2.18 2.125.211.198.686.277.722.47.127.688.574.082.821.058zm4.764 69.041c-.444-.737-1.374-1.118-1.483-2.064-1.167-.963-1.399-2.612-2.599-3.552.012-.812-.877-1.059-1.09-1.685-.443-1.303-1.569-2.167-2.089-3.413-.052-.125-.368-.141-.562-.208-.019.194-.094.404-.047.577.375 1.34 1.133 2.504 1.723 3.746a15.031 15.031 0 001.798 3.16c1.156 1.404 2.573 2.594 3.901 3.896l.448-.457zm4.824 87.835c.939.503 1.755 1.095 2.666 1.388.94.302 1.873.767 2.83.564l.521 1.314c.156-1.119.597-1.485 1.402-1.389.349.04.803-.117 1.035.053.701.512.729-.184 1.136-.515-1.758.008-3.241-.648-4.745-1.114-1.503-.466-3.017-.436-4.527-.617-.07-.009-.162.156-.318.316zm58.21-83.129c-.695-.298-1.087-.368-1.347-.595a19.961 19.961 0 00-2.422-1.925c-.898-.566-1.823-1.103-2.696-1.689-1.311-.879-2.894-1.389-3.915-2.691-.019-.025-.165.05-.297.094 1.005 1.424 2.549 2.137 3.844 3.158a22.27 22.27 0 002.684 1.869c.248.143.351.541.57.905.244-.033.491-.034.735-.003.101.02.119.433.222.459.282.065.634-.073.874.043.194.093.266.438.445.769l1.303-.394zm-85.495-34.913l-.224.207c.868 1.42 1.85 2.785 2.573 4.276a32.302 32.302 0 002.471 4.362c.298-.841.36-1.486-.059-2.131-.635-.981-.985-2.144-1.88-2.96.018-.947-1.059-1.116-1.347-1.94-.242-.697-1.002-1.215-1.533-1.813l-.001-.002z" fill="#FFB307"/></g></svg>