<svg width="60" height="60" viewBox="0 0 60 60" fill="none" xmlns="http://www.w3.org/2000/svg"><path d="M31.162 57.445a4.156 4.156 0 01-5.422 2.24L2.565 46.652A4.13 4.13 0 01.316 41.25a4.156 4.156 0 015.423-2.24l23.175 13.033a4.13 4.13 0 012.248 5.402zm10.663-14.921a4.162 4.162 0 01-5.864-.267L3.595 6.923a4.124 4.124 0 01.268-5.842 4.162 4.162 0 015.864.267l32.366 35.334a4.124 4.124 0 01-.268 5.842zM51.97 32.04a4.156 4.156 0 005.358 2.39 4.13 4.13 0 002.398-5.337L51.64 5.34a4.156 4.156 0 00-5.357-2.39 4.13 4.13 0 00-2.4 5.338c.818 2.134 8.087 23.752 8.087 23.752z" fill="#FFB307"/></svg>