<svg width="197" height="54" viewBox="0 0 197 54" fill="none" xmlns="http://www.w3.org/2000/svg"><g filter="url(#filter0_ddiii_2274_7633)"><g clip-path="url(#clip0_2274_7633)"><rect x="3.5" width="48" height="48" rx="12" fill="#023363"/><path transform="translate(3.5)" fill="url(#paint0_linear_2274_7633)" d="M0 0h48v48H0z"/><g filter="url(#filter1_d_2274_7633)" fill="gold"><path d="M29.103 11.275a6 6 0 00-8.485 0l-8.486 8.485a6 6 0 000 8.485l8.486 8.486a6 6 0 008.485 0l4.049-4.05a9.003 9.003 0 01.407-16.945l-.213-.219-4.243-4.242z"/><path opacity=".7" d="M33.152 32.685a9 9 0 10.408-16.946c4.472 4.701 4.4 12.138-.214 16.752l-.194.194z"/></g></g><rect x="4.5" y="1" width="46" height="46" rx="11" stroke="url(#paint1_linear_2274_7633)" stroke-width="2"/></g><path d="M78.107 33l-1.458-4.158h-7.533L67.631 33H63.5l7.29-19.386h4.482L82.508 33h-4.401zm-5.184-14.904l-2.646 7.479h5.238l-2.592-7.479zM87.246 33h-3.78V13.614h3.78V33zm16.676-7.209c0 4.266-2.511 7.479-6.399 7.479-1.7 0-3.159-.729-4.239-2.133v7.074h-3.753V18.582h3.456v2.106c1.107-1.539 2.7-2.376 4.536-2.376 3.888 0 6.399 3.24 6.399 7.479zm-3.861 0c0-2.7-1.539-4.158-3.375-4.158s-3.375 1.431-3.375 4.158c0 2.727 1.54 4.131 3.375 4.131 1.836 0 3.375-1.377 3.375-4.131zm8.939-.648V33h-3.753V13.614H109v6.858c.999-1.323 2.241-2.16 4.131-2.16 2.889 0 4.887 1.89 4.887 5.373V33h-3.726v-8.046c0-2.133-.837-3.321-2.538-3.321-1.485 0-2.754 1.188-2.754 3.51zM128.758 33v-1.782c-.945 1.35-2.376 2.052-4.347 2.052-2.997 0-4.995-1.755-4.995-4.455 0-2.808 2.268-4.32 6.48-4.32.81 0 1.512.054 2.403.162v-.864c0-1.62-.918-2.565-2.484-2.565-1.62 0-2.592.945-2.727 2.565h-3.375c.216-3.321 2.619-5.481 6.102-5.481 3.78 0 5.994 2.079 5.994 5.616V33h-3.051zm-5.805-4.293c0 1.215.864 1.971 2.268 1.971 1.917 0 3.078-1.053 3.078-2.727v-1.026c-.891-.135-1.512-.189-2.16-.189-2.133 0-3.186.675-3.186 1.971zM147.657 33l-3.618-13.554L140.421 33h-4.158l-4.968-19.386h3.996l3.132 13.149 3.564-13.149h4.185l3.456 13.203 3.159-13.203h4.023L151.815 33h-4.158zm17.569 0v-1.782c-.945 1.35-2.376 2.052-4.347 2.052-2.997 0-4.995-1.755-4.995-4.455 0-2.808 2.268-4.32 6.48-4.32.81 0 1.512.054 2.403.162v-.864c0-1.62-.918-2.565-2.484-2.565-1.62 0-2.592.945-2.727 2.565h-3.375c.216-3.321 2.619-5.481 6.102-5.481 3.78 0 5.994 2.079 5.994 5.616V33h-3.051zm-5.805-4.293c0 1.215.864 1.971 2.268 1.971 1.917 0 3.078-1.053 3.078-2.727v-1.026c-.891-.135-1.512-.189-2.16-.189-2.133 0-3.186.675-3.186 1.971zm23.496-10.125L177.625 33h-4.104l-5.319-14.418h4.05l3.429 10.152 3.456-10.152h3.78zm6.33 14.661c-4.32 0-7.209-2.997-7.209-7.506 0-4.293 2.997-7.425 7.155-7.425 4.563 0 7.587 3.699 6.912 8.397h-10.233c.243 2.349 1.377 3.645 3.294 3.645 1.647 0 2.754-.81 3.186-2.241h3.726c-.81 3.267-3.321 5.13-6.831 5.13zm-.135-12.177c-1.755 0-2.862 1.134-3.186 3.267h6.21c-.108-1.998-1.242-3.267-3.024-3.267z" fill="#0C111D"/><defs><linearGradient id="paint0_linear_2274_7633" x1="24" y1="0" x2="26" y2="48" gradientUnits="userSpaceOnUse"><stop stop-color="#fff" stop-opacity="0"/><stop offset="1" stop-color="#fff" stop-opacity=".12"/></linearGradient><linearGradient id="paint1_linear_2274_7633" x1="27.5" y1="0" x2="27.5" y2="48" gradientUnits="userSpaceOnUse"><stop stop-color="#fff" stop-opacity=".12"/><stop offset="1" stop-color="#fff" stop-opacity="0"/></linearGradient><filter id="filter0_ddiii_2274_7633" x=".5" y="-3" width="54" height="57" filterUnits="userSpaceOnUse" color-interpolation-filters="sRGB"><feFlood flood-opacity="0" result="BackgroundImageFix"/><feColorMatrix in="SourceAlpha" values="0 0 0 0 0 0 0 0 0 0 0 0 0 0 0 0 0 0 127 0" result="hardAlpha"/><feOffset dy="1"/><feGaussianBlur stdDeviation=".5"/><feComposite in2="hardAlpha" operator="out"/><feColorMatrix values="0 0 0 0 0.162923 0 0 0 0 0.162923 0 0 0 0 0.162923 0 0 0 0.08 0"/><feBlend in2="BackgroundImageFix" result="effect1_dropShadow_2274_7633"/><feColorMatrix in="SourceAlpha" values="0 0 0 0 0 0 0 0 0 0 0 0 0 0 0 0 0 0 127 0" result="hardAlpha"/><feMorphology radius="1" in="SourceAlpha" result="effect2_dropShadow_2274_7633"/><feOffset dy="3"/><feGaussianBlur stdDeviation="2"/><feComposite in2="hardAlpha" operator="out"/><feColorMatrix values="0 0 0 0 0.164706 0 0 0 0 0.164706 0 0 0 0 0.164706 0 0 0 0.14 0"/><feBlend in2="effect1_dropShadow_2274_7633" result="effect2_dropShadow_2274_7633"/><feBlend in="SourceGraphic" in2="effect2_dropShadow_2274_7633" result="shape"/><feColorMatrix in="SourceAlpha" values="0 0 0 0 0 0 0 0 0 0 0 0 0 0 0 0 0 0 127 0" result="hardAlpha"/><feOffset dy="-3"/><feGaussianBlur stdDeviation="1.5"/><feComposite in2="hardAlpha" operator="arithmetic" k2="-1" k3="1"/><feColorMatrix values="0 0 0 0 0 0 0 0 0 0 0 0 0 0 0 0 0 0 0.1 0"/><feBlend in2="shape" result="effect3_innerShadow_2274_7633"/><feColorMatrix in="SourceAlpha" values="0 0 0 0 0 0 0 0 0 0 0 0 0 0 0 0 0 0 127 0" result="hardAlpha"/><feOffset dy="3"/><feGaussianBlur stdDeviation="1.5"/><feComposite in2="hardAlpha" operator="arithmetic" k2="-1" k3="1"/><feColorMatrix values="0 0 0 0 1 0 0 0 0 1 0 0 0 0 1 0 0 0 0.1 0"/><feBlend in2="effect3_innerShadow_2274_7633" result="effect4_innerShadow_2274_7633"/><feColorMatrix in="SourceAlpha" values="0 0 0 0 0 0 0 0 0 0 0 0 0 0 0 0 0 0 127 0" result="hardAlpha"/><feMorphology radius="1" in="SourceAlpha" result="effect5_innerShadow_2274_7633"/><feOffset/><feComposite in2="hardAlpha" operator="arithmetic" k2="-1" k3="1"/><feColorMatrix values="0 0 0 0 0.0627451 0 0 0 0 0.0941176 0 0 0 0 0.156863 0 0 0 0.24 0"/><feBlend in2="effect4_innerShadow_2274_7633" result="effect5_innerShadow_2274_7633"/></filter><filter id="filter1_d_2274_7633" x="7.375" y="5.25" width="41.25" height="42" filterUnits="userSpaceOnUse" color-interpolation-filters="sRGB"><feFlood flood-opacity="0" result="BackgroundImageFix"/><feColorMatrix in="SourceAlpha" values="0 0 0 0 0 0 0 0 0 0 0 0 0 0 0 0 0 0 127 0" result="hardAlpha"/><feMorphology radius="1.5" in="SourceAlpha" result="effect1_dropShadow_2274_7633"/><feOffset dy="2.25"/><feGaussianBlur stdDeviation="2.25"/><feComposite in2="hardAlpha" operator="out"/><feColorMatrix values="0 0 0 0 0.141176 0 0 0 0 0.141176 0 0 0 0 0.141176 0 0 0 0.1 0"/><feBlend in2="BackgroundImageFix" result="effect1_dropShadow_2274_7633"/><feBlend in="SourceGraphic" in2="effect1_dropShadow_2274_7633" result="shape"/></filter><clipPath id="clip0_2274_7633"><rect x="3.5" width="48" height="48" rx="12" fill="#fff"/></clipPath></defs></svg>