<svg width="213" height="54" viewBox="0 0 213 54" fill="none" xmlns="http://www.w3.org/2000/svg"><g filter="url(#filter0_ddiii_2274_7635)"><g clip-path="url(#clip0_2274_7635)"><rect x="3.5" width="48" height="48" rx="12" fill="#023363"/><path transform="translate(3.5)" fill="url(#paint0_linear_2274_7635)" d="M0 0h48v48H0z"/><g filter="url(#filter1_d_2274_7635)" fill-rule="evenodd" clip-rule="evenodd" fill="gold"><path d="M33.385 7.51c.335-.175.736-.17 1.066.014l7.595 4.22c.358.197.579.574.579.983v8.437c0 .419-.234.803-.605.997L22.615 32.286c-.336.175-.736.17-1.067-.014l-7.593-4.219a1.125 1.125 0 01-.579-.983l-.001-8.437c0-.42.233-.804.605-.998L33.385 7.51zm-17.76 11.804l.001 5.9 17.155-8.95v-5.9l-17.156 8.95zm19.406-8.894v5.863l5.344 2.969v-5.863l-5.344-2.97zm4.096 10.713l-5.237-2.91L16.874 27.1l5.237 2.91 17.016-8.878z"/><path opacity=".5" d="M22.615 40.724c-.335.175-.736.17-1.066-.014l-7.595-4.219a1.125 1.125 0 01-.579-.983V27.07c0-.42.234-.804.605-.998l19.405-10.125c.336-.174.736-.17 1.067.014l7.593 4.22c.357.198.578.574.578.982l.002 8.438c0 .419-.233.803-.605.997L22.615 40.724zm17.76-11.804l-.001-5.9-17.156 8.951.002 5.9 17.155-8.951zM20.97 37.815l-.002-5.864-5.343-2.968v5.863l5.345 2.969zm-4.097-10.713l5.237 2.91 17.016-8.878-5.237-2.91-17.016 8.878z"/></g></g><rect x="4.5" y="1" width="46" height="46" rx="11" stroke="url(#paint1_linear_2274_7635)" stroke-width="2"/></g><path d="M79.565 26.979c0 3.699-2.97 6.291-7.83 6.291-4.887 0-7.938-2.619-8.235-6.723h4.158c.108 2.133 1.485 3.51 3.996 3.51 2.079 0 3.564-.918 3.564-2.484 0-1.215-.945-1.944-2.592-2.268l-3.186-.621c-2.943-.567-5.211-2.16-5.211-5.373 0-3.456 3.051-5.94 7.236-5.94 4.347 0 7.533 2.538 7.803 6.588H75.11c-.135-2.025-1.539-3.402-3.591-3.402-1.998 0-3.132 1.134-3.132 2.484 0 1.323 1.215 1.89 2.619 2.16l3.321.675c3.402.675 5.238 2.241 5.238 5.103zm10.692 2.376v3.267c-.918.459-1.782.648-2.89.648-2.97 0-4.832-1.701-4.832-4.941v-6.534h-2.916v-3.213h2.916v-4.266h3.726v4.266h4.13v3.213h-4.13v5.67c0 1.674.756 2.349 2.106 2.349.702 0 1.35-.162 1.89-.459zM100.189 33v-1.782c-.945 1.35-2.376 2.052-4.347 2.052-2.997 0-4.995-1.755-4.995-4.455 0-2.808 2.268-4.32 6.48-4.32.81 0 1.512.054 2.403.162v-.864c0-1.62-.918-2.565-2.484-2.565-1.62 0-2.592.945-2.727 2.565h-3.375c.216-3.321 2.62-5.481 6.102-5.481 3.78 0 5.994 2.079 5.994 5.616V33h-3.051zm-5.805-4.293c0 1.215.864 1.971 2.268 1.971 1.917 0 3.078-1.053 3.078-2.727v-1.026c-.89-.135-1.512-.189-2.16-.189-2.133 0-3.186.675-3.186 1.971zm17.086 4.563c-4.158 0-7.02-3.078-7.02-7.479 0-4.32 2.97-7.479 7.02-7.479 3.753 0 6.534 2.538 6.993 6.426h-3.942c-.189-1.917-1.35-3.105-3.051-3.105-1.944 0-3.186 1.593-3.186 4.158 0 2.592 1.215 4.158 3.186 4.158 1.728 0 2.835-1.134 3.051-3.105h3.942c-.432 3.969-3.132 6.426-6.993 6.426zm12.075-.27h-3.753V13.614h3.753v11.07l5.265-6.102h4.32l-5.967 6.912L133.832 33h-4.779l-5.508-6.696V33zm24.493-7.209c0-4.266 2.511-7.479 6.399-7.479 1.728 0 3.186.756 4.266 2.133v-6.831h3.726V33H159v-2.079c-1.134 1.512-2.7 2.349-4.563 2.349-3.888 0-6.399-3.267-6.399-7.479zm3.861 0c0 2.7 1.539 4.131 3.375 4.131 1.863 0 3.402-1.458 3.402-4.185 0-2.727-1.566-4.104-3.402-4.104s-3.375 1.404-3.375 4.158zM182.113 33h-12.528V13.614h4.104v15.687h8.424V33zm10 0v-1.782c-.945 1.35-2.376 2.052-4.347 2.052-2.997 0-4.995-1.755-4.995-4.455 0-2.808 2.268-4.32 6.48-4.32.81 0 1.512.054 2.403.162v-.864c0-1.62-.918-2.565-2.484-2.565-1.62 0-2.592.945-2.727 2.565h-3.375c.216-3.321 2.619-5.481 6.102-5.481 3.78 0 5.994 2.079 5.994 5.616V33h-3.051zm-5.805-4.293c0 1.215.864 1.971 2.268 1.971 1.917 0 3.078-1.053 3.078-2.727v-1.026c-.891-.135-1.512-.189-2.16-.189-2.133 0-3.186.675-3.186 1.971zm25.401-2.916c0 4.212-2.511 7.479-6.399 7.479-1.863 0-3.429-.837-4.536-2.349V33h-3.456V13.614h3.753v6.831c1.053-1.404 2.511-2.133 4.239-2.133 3.888 0 6.399 3.213 6.399 7.479zm-3.861 0c0-2.754-1.539-4.158-3.375-4.158-1.809 0-3.375 1.377-3.375 4.104 0 2.727 1.512 4.185 3.375 4.185 1.836 0 3.375-1.431 3.375-4.131zm-67.158 7.452c3.942 0 6.723-2.322 6.75-5.616h-3.645c-.108 1.647-1.296 2.646-3.159 2.646-1.944 0-3.078-.972-3.078-2.592 0-1.593 1.323-2.538 3.564-2.538h1.971v-2.97h-1.755c-1.836 0-2.943-.918-2.943-2.403 0-1.431.945-2.322 2.511-2.322 1.539 0 2.511.972 2.538 2.565h3.645c-.027-3.159-2.781-5.535-6.372-5.535-3.834 0-6.183 2.079-6.183 5.022 0 1.674.972 2.997 2.727 3.915-2.268.729-3.564 2.187-3.564 4.158 0 3.375 2.808 5.67 6.993 5.67z" fill="#0C111D"/><defs><linearGradient id="paint0_linear_2274_7635" x1="24" y1="0" x2="26" y2="48" gradientUnits="userSpaceOnUse"><stop stop-color="#fff" stop-opacity="0"/><stop offset="1" stop-color="#fff" stop-opacity=".12"/></linearGradient><linearGradient id="paint1_linear_2274_7635" x1="27.5" y1="0" x2="27.5" y2="48" gradientUnits="userSpaceOnUse"><stop stop-color="#fff" stop-opacity=".12"/><stop offset="1" stop-color="#fff" stop-opacity="0"/></linearGradient><filter id="filter0_ddiii_2274_7635" x=".5" y="-3" width="54" height="57" filterUnits="userSpaceOnUse" color-interpolation-filters="sRGB"><feFlood flood-opacity="0" result="BackgroundImageFix"/><feColorMatrix in="SourceAlpha" values="0 0 0 0 0 0 0 0 0 0 0 0 0 0 0 0 0 0 127 0" result="hardAlpha"/><feOffset dy="1"/><feGaussianBlur stdDeviation=".5"/><feComposite in2="hardAlpha" operator="out"/><feColorMatrix values="0 0 0 0 0.162923 0 0 0 0 0.162923 0 0 0 0 0.162923 0 0 0 0.08 0"/><feBlend in2="BackgroundImageFix" result="effect1_dropShadow_2274_7635"/><feColorMatrix in="SourceAlpha" values="0 0 0 0 0 0 0 0 0 0 0 0 0 0 0 0 0 0 127 0" result="hardAlpha"/><feMorphology radius="1" in="SourceAlpha" result="effect2_dropShadow_2274_7635"/><feOffset dy="3"/><feGaussianBlur stdDeviation="2"/><feComposite in2="hardAlpha" operator="out"/><feColorMatrix values="0 0 0 0 0.164706 0 0 0 0 0.164706 0 0 0 0 0.164706 0 0 0 0.14 0"/><feBlend in2="effect1_dropShadow_2274_7635" result="effect2_dropShadow_2274_7635"/><feBlend in="SourceGraphic" in2="effect2_dropShadow_2274_7635" result="shape"/><feColorMatrix in="SourceAlpha" values="0 0 0 0 0 0 0 0 0 0 0 0 0 0 0 0 0 0 127 0" result="hardAlpha"/><feOffset dy="-3"/><feGaussianBlur stdDeviation="1.5"/><feComposite in2="hardAlpha" operator="arithmetic" k2="-1" k3="1"/><feColorMatrix values="0 0 0 0 0 0 0 0 0 0 0 0 0 0 0 0 0 0 0.1 0"/><feBlend in2="shape" result="effect3_innerShadow_2274_7635"/><feColorMatrix in="SourceAlpha" values="0 0 0 0 0 0 0 0 0 0 0 0 0 0 0 0 0 0 127 0" result="hardAlpha"/><feOffset dy="3"/><feGaussianBlur stdDeviation="1.5"/><feComposite in2="hardAlpha" operator="arithmetic" k2="-1" k3="1"/><feColorMatrix values="0 0 0 0 1 0 0 0 0 1 0 0 0 0 1 0 0 0 0.1 0"/><feBlend in2="effect3_innerShadow_2274_7635" result="effect4_innerShadow_2274_7635"/><feColorMatrix in="SourceAlpha" values="0 0 0 0 0 0 0 0 0 0 0 0 0 0 0 0 0 0 127 0" result="hardAlpha"/><feMorphology radius="1" in="SourceAlpha" result="effect5_innerShadow_2274_7635"/><feOffset/><feComposite in2="hardAlpha" operator="arithmetic" k2="-1" k3="1"/><feColorMatrix values="0 0 0 0 0.0627451 0 0 0 0 0.0941176 0 0 0 0 0.156863 0 0 0 0.24 0"/><feBlend in2="effect4_innerShadow_2274_7635" result="effect5_innerShadow_2274_7635"/></filter><filter id="filter1_d_2274_7635" x="10.375" y="5.25" width="35.25" height="42" filterUnits="userSpaceOnUse" color-interpolation-filters="sRGB"><feFlood flood-opacity="0" result="BackgroundImageFix"/><feColorMatrix in="SourceAlpha" values="0 0 0 0 0 0 0 0 0 0 0 0 0 0 0 0 0 0 127 0" result="hardAlpha"/><feMorphology radius="1.5" in="SourceAlpha" result="effect1_dropShadow_2274_7635"/><feOffset dy="2.25"/><feGaussianBlur stdDeviation="2.25"/><feComposite in2="hardAlpha" operator="out"/><feColorMatrix values="0 0 0 0 0.141176 0 0 0 0 0.141176 0 0 0 0 0.141176 0 0 0 0.1 0"/><feBlend in2="BackgroundImageFix" result="effect1_dropShadow_2274_7635"/><feBlend in="SourceGraphic" in2="effect1_dropShadow_2274_7635" result="shape"/></filter><clipPath id="clip0_2274_7635"><rect x="3.5" width="48" height="48" rx="12" fill="#fff"/></clipPath></defs></svg>