<svg width="175" height="54" viewBox="0 0 175 54" fill="none" xmlns="http://www.w3.org/2000/svg"><g filter="url(#filter0_ddiii_2274_7634)"><g clip-path="url(#clip0_2274_7634)"><rect x="3.5" width="48" height="48" rx="12" fill="#023363"/><path transform="translate(3.5)" fill="url(#paint0_linear_2274_7634)" d="M0 0h48v48H0z"/><g filter="url(#filter1_d_2274_7634)" fill="gold"><path d="M34.1 14.1H11l3.3 6.6h19.8a6.6 6.6 0 110 13.2c5.468 0 9.9-4.433 9.9-9.9 0-5.468-4.432-9.9-9.9-9.9z"/><path opacity=".3" d="M26.587 32.076c-1.097-2.195.499-4.776 2.952-4.776h4.56a3.3 3.3 0 110 6.6h-4.56a3.3 3.3 0 01-2.952-1.824z"/><path opacity=".6" d="M34.102 20.7h-16.5l3.3 6.6h13.2a3.3 3.3 0 110 6.6 6.6 6.6 0 000-13.2z"/></g></g><rect x="4.5" y="1" width="46" height="46" rx="11" stroke="url(#paint1_linear_2274_7634)" stroke-width="2"/></g><path d="M152.68 17.376c-.971 0-1.68-.177-2.128-.532-.43-.373-.644-.952-.644-1.736 0-.803.214-1.381.644-1.736.448-.373 1.157-.56 2.128-.56.952 0 1.652.187 2.1.56.448.355.672.933.672 1.736 0 .784-.224 1.363-.672 1.736-.448.355-1.148.532-2.1.532z" fill="#0C111D"/><path fill-rule="evenodd" clip-rule="evenodd" d="M75.848 15.248c-1.064-.485-2.352-.728-3.864-.728H63.5V33h4.816v-6.16h3.668c1.512 0 2.8-.243 3.864-.728s1.876-1.185 2.436-2.1.84-2.025.84-3.332-.28-2.417-.84-3.332c-.56-.915-1.372-1.615-2.436-2.1zm-2.352 7.364c-.504.41-1.26.616-2.268.616h-2.912v-5.096h2.912c1.008 0 1.764.215 2.268.644.523.41.784 1.045.784 1.904s-.261 1.503-.784 1.932zm9.894 9.8c1.138.579 2.482.868 4.032.868.97 0 1.894-.14 2.772-.42.896-.28 1.661-.69 2.296-1.232a4.47 4.47 0 001.372-2.044l-3.808-1.26a2.48 2.48 0 01-.952 1.176c-.411.28-.971.42-1.68.42-.635 0-1.176-.121-1.624-.364-.448-.261-.794-.672-1.036-1.232a4.533 4.533 0 01-.293-1.12h9.56c.038-.224.066-.504.085-.84.018-.336.028-.672.028-1.008 0-1.288-.271-2.427-.812-3.416-.542-1.008-1.335-1.792-2.38-2.352-1.027-.579-2.278-.868-3.752-.868-1.438 0-2.716.29-3.836.868a6.251 6.251 0 00-2.576 2.492c-.616 1.083-.924 2.39-.924 3.92 0 1.53.308 2.837.924 3.92a6.21 6.21 0 002.604 2.492zm1.107-7.756c.05-.32.12-.61.209-.868.224-.597.541-1.036.952-1.316.429-.28.942-.42 1.54-.42.84 0 1.456.299 1.848.896.297.432.487 1.002.569 1.708h-5.118z" fill="#0C111D"/><path d="M101.144 24.152c-.28.467-.42 1.064-.42 1.792V33h-4.76V19h4.2l.196 3.024c.355-1.045.878-1.857 1.568-2.436.71-.579 1.606-.868 2.688-.868.355 0 .654.028.896.084.262.056.467.13.616.224l-.476 3.92a2.989 2.989 0 00-.728-.168 5.39 5.39 0 00-1.036-.084 3.46 3.46 0 00-1.568.364 2.877 2.877 0 00-1.176 1.092z" fill="#0C111D"/><path fill-rule="evenodd" clip-rule="evenodd" d="M109.792 32.412c1.138.579 2.482.868 4.032.868.97 0 1.894-.14 2.772-.42.896-.28 1.661-.69 2.296-1.232a4.479 4.479 0 001.372-2.044l-3.808-1.26a2.486 2.486 0 01-.952 1.176c-.411.28-.971.42-1.68.42-.635 0-1.176-.121-1.624-.364-.448-.261-.794-.672-1.036-1.232a4.485 4.485 0 01-.292-1.12h9.56c.037-.224.065-.504.084-.84.018-.336.028-.672.028-1.008 0-1.288-.271-2.427-.812-3.416-.542-1.008-1.335-1.792-2.38-2.352-1.027-.579-2.278-.868-3.752-.868-1.438 0-2.716.29-3.836.868a6.247 6.247 0 00-2.576 2.492c-.616 1.083-.924 2.39-.924 3.92 0 1.53.308 2.837.924 3.92a6.21 6.21 0 002.604 2.492zm1.107-7.756c.05-.32.12-.61.209-.868.224-.597.541-1.036.952-1.316.429-.28.942-.42 1.54-.42.84 0 1.456.299 1.848.896.297.432.487 1.002.569 1.708h-5.118zm18.048 14.364c-1.214 0-2.325-.15-3.333-.448-1.008-.28-1.848-.784-2.52-1.512-.653-.71-1.073-1.708-1.26-2.996l4.592-.588c.075.821.336 1.447.784 1.876.467.448 1.139.672 2.017.672.821 0 1.446-.261 1.876-.784.447-.523.671-1.26.671-2.212v-2.716a4.75 4.75 0 01-1.708 1.68c-.709.41-1.549.616-2.519.616-1.176 0-2.203-.27-3.081-.812-.858-.541-1.521-1.325-1.987-2.352-.467-1.045-.701-2.287-.701-3.724 0-1.475.252-2.735.757-3.78.504-1.045 1.185-1.839 2.043-2.38.878-.56 1.867-.84 2.969-.84 1.232 0 2.23.308 2.996.924.765.597 1.306 1.381 1.623 2.352l.113-2.996h4.283v12.88c0 1.736-.308 3.117-.924 4.144a5.309 5.309 0 01-2.631 2.268c-1.139.485-2.492.728-4.06.728zm.252-9.884c.783 0 1.409-.29 1.876-.868.466-.579.699-1.447.699-2.604 0-1.12-.224-1.97-.671-2.548-.448-.597-1.083-.896-1.904-.896-.542 0-1.009.13-1.4.392-.393.261-.701.644-.924 1.148-.206.504-.309 1.139-.309 1.904 0 1.195.234 2.072.7 2.632.467.56 1.111.84 1.933.84z" fill="#0C111D"/><path d="M143.505 22.024L143.309 19h-4.2v14h4.76v-7.056c0-.728.14-1.325.42-1.792.298-.485.69-.85 1.176-1.092a3.456 3.456 0 011.568-.364c.41 0 .756.028 1.036.084.298.037.541.093.728.168l.476-3.92a1.955 1.955 0 00-.616-.224 4.064 4.064 0 00-.896-.084c-1.083 0-1.979.29-2.688.868-.691.579-1.214 1.39-1.568 2.436zm25.807-2.744c-.709-.373-1.549-.56-2.52-.56-1.082 0-2.034.252-2.856.756-.821.485-1.465 1.223-1.932 2.212l-.008.018-.132-2.706h-4.256v14h4.76v-7.392c0-.765.112-1.39.336-1.876.224-.485.532-.83.924-1.036a2.499 2.499 0 011.26-.336c.598 0 1.074.187 1.428.56.374.373.56 1.064.56 2.072v6.972c0 .859.178 1.577.532 2.156a3.25 3.25 0 001.456 1.288c.635.299 1.354.448 2.156.448.654 0 1.167-.056 1.54-.168a6.476 6.476 0 001.288-.476l.336-2.856a2.405 2.405 0 01-.644.224c-.186.037-.42.056-.7.056a1.38 1.38 0 01-.868-.28c-.224-.205-.336-.541-.336-1.008v-7.672c0-1.101-.205-2.016-.616-2.744a4.043 4.043 0 00-1.708-1.652zM155.06 19v14h-4.76V19h4.76z" fill="#0C111D"/><defs><linearGradient id="paint0_linear_2274_7634" x1="24" y1="0" x2="26" y2="48" gradientUnits="userSpaceOnUse"><stop stop-color="#fff" stop-opacity="0"/><stop offset="1" stop-color="#fff" stop-opacity=".12"/></linearGradient><linearGradient id="paint1_linear_2274_7634" x1="27.5" y1="0" x2="27.5" y2="48" gradientUnits="userSpaceOnUse"><stop stop-color="#fff" stop-opacity=".12"/><stop offset="1" stop-color="#fff" stop-opacity="0"/></linearGradient><filter id="filter0_ddiii_2274_7634" x=".5" y="-3" width="54" height="57" filterUnits="userSpaceOnUse" color-interpolation-filters="sRGB"><feFlood flood-opacity="0" result="BackgroundImageFix"/><feColorMatrix in="SourceAlpha" values="0 0 0 0 0 0 0 0 0 0 0 0 0 0 0 0 0 0 127 0" result="hardAlpha"/><feOffset dy="1"/><feGaussianBlur stdDeviation=".5"/><feComposite in2="hardAlpha" operator="out"/><feColorMatrix values="0 0 0 0 0.162923 0 0 0 0 0.162923 0 0 0 0 0.162923 0 0 0 0.08 0"/><feBlend in2="BackgroundImageFix" result="effect1_dropShadow_2274_7634"/><feColorMatrix in="SourceAlpha" values="0 0 0 0 0 0 0 0 0 0 0 0 0 0 0 0 0 0 127 0" result="hardAlpha"/><feMorphology radius="1" in="SourceAlpha" result="effect2_dropShadow_2274_7634"/><feOffset dy="3"/><feGaussianBlur stdDeviation="2"/><feComposite in2="hardAlpha" operator="out"/><feColorMatrix values="0 0 0 0 0.164706 0 0 0 0 0.164706 0 0 0 0 0.164706 0 0 0 0.14 0"/><feBlend in2="effect1_dropShadow_2274_7634" result="effect2_dropShadow_2274_7634"/><feBlend in="SourceGraphic" in2="effect2_dropShadow_2274_7634" result="shape"/><feColorMatrix in="SourceAlpha" values="0 0 0 0 0 0 0 0 0 0 0 0 0 0 0 0 0 0 127 0" result="hardAlpha"/><feOffset dy="-3"/><feGaussianBlur stdDeviation="1.5"/><feComposite in2="hardAlpha" operator="arithmetic" k2="-1" k3="1"/><feColorMatrix values="0 0 0 0 0 0 0 0 0 0 0 0 0 0 0 0 0 0 0.1 0"/><feBlend in2="shape" result="effect3_innerShadow_2274_7634"/><feColorMatrix in="SourceAlpha" values="0 0 0 0 0 0 0 0 0 0 0 0 0 0 0 0 0 0 127 0" result="hardAlpha"/><feOffset dy="3"/><feGaussianBlur stdDeviation="1.5"/><feComposite in2="hardAlpha" operator="arithmetic" k2="-1" k3="1"/><feColorMatrix values="0 0 0 0 1 0 0 0 0 1 0 0 0 0 1 0 0 0 0.1 0"/><feBlend in2="effect3_innerShadow_2274_7634" result="effect4_innerShadow_2274_7634"/><feColorMatrix in="SourceAlpha" values="0 0 0 0 0 0 0 0 0 0 0 0 0 0 0 0 0 0 127 0" result="hardAlpha"/><feMorphology radius="1" in="SourceAlpha" result="effect5_innerShadow_2274_7634"/><feOffset/><feComposite in2="hardAlpha" operator="arithmetic" k2="-1" k3="1"/><feColorMatrix values="0 0 0 0 0.0627451 0 0 0 0 0.0941176 0 0 0 0 0.156863 0 0 0 0.24 0"/><feBlend in2="effect4_innerShadow_2274_7634" result="effect5_innerShadow_2274_7634"/></filter><filter id="filter1_d_2274_7634" x="8" y="5.25" width="39" height="42" filterUnits="userSpaceOnUse" color-interpolation-filters="sRGB"><feFlood flood-opacity="0" result="BackgroundImageFix"/><feColorMatrix in="SourceAlpha" values="0 0 0 0 0 0 0 0 0 0 0 0 0 0 0 0 0 0 127 0" result="hardAlpha"/><feMorphology radius="1.5" in="SourceAlpha" result="effect1_dropShadow_2274_7634"/><feOffset dy="2.25"/><feGaussianBlur stdDeviation="2.25"/><feComposite in2="hardAlpha" operator="out"/><feColorMatrix values="0 0 0 0 0.141176 0 0 0 0 0.141176 0 0 0 0 0.141176 0 0 0 0.1 0"/><feBlend in2="BackgroundImageFix" result="effect1_dropShadow_2274_7634"/><feBlend in="SourceGraphic" in2="effect1_dropShadow_2274_7634" result="shape"/></filter><clipPath id="clip0_2274_7634"><rect x="3.5" width="48" height="48" rx="12" fill="#fff"/></clipPath></defs></svg>