<svg width="207" height="54" viewBox="0 0 207 54" fill="none" xmlns="http://www.w3.org/2000/svg"><g filter="url(#filter0_ddiii_2274_7637)"><g clip-path="url(#clip0_2274_7637)"><rect x="3.5" width="48" height="48" rx="12" fill="#023363"/><path transform="translate(3.5)" fill="url(#paint0_linear_2274_7637)" d="M0 0h48v48H0z"/><g filter="url(#filter1_d_2274_7637)"><path fill-rule="evenodd" clip-rule="evenodd" d="M23.246 30.904a3.273 3.273 0 012.514-1.177h13.195A6.545 6.545 0 0045.5 23.18v-3.27a6.545 6.545 0 00-6.545-6.546h-2.558c-.972 0-1.893.432-2.515 1.178l-2.128 2.554a3.273 3.273 0 01-2.514 1.177H16.046A6.545 6.545 0 009.5 24.818v3.273a6.545 6.545 0 006.546 6.545h2.558c.97 0 1.892-.431 2.514-1.178l2.128-2.553zM40.591 19.91c0-.904-.733-1.637-1.636-1.637h-5.013c-.971 0-1.892.432-2.514 1.178l-2.129 2.554a3.273 3.273 0 01-2.514 1.177h-10.74c-.903 0-1.636.733-1.636 1.637v3.273c0 .903.733 1.636 1.636 1.636h5.013a3.27 3.27 0 002.514-1.178l2.129-2.554a3.273 3.273 0 012.514-1.177h10.74c.903 0 1.636-.733 1.636-1.637V19.91z" fill="gold"/></g></g><rect x="4.5" y="1" width="46" height="46" rx="11" stroke="url(#paint1_linear_2274_7637)" stroke-width="2"/></g><path d="M80.645 33l-2.997-10.556-.432-1.944-.459 1.944L73.787 33h-4.86L63.5 14.64h4.617l2.943 12.042.486 2.186.486-2.186 3.402-12.043h3.78l3.375 12.043.486 2.186.486-2.186 2.943-12.043h4.374L85.451 33h-4.806zm14.518-9.72h-4.13c.431-3.267 2.942-5.265 6.668-5.265 4.158 0 6.318 2.43 6.318 5.805v5.563c0 1.89.162 2.862.405 3.618h-4.266c-.135-.486-.216-1.107-.243-1.81-1.134 1.567-2.862 2.241-4.59 2.241-2.754 0-4.806-1.404-4.806-4.185 0-1.97 1.134-3.482 3.43-4.293 1.89-.62 3.698-.81 5.94-.837v-.323c0-1.593-.784-2.43-2.377-2.43-1.404 0-2.16.782-2.349 1.916zm-.513 5.697c0 .973.73 1.593 1.944 1.593 1.836 0 3.294-1.485 3.294-3.483v-.567c-4.185.082-5.238 1.108-5.238 2.457zM106.42 33V18.475h4.131V20.5c.918-1.729 2.322-2.485 3.807-2.485.594 0 1.134.162 1.431.46v3.482a7.39 7.39 0 00-1.647-.162c-2.484 0-3.591 1.404-3.591 3.7V33h-4.131zm14.613 5.968h-4.131V18.474h4.131v1.512c.891-1.268 2.133-1.97 3.645-1.97 3.753 0 6.102 2.943 6.102 7.695 0 4.94-2.403 7.721-6.102 7.721-1.539 0-2.781-.648-3.645-1.89v7.425zm2.781-17.605c-1.836 0-2.781 1.54-2.781 4.348s.972 4.373 2.781 4.373c1.782 0 2.727-1.538 2.727-4.373 0-2.808-.972-4.348-2.727-4.348zm12.196 1.134c0 2.863 8.991.352 8.991 6.102 0 2.863-2.646 4.833-6.426 4.833-3.672 0-6.318-1.62-6.858-5.21h4.131c.189 1.35 1.296 2.078 2.835 2.078 1.458 0 2.187-.567 2.187-1.457 0-2.808-8.802-.297-8.802-6.13 0-2.43 1.971-4.698 5.859-4.698 3.483 0 6.129 1.593 6.534 5.265h-4.104c-.243-1.485-1.107-2.106-2.565-2.106-1.08 0-1.782.54-1.782 1.323zm14.66 16.471h-4.131V18.474h4.131v1.512c.891-1.268 2.133-1.97 3.645-1.97 3.753 0 6.102 2.943 6.102 7.695 0 4.94-2.403 7.721-6.102 7.721-1.539 0-2.781-.648-3.645-1.89v7.425zm2.781-17.605c-1.836 0-2.781 1.54-2.781 4.348s.972 4.373 2.781 4.373c1.782 0 2.727-1.538 2.727-4.373 0-2.808-.972-4.348-2.727-4.348zm22.295 6.858c-.756 3.349-3.456 5.211-7.02 5.211-4.509 0-7.29-2.916-7.29-7.695 0-4.94 2.808-7.721 7.128-7.721 4.347 0 7.074 2.889 7.074 7.64v.919h-9.99c.216 2.322 1.296 3.564 3.078 3.564 1.35 0 2.268-.595 2.7-1.918h4.32zm-7.182-6.912c-1.539 0-2.511 1-2.835 2.89h5.643c-.324-1.89-1.296-2.89-2.808-2.89zm22.489 6.912c-.756 3.349-3.456 5.211-7.02 5.211-4.509 0-7.29-2.916-7.29-7.695 0-4.94 2.808-7.721 7.128-7.721 4.347 0 7.074 2.889 7.074 7.64v.919h-9.99c.216 2.322 1.296 3.564 3.078 3.564 1.35 0 2.268-.595 2.7-1.918h4.32zm-7.182-6.912c-1.539 0-2.511 1-2.835 2.89h5.643c-.324-1.89-1.296-2.89-2.808-2.89zm14.253 12.123c-3.726 0-6.075-2.916-6.075-7.695 0-4.94 2.403-7.721 6.075-7.721 1.539 0 2.781.648 3.672 1.89V13.56h4.131V33h-4.131v-1.54c-.891 1.27-2.16 1.971-3.672 1.971zm.891-3.348c1.836 0 2.781-1.511 2.781-4.346 0-2.808-.972-4.375-2.781-4.375-1.782 0-2.727 1.54-2.727 4.375 0 2.808.972 4.346 2.727 4.346z" fill="#0C111D"/><defs><linearGradient id="paint0_linear_2274_7637" x1="24" y1="0" x2="26" y2="48" gradientUnits="userSpaceOnUse"><stop stop-color="#fff" stop-opacity="0"/><stop offset="1" stop-color="#fff" stop-opacity=".12"/></linearGradient><linearGradient id="paint1_linear_2274_7637" x1="27.5" y1="0" x2="27.5" y2="48" gradientUnits="userSpaceOnUse"><stop stop-color="#fff" stop-opacity=".12"/><stop offset="1" stop-color="#fff" stop-opacity="0"/></linearGradient><filter id="filter0_ddiii_2274_7637" x=".5" y="-3" width="54" height="57" filterUnits="userSpaceOnUse" color-interpolation-filters="sRGB"><feFlood flood-opacity="0" result="BackgroundImageFix"/><feColorMatrix in="SourceAlpha" values="0 0 0 0 0 0 0 0 0 0 0 0 0 0 0 0 0 0 127 0" result="hardAlpha"/><feOffset dy="1"/><feGaussianBlur stdDeviation=".5"/><feComposite in2="hardAlpha" operator="out"/><feColorMatrix values="0 0 0 0 0.162923 0 0 0 0 0.162923 0 0 0 0 0.162923 0 0 0 0.08 0"/><feBlend in2="BackgroundImageFix" result="effect1_dropShadow_2274_7637"/><feColorMatrix in="SourceAlpha" values="0 0 0 0 0 0 0 0 0 0 0 0 0 0 0 0 0 0 127 0" result="hardAlpha"/><feMorphology radius="1" in="SourceAlpha" result="effect2_dropShadow_2274_7637"/><feOffset dy="3"/><feGaussianBlur stdDeviation="2"/><feComposite in2="hardAlpha" operator="out"/><feColorMatrix values="0 0 0 0 0.164706 0 0 0 0 0.164706 0 0 0 0 0.164706 0 0 0 0.14 0"/><feBlend in2="effect1_dropShadow_2274_7637" result="effect2_dropShadow_2274_7637"/><feBlend in="SourceGraphic" in2="effect2_dropShadow_2274_7637" result="shape"/><feColorMatrix in="SourceAlpha" values="0 0 0 0 0 0 0 0 0 0 0 0 0 0 0 0 0 0 127 0" result="hardAlpha"/><feOffset dy="-3"/><feGaussianBlur stdDeviation="1.5"/><feComposite in2="hardAlpha" operator="arithmetic" k2="-1" k3="1"/><feColorMatrix values="0 0 0 0 0 0 0 0 0 0 0 0 0 0 0 0 0 0 0.1 0"/><feBlend in2="shape" result="effect3_innerShadow_2274_7637"/><feColorMatrix in="SourceAlpha" values="0 0 0 0 0 0 0 0 0 0 0 0 0 0 0 0 0 0 127 0" result="hardAlpha"/><feOffset dy="3"/><feGaussianBlur stdDeviation="1.5"/><feComposite in2="hardAlpha" operator="arithmetic" k2="-1" k3="1"/><feColorMatrix values="0 0 0 0 1 0 0 0 0 1 0 0 0 0 1 0 0 0 0.1 0"/><feBlend in2="effect3_innerShadow_2274_7637" result="effect4_innerShadow_2274_7637"/><feColorMatrix in="SourceAlpha" values="0 0 0 0 0 0 0 0 0 0 0 0 0 0 0 0 0 0 127 0" result="hardAlpha"/><feMorphology radius="1" in="SourceAlpha" result="effect5_innerShadow_2274_7637"/><feOffset/><feComposite in2="hardAlpha" operator="arithmetic" k2="-1" k3="1"/><feColorMatrix values="0 0 0 0 0.0627451 0 0 0 0 0.0941176 0 0 0 0 0.156863 0 0 0 0.24 0"/><feBlend in2="effect4_innerShadow_2274_7637" result="effect5_innerShadow_2274_7637"/></filter><filter id="filter1_d_2274_7637" x="6.5" y="5.25" width="42" height="42" filterUnits="userSpaceOnUse" color-interpolation-filters="sRGB"><feFlood flood-opacity="0" result="BackgroundImageFix"/><feColorMatrix in="SourceAlpha" values="0 0 0 0 0 0 0 0 0 0 0 0 0 0 0 0 0 0 127 0" result="hardAlpha"/><feMorphology radius="1.5" in="SourceAlpha" result="effect1_dropShadow_2274_7637"/><feOffset dy="2.25"/><feGaussianBlur stdDeviation="2.25"/><feComposite in2="hardAlpha" operator="out"/><feColorMatrix values="0 0 0 0 0.141176 0 0 0 0 0.141176 0 0 0 0 0.141176 0 0 0 0.1 0"/><feBlend in2="BackgroundImageFix" result="effect1_dropShadow_2274_7637"/><feBlend in="SourceGraphic" in2="effect1_dropShadow_2274_7637" result="shape"/></filter><clipPath id="clip0_2274_7637"><rect x="3.5" width="48" height="48" rx="12" fill="#fff"/></clipPath></defs></svg>