<svg width="189" height="54" viewBox="0 0 189 54" fill="none" xmlns="http://www.w3.org/2000/svg"><g filter="url(#filter0_ddiii_2274_7636)"><g clip-path="url(#clip0_2274_7636)"><rect x="3.5" width="48" height="48" rx="12" fill="#023363"/><path transform="translate(3.5)" fill="url(#paint0_linear_2274_7636)" d="M0 0h48v48H0z"/><g filter="url(#filter1_d_2274_7636)"><path fill-rule="evenodd" clip-rule="evenodd" d="M21.631 27.54l3.427 3.427a5.34 5.34 0 008.934-2.393l2.393 2.393a5.34 5.34 0 007.551-7.552l-7.551-7.551a5.34 5.34 0 00-8.934 2.393l-2.393-2.393a5.34 5.34 0 00-7.552 0l-6.214 6.214a6.118 6.118 0 1010.339 5.462zm1.539-9.788a2.67 2.67 0 00-3.777 3.774l7.552 7.553a2.67 2.67 0 003.778-3.774l-7.553-7.553zm-5.113 6.214l-2.439-2.439-2.438 2.439a3.448 3.448 0 104.877 0zm12.662-2.44a2.67 2.67 0 013.778-3.774l7.551 7.551a2.67 2.67 0 01-3.776 3.776l-7.553-7.554z" fill="gold"/></g></g><rect x="4.5" y="1" width="46" height="46" rx="11" stroke="url(#paint1_linear_2274_7636)" stroke-width="2"/></g><path d="M68.053 33H63.5V11.54h4.553l6.38 14.008 6.409-14.008h4.611V33H80.9v-4.495c0-4.64 0-5.655.232-7.25L76.579 31h-4.292l-4.524-9.745c.261 1.595.29 3.393.29 5.742V33zm25.697.377c-3.073 0-4.987-1.798-4.987-4.64 0-2.668 1.885-4.321 5.365-4.582l4.06-.32v-.231c0-1.421-.87-2.175-2.465-2.175-1.885 0-2.9.725-2.9 2.03H89.11c0-3.277 2.697-5.423 6.844-5.423 4.205 0 6.583 2.349 6.583 6.496V33h-3.944l-.29-1.914c-.464 1.334-2.378 2.29-4.553 2.29zm1.567-3.306c1.71 0 2.9-.841 2.9-2.494v-.783l-2.262.203c-1.943.174-2.64.609-2.64 1.537 0 1.044.639 1.537 2.002 1.537zm9.699-4.582c0-4.408 2.871-7.482 6.96-7.482 1.972 0 3.538.754 4.321 1.943l.232-1.45h4.205v13.572c0 5.19-2.987 8.323-7.946 8.323-4.437 0-7.424-2.523-7.83-6.641h4.524c.087 1.624 1.305 2.58 3.277 2.58 2.146 0 3.509-1.275 3.509-3.334v-1.885c-.87 1.044-2.494 1.71-4.379 1.71-4.06 0-6.873-2.986-6.873-7.336zm4.495-.116c0 2.088 1.392 3.567 3.364 3.567 2.03 0 3.393-1.421 3.393-3.567 0-2.117-1.363-3.48-3.422-3.48-1.972 0-3.335 1.42-3.335 3.48zM128.559 33h-4.466V18.5h4.205l.29 1.508c.899-1.247 2.552-1.972 4.437-1.972 3.451 0 5.452 2.204 5.452 6.003v8.96h-4.466v-7.887c0-1.827-1.015-3.016-2.552-3.016-1.769 0-2.9 1.16-2.9 2.958V33zm12.337-7.28c0-4.581 3.364-7.655 8.004-7.655 4.611 0 7.975 3.074 7.975 7.656s-3.364 7.627-7.975 7.627c-4.64 0-8.004-3.045-8.004-7.627zm4.495-.028c0 2.204 1.421 3.654 3.509 3.654 2.059 0 3.48-1.45 3.48-3.654 0-2.175-1.421-3.625-3.48-3.625-2.088 0-3.509 1.45-3.509 3.625zM163.931 33h-4.466V11.134h4.466V33zm5.554-16.762a2.537 2.537 0 01-2.552-2.552c0-1.421 1.131-2.523 2.552-2.523a2.506 2.506 0 012.523 2.523 2.531 2.531 0 01-2.523 2.552zM167.281 33V18.5h4.466V33h-4.466zm12.195.377c-3.074 0-4.988-1.798-4.988-4.64 0-2.668 1.885-4.321 5.365-4.582l4.06-.32v-.231c0-1.421-.87-2.175-2.465-2.175-1.885 0-2.9.725-2.9 2.03h-3.712c0-3.277 2.697-5.423 6.844-5.423 4.205 0 6.583 2.349 6.583 6.496V33h-3.944l-.29-1.914c-.464 1.334-2.378 2.29-4.553 2.29zm1.566-3.306c1.711 0 2.9-.841 2.9-2.494v-.783l-2.262.203c-1.943.174-2.639.609-2.639 1.537 0 1.044.638 1.537 2.001 1.537z" fill="#0C111D"/><defs><linearGradient id="paint0_linear_2274_7636" x1="24" y1="0" x2="26" y2="48" gradientUnits="userSpaceOnUse"><stop stop-color="#fff" stop-opacity="0"/><stop offset="1" stop-color="#fff" stop-opacity=".12"/></linearGradient><linearGradient id="paint1_linear_2274_7636" x1="27.5" y1="0" x2="27.5" y2="48" gradientUnits="userSpaceOnUse"><stop stop-color="#fff" stop-opacity=".12"/><stop offset="1" stop-color="#fff" stop-opacity="0"/></linearGradient><filter id="filter0_ddiii_2274_7636" x=".5" y="-3" width="54" height="57" filterUnits="userSpaceOnUse" color-interpolation-filters="sRGB"><feFlood flood-opacity="0" result="BackgroundImageFix"/><feColorMatrix in="SourceAlpha" values="0 0 0 0 0 0 0 0 0 0 0 0 0 0 0 0 0 0 127 0" result="hardAlpha"/><feOffset dy="1"/><feGaussianBlur stdDeviation=".5"/><feComposite in2="hardAlpha" operator="out"/><feColorMatrix values="0 0 0 0 0.162923 0 0 0 0 0.162923 0 0 0 0 0.162923 0 0 0 0.08 0"/><feBlend in2="BackgroundImageFix" result="effect1_dropShadow_2274_7636"/><feColorMatrix in="SourceAlpha" values="0 0 0 0 0 0 0 0 0 0 0 0 0 0 0 0 0 0 127 0" result="hardAlpha"/><feMorphology radius="1" in="SourceAlpha" result="effect2_dropShadow_2274_7636"/><feOffset dy="3"/><feGaussianBlur stdDeviation="2"/><feComposite in2="hardAlpha" operator="out"/><feColorMatrix values="0 0 0 0 0.164706 0 0 0 0 0.164706 0 0 0 0 0.164706 0 0 0 0.14 0"/><feBlend in2="effect1_dropShadow_2274_7636" result="effect2_dropShadow_2274_7636"/><feBlend in="SourceGraphic" in2="effect2_dropShadow_2274_7636" result="shape"/><feColorMatrix in="SourceAlpha" values="0 0 0 0 0 0 0 0 0 0 0 0 0 0 0 0 0 0 127 0" result="hardAlpha"/><feOffset dy="-3"/><feGaussianBlur stdDeviation="1.5"/><feComposite in2="hardAlpha" operator="arithmetic" k2="-1" k3="1"/><feColorMatrix values="0 0 0 0 0 0 0 0 0 0 0 0 0 0 0 0 0 0 0.1 0"/><feBlend in2="shape" result="effect3_innerShadow_2274_7636"/><feColorMatrix in="SourceAlpha" values="0 0 0 0 0 0 0 0 0 0 0 0 0 0 0 0 0 0 127 0" result="hardAlpha"/><feOffset dy="3"/><feGaussianBlur stdDeviation="1.5"/><feComposite in2="hardAlpha" operator="arithmetic" k2="-1" k3="1"/><feColorMatrix values="0 0 0 0 1 0 0 0 0 1 0 0 0 0 1 0 0 0 0.1 0"/><feBlend in2="effect3_innerShadow_2274_7636" result="effect4_innerShadow_2274_7636"/><feColorMatrix in="SourceAlpha" values="0 0 0 0 0 0 0 0 0 0 0 0 0 0 0 0 0 0 127 0" result="hardAlpha"/><feMorphology radius="1" in="SourceAlpha" result="effect5_innerShadow_2274_7636"/><feOffset/><feComposite in2="hardAlpha" operator="arithmetic" k2="-1" k3="1"/><feColorMatrix values="0 0 0 0 0.0627451 0 0 0 0 0.0941176 0 0 0 0 0.156863 0 0 0 0.24 0"/><feBlend in2="effect4_innerShadow_2274_7636" result="effect5_innerShadow_2274_7636"/></filter><filter id="filter1_d_2274_7636" x="6.5" y="5.25" width="42" height="42" filterUnits="userSpaceOnUse" color-interpolation-filters="sRGB"><feFlood flood-opacity="0" result="BackgroundImageFix"/><feColorMatrix in="SourceAlpha" values="0 0 0 0 0 0 0 0 0 0 0 0 0 0 0 0 0 0 127 0" result="hardAlpha"/><feMorphology radius="1.5" in="SourceAlpha" result="effect1_dropShadow_2274_7636"/><feOffset dy="2.25"/><feGaussianBlur stdDeviation="2.25"/><feComposite in2="hardAlpha" operator="out"/><feColorMatrix values="0 0 0 0 0.141176 0 0 0 0 0.141176 0 0 0 0 0.141176 0 0 0 0.1 0"/><feBlend in2="BackgroundImageFix" result="effect1_dropShadow_2274_7636"/><feBlend in="SourceGraphic" in2="effect1_dropShadow_2274_7636" result="shape"/></filter><clipPath id="clip0_2274_7636"><rect x="3.5" width="48" height="48" rx="12" fill="#fff"/></clipPath></defs></svg>